{
copyright = "Copyright (c) 2015, Cadson Demak (info@cadsondemak.com)";
customParameters = (
{
name = description;
value = "Copyright (c) 2015, Cadson Demak (info@cadsondemak.com)";
},
{
name = license;

glyphs = (
{
glyphname = A;
lastChange = "2015-07-18 10:50:33 +0000";
layers = (
{
layerId = "082782A7-7ED4-4E0F-8549-8BA7EDA0D1AE";
name = Regular;
paths = (
{
closed = 1;
nodes = (
"143 0 LINE SMOOTH",
"161 0 OFFCURVE",
"166 4 OFFCURVE",
"172 18 CURVE SMOOTH",
"228 158 LINE",
"504 158 LINE",
"561 18 LINE SMOOTH",
"567 4 OFFCURVE",
"572 0 OFFCURVE",
"590 0 CURVE SMOOTH",
"677 0 LINE SMOOTH",
"693 0 OFFCURVE",
"698 12 OFFCURVE",
"691 28 CURVE SMOOTH",
"427 654 LINE SMOOTH",
"419 673 OFFCURVE",
"413 680 OFFCURVE",
"394 680 CURVE SMOOTH",
"339 680 LINE SMOOTH",
"321 680 OFFCURVE",
"314 673 OFFCURVE",
"306 654 CURVE SMOOTH",
"42 28 LINE SMOOTH",
"35 12 OFFCURVE",
"40 0 OFFCURVE",
"56 0 CURVE SMOOTH"
);
},
{
closed = 1;
nodes = (
"366 513 LINE",
"472 251 LINE",
"260 251 LINE"
);
}
);
width = 733;
}
);
note = A;
unicode = 0041;
},
{
glyphname = Aacute;
lastChange = "2015-07-18 10:50:33 +0000";
layers = (
{
layerId = "082782A7-7ED4-4E0F-8549-8BA7EDA0D1AE";
name = Regular;
paths = (
{
closed = 1;
nodes = (
"143 0 LINE SMOOTH",
"161 0 OFFCURVE",
"166 4 OFFCURVE",
"172 18 CURVE SMOOTH",
"228 158 LINE",
"504 158 LINE",
"561 18 LINE SMOOTH",
"567 4 OFFCURVE",
"572 0 OFFCURVE",
"590 0 CURVE SMOOTH",
"677 0 LINE SMOOTH",
"693 0 OFFCURVE",
"698 12 OFFCURVE",
"691 28 CURVE SMOOTH",
"427 654 LINE SMOOTH",
"419 673 OFFCURVE",
"413 680 OFFCURVE",
"394 680 CURVE SMOOTH",
"339 680 LINE SMOOTH",
"321 680 OFFCURVE",
"314 673 OFFCURVE",
"306 654 CURVE SMOOTH",
"42 28 LINE SMOOTH",
"35 12 OFFCURVE",
"40 0 OFFCURVE",
"56 0 CURVE SMOOTH"
);
},
{
closed = 1;
nodes = (
"366 513 LINE",
"472 251 LINE",
"260 251 LINE"
);
},
{
closed = 1;
nodes = (
"390 729 LINE SMOOTH",
"416 729 OFFCURVE",
"423 734 OFFCURVE",
"432 751 CURVE SMOOTH",
"498 880 LINE SMOOTH",
"509 901 OFFCURVE",
"499 912 OFFCURVE",
"477 912 CURVE SMOOTH",
"403 912 LINE SMOOTH",
"378 912 OFFCURVE",
"373 905 OFFCURVE",
"366 888 CURVE",
"319 757 LINE SMOOTH",
"313 740 OFFCURVE",
"318 729 OFFCURVE",
"338 729 CURVE SMOOTH"
);
}
);
width = 733;
}
);
note = Aacute;
unicode = 00C1;
},
{
glyphname = Abreve;
lastChange = "2015-07-18 10:50:33 +0000";
layers = (
{
layerId = "082782A7-7ED4-4E0F-8549-8BA7EDA0D1AE";
name = Regular;
paths = (
{
closed = 1;
nodes = (
"143 0 LINE SMOOTH",
"161 0 OFFCURVE",
"166 4 OFFCURVE",
"172 18 CURVE SMOOTH",
"228 158 LINE",
"504 158 LINE",
"561 18 LINE SMOOTH",
"567 4 OFFCURVE",
"572 0 OFFCURVE",
"590 0 CURVE SMOOTH",
"677 0 LINE SMOOTH",
"693 0 OFFCURVE",
"698 12 OFFCURVE",
"691 28 CURVE SMOOTH",
"427 654 LINE SMOOTH",
"419 673 OFFCURVE",
"413 680 OFFCURVE",
"394 680 CURVE SMOOTH",
"339 680 LINE SMOOTH",
"321 680 OFFCURVE",
"314 673 OFFCURVE",
"306 654 CURVE SMOOTH",
"42 28 LINE SMOOTH",
"35 12 OFFCURVE",
"40 0 OFFCURVE",
"56 0 CURVE SMOOTH"
);
},
{
closed = 1;
nodes = (
"366 513 LINE",
"472 251 LINE",
"260 251 LINE"
);
},
{
closed = 1;
nodes = (
"477 756 OFFCURVE",
"531 825 OFFCURVE",
"531 919 CURVE SMOOTH",
"531 930 OFFCURVE",
"525 937 OFFCURVE",
"515 937 CURVE SMOOTH",
"449 937 LINE SMOOTH",
"435 937 OFFCURVE",
"432 930 OFFCURVE",
"432 918 CURVE SMOOTH",
"432 874 OFFCURVE",
"417 843 OFFCURVE",
"366 843 CURVE SMOOTH",
"314 843 OFFCURVE",
"300 874 OFFCURVE",
"300 918 CURVE SMOOTH",
"300 930 OFFCURVE",
"297 937 OFFCURVE",
"283 937 CURVE SMOOTH",
"217 937 LINE SMOOTH",
"207 937 OFFCURVE",
"201 930 OFFCURVE",
"201 919 CURVE SMOOTH",
"201 825 OFFCURVE",
"253 756 OFFCURVE",
"366 756 CURVE SMOOTH"
);
}
);
width = 733;
}
);
note = Abreve;
unicode = 0102;
},
{
glyphname = Abreveacute;
lastChange = "2015-07-18 10:50:34 +0000";
layers = (
{
layerId = "082782A7-7ED4-4E0F-8549-8BA7EDA0D1AE";
name = Regular;
paths = (
{
closed = 1;
nodes = (
"143 0 LINE SMOOTH",
"161 0 OFFCURVE",
"166 4 OFFCURVE",
"172 18 CURVE SMOOTH",
"228 158 LINE",
"504 158 LINE",
"561 18 LINE SMOOTH",
"567 4 OFFCURVE",
"572 0 OFFCURVE",
"590 0 CURVE SMOOTH",
"677 0 LINE SMOOTH",
"693 0 OFFCURVE",
"698 12 OFFCURVE",
"691 28 CURVE SMOOTH",
"427 654 LINE SMOOTH",
"419 673 OFFCURVE",
"413 680 OFFCURVE",
"394 680 CURVE SMOOTH",
"339 680 LINE SMOOTH",
"321 680 OFFCURVE",
"314 673 OFFCURVE",
"306 654 CURVE SMOOTH",
"42 28 LINE SMOOTH",
"35 12 OFFCURVE",
"40 0 OFFCURVE",
"56 0 CURVE SMOOTH"
);
},
{
closed = 1;
nodes = (
"366 513 LINE",
"472 251 LINE",
"260 251 LINE"
);
},
{
closed = 1;
nodes = (
"467 750 OFFCURVE",
"531 809 OFFCURVE",
"531 893 CURVE SMOOTH",
"531 904 OFFCURVE",
"525 911 OFFCURVE",
"515 911 CURVE SMOOTH",
"450 911 LINE SMOOTH",
"436 911 OFFCURVE",
"433 904 OFFCURVE",
"433 892 CURVE SMOOTH",
"433 858 OFFCURVE",
"412 830 OFFCURVE",
"366 830 CURVE SMOOTH",
"319 830 OFFCURVE",
"299 858 OFFCURVE",
"299 892 CURVE SMOOTH",
"299 904 OFFCURVE",
"296 911 OFFCURVE",
"282 911 CURVE SMOOTH",
"217 911 LINE SMOOTH",
"207 911 OFFCURVE",
"201 904 OFFCURVE",
"201 893 CURVE SMOOTH",
"201 809 OFFCURVE",
"263 750 OFFCURVE",
"366 750 CURVE SMOOTH"
);
},
{
closed = 1;
nodes = (
"375 893 LINE SMOOTH",
"398 893 OFFCURVE",
"404 897 OFFCURVE",
"414 915 CURVE SMOOTH",
"461 1003 LINE SMOOTH",
"472 1022 OFFCURVE",
"466 1034 OFFCURVE",
"445 1034 CURVE SMOOTH",
"395 1034 LINE SMOOTH",
"372 1034 OFFCURVE",
"367 1028 OFFCURVE",
"361 1010 CURVE SMOOTH",
"328 918 LINE SMOOTH",
"323 904 OFFCURVE",
"328 893 OFFCURVE",
"345 893 CURVE SMOOTH"
);
}
);
width = 733;
}
);
note = Abreveacute;
unicode = 1EAE;
},
{
glyphname = Abrevedotbelow;
lastChange = "2015-07-18 10:50:33 +0000";
layers = (
{
layerId = "082782A7-7ED4-4E0F-8549-8BA7EDA0D1AE";
name = Regular;
paths = (
{
closed = 1;
nodes = (
"143 0 LINE SMOOTH",
"161 0 OFFCURVE",
"166 4 OFFCURVE",
"172 18 CURVE SMOOTH",
"228 158 LINE",
"504 158 LINE",
"561 18 LINE SMOOTH",
"567 4 OFFCURVE",
"572 0 OFFCURVE",
"590 0 CURVE SMOOTH",
"677 0 LINE SMOOTH",
"693 0 OFFCURVE",
"698 12 OFFCURVE",
"691 28 CURVE SMOOTH",
"427 654 LINE SMOOTH",
"419 673 OFFCURVE",
"413 680 OFFCURVE",
"394 680 CURVE SMOOTH",
"339 680 LINE SMOOTH",
"321 680 OFFCURVE",
"314 673 OFFCURVE",
"306 654 CURVE SMOOTH",
"42 28 LINE SMOOTH",
"35 12 OFFCURVE",
"40 0 OFFCURVE",
"56 0 CURVE SMOOTH"
);
},
{
closed = 1;
nodes = (
"377 -184 LINE SMOOTH",
"406 -184 OFFCURVE",
"424 -161 OFFCURVE",
"424 -134 CURVE SMOOTH",
"424 -115 LINE SMOOTH",
"424 -88 OFFCURVE",
"405 -66 OFFCURVE",
"377 -66 CURVE SMOOTH",
"357 -66 LINE SMOOTH",
"330 -66 OFFCURVE",
"310 -88 OFFCURVE",
"310 -115 CURVE SMOOTH",
"310 -134 LINE SMOOTH",
"310 -161 OFFCURVE",
"330 -184 OFFCURVE",
"357 -184 CURVE SMOOTH"
);
},
{
closed = 1;
nodes = (
"366 513 LINE",
"472 251 LINE",
"260 251 LINE"
);
},
{
closed = 1;
nodes = (
"477 744 OFFCURVE",
"531 813 OFFCURVE",
"531 907 CURVE SMOOTH",
"531 918 OFFCURVE",
"525 925 OFFCURVE",
"515 925 CURVE SMOOTH",
"449 925 LINE SMOOTH",
"435 925 OFFCURVE",
"432 918 OFFCURVE",
"432 906 CURVE SMOOTH",
"432 862 OFFCURVE",
"417 831 OFFCURVE",
"366 831 CURVE SMOOTH",
"314 831 OFFCURVE",
"300 862 OFFCURVE",
"300 906 CURVE SMOOTH",
"300 918 OFFCURVE",
"297 925 OFFCURVE",
"283 925 CURVE SMOOTH",
"217 925 LINE SMOOTH",
"207 925 OFFCURVE",
"201 918 OFFCURVE",
"201 907 CURVE SMOOTH",
"201 813 OFFCURVE",
"253 744 OFFCURVE",
"366 744 CURVE SMOOTH"
);
}
);
width = 733;
}
);
note = Abrevedotbelow;
unicode = 1EB6;
},
{
glyphname = Abrevegrave;
lastChange = "2015-07-18 10:50:34 +0000";
layers = (
{
layerId = "082782A7-7ED4-4E0F-8549-8BA7EDA0D1AE";
name = Regular;
paths = (
{
closed = 1;
nodes = (
"143 0 LINE SMOOTH",
"161 0 OFFCURVE",
"166 4 OFFCURVE",
"172 18 CURVE SMOOTH",
"228 158 LINE",
"504 158 LINE",
"561 18 LINE SMOOTH",
"567 4 OFFCURVE",
"572 0 OFFCURVE",
"590 0 CURVE SMOOTH",
"677 0 LINE SMOOTH",
"693 0 OFFCURVE",
"698 12 OFFCURVE",
"691 28 CURVE SMOOTH",
"427 654 LINE SMOOTH",
"419 673 OFFCURVE",
"413 680 OFFCURVE",
"394 680 CURVE SMOOTH",
"339 680 LINE SMOOTH",
"321 680 OFFCURVE",
"314 673 OFFCURVE",
"306 654 CURVE SMOOTH",
"42 28 LINE SMOOTH",
"35 12 OFFCURVE",
"40 0 OFFCURVE",
"56 0 CURVE SMOOTH"
);
},
{
closed = 1;
nodes = (
"366 513 LINE",
"472 251 LINE",
"260 251 LINE"
);
},
{
closed = 1;
nodes = (
"469 736 OFFCURVE",
"531 795 OFFCURVE",
"531 879 CURVE SMOOTH",
"531 890 OFFCURVE",
"525 897 OFFCURVE",
"515 897 CURVE SMOOTH",
"450 897 LINE SMOOTH",
"436 897 OFFCURVE",
"433 890 OFFCURVE",
"433 878 CURVE SMOOTH",
"433 844 OFFCURVE",
"413 816 OFFCURVE",
"366 816 CURVE SMOOTH",
"320 816 OFFCURVE",
"299 844 OFFCURVE",
"299 878 CURVE SMOOTH",
"299 890 OFFCURVE",
"296 897 OFFCURVE",
"282 897 CURVE SMOOTH",
"217 897 LINE SMOOTH",
"207 897 OFFCURVE",
"201 890 OFFCURVE",
"201 879 CURVE SMOOTH",
"201 795 OFFCURVE",
"265 736 OFFCURVE",
"366 736 CURVE SMOOTH"
);
},
{
closed = 1;
nodes = (
"387 879 LINE SMOOTH",
"404 879 OFFCURVE",
"409 890 OFFCURVE",
"404 904 CURVE SMOOTH",
"371 996 LINE SMOOTH",
"365 1014 OFFCURVE",
"360 1020 OFFCURVE",
"337 1020 CURVE SMOOTH",
"287 1020 LINE SMOOTH",
"266 1020 OFFCURVE",
"260 1008 OFFCURVE",
"271 989 CURVE SMOOTH",
"318 901 LINE SMOOTH",
"328 883 OFFCURVE",
"334 879 OFFCURVE",
"357 879 CURVE SMOOTH"
);
}
);
width = 733;
}
);
note = Abrevegrave;
unicode = 1EB0;
},
{
glyphname = Abrevehookabove;
lastChange = "2015-07-18 10:50:32 +0000";
layers = (
{
layerId = "082782A7-7ED4-4E0F-8549-8BA7EDA0D1AE";
name = Regular;
paths = (
{
closed = 1;
nodes = (
"143 0 LINE SMOOTH",
"161 0 OFFCURVE",
"166 4 OFFCURVE",
"172 18 CURVE SMOOTH",
"228 158 LINE",
"504 158 LINE",
"561 18 LINE SMOOTH",
"567 4 OFFCURVE",
"572 0 OFFCURVE",
"590 0 CURVE SMOOTH",
"677 0 LINE SMOOTH",
"693 0 OFFCURVE",
"698 12 OFFCURVE",
"691 28 CURVE SMOOTH",
"427 654 LINE SMOOTH",
"419 673 OFFCURVE",
"413 680 OFFCURVE",
"394 680 CURVE SMOOTH",
"339 680 LINE SMOOTH",
"321 680 OFFCURVE",
"314 673 OFFCURVE",
"306 654 CURVE SMOOTH",
"42 28 LINE SMOOTH",
"35 12 OFFCURVE",
"40 0 OFFCURVE",
"56 0 CURVE SMOOTH"
);
},
{
closed = 1;
nodes = (
"366 513 LINE",
"472 251 LINE",
"260 251 LINE"
);
},
{
closed = 1;
nodes = (
"470 735 OFFCURVE",
"532 794 OFFCURVE",
"532 878 CURVE SMOOTH",
"532 889 OFFCURVE",
"526 896 OFFCURVE",
"516 896 CURVE SMOOTH",
"451 896 LINE SMOOTH",
"437 896 OFFCURVE",
"434 889 OFFCURVE",
"434 877 CURVE SMOOTH",
"434 843 OFFCURVE",
"414 815 OFFCURVE",
"367 815 CURVE SMOOTH",
"321 815 OFFCURVE",
"300 843 OFFCURVE",
"300 877 CURVE SMOOTH",
"300 889 OFFCURVE",
"297 896 OFFCURVE",
"283 896 CURVE SMOOTH",
"218 896 LINE SMOOTH",
"208 896 OFFCURVE",
"202 889 OFFCURVE",
"202 878 CURVE SMOOTH",
"202 794 OFFCURVE",
"266 735 OFFCURVE",
"367 735 CURVE SMOOTH"
);
},
{
closed = 1;
nodes = (
"375 861 LINE SMOOTH",
"388 861 OFFCURVE",
"395 868 OFFCURVE",
"395 881 CURVE SMOOTH",
"395 895 LINE",
"433 895 OFFCURVE",
"467 918 OFFCURVE",
"467 966 CURVE SMOOTH",
"467 1014 OFFCURVE",
"435 1041 OFFCURVE",
"370 1041 CURVE SMOOTH",
"338 1041 OFFCURVE",
"302 1034 OFFCURVE",
"281 1020 CURVE",
"277 1017 OFFCURVE",
"276 1015 OFFCURVE",
"278 1010 CURVE",
"296 974 LINE SMOOTH",
"298 970 OFFCURVE",
"300 970 OFFCURVE",
"304 972 CURVE",
"318 980 OFFCURVE",
"338 986 OFFCURVE",
"357 986 CURVE SMOOTH",
"380 986 OFFCURVE",
"391 979 OFFCURVE",
"391 963 CURVE SMOOTH",
"391 944 OFFCURVE",
"381 937 OFFCURVE",
"351 937 CURVE SMOOTH",
"330 937 OFFCURVE",
"320 928 OFFCURVE",
"320 909 CURVE SMOOTH",
"320 881 LINE SMOOTH",
"320 868 OFFCURVE",
"327 861 OFFCURVE",
"341 861 CURVE SMOOTH"
);
}
);
width = 733;
}
);
note = Abrevehookabove;
unicode = 1EB2;
},
{
glyphname = Abrevetilde;
lastChange = "2015-07-18 10:50:34 +0000";
layers = (
{
layerId = "082782A7-7ED4-4E0F-8549-8BA7EDA0D1AE";
name = Regular;
paths = (
{
closed = 1;
nodes = (
"143 0 LINE SMOOTH",
"161 0 OFFCURVE",
"166 4 OFFCURVE",
"172 18 CURVE SMOOTH",
"228 158 LINE",
"504 158 LINE",
"561 18 LINE SMOOTH",
"567 4 OFFCURVE",
"572 0 OFFCURVE",
"590 0 CURVE SMOOTH",
"677 0 LINE SMOOTH",
"693 0 OFFCURVE",
"698 12 OFFCURVE",
"691 28 CURVE SMOOTH",
"427 654 LINE SMOOTH",
"419 673 OFFCURVE",
"413 680 OFFCURVE",
"394 680 CURVE SMOOTH",
"339 680 LINE SMOOTH",
"321 680 OFFCURVE",
"314 673 OFFCURVE",
"306 654 CURVE SMOOTH",
"42 28 LINE SMOOTH",
"35 12 OFFCURVE",
"40 0 OFFCURVE",
"56 0 CURVE SMOOTH"
);
},
{
closed = 1;
nodes = (
"366 513 LINE",
"472 251 LINE",
"260 251 LINE"
);
},
{
closed = 1;
nodes = (
"469 735 OFFCURVE",
"531 794 OFFCURVE",
"531 878 CURVE SMOOTH",
"531 889 OFFCURVE",
"525 896 OFFCURVE",
"515 896 CURVE SMOOTH",
"450 896 LINE SMOOTH",
"436 896 OFFCURVE",
"433 889 OFFCURVE",
"433 877 CURVE SMOOTH",
"433 843 OFFCURVE",
"413 815 OFFCURVE",
"366 815 CURVE SMOOTH",
"320 815 OFFCURVE",
"299 843 OFFCURVE",
"299 877 CURVE SMOOTH",
"299 889 OFFCURVE",
"296 896 OFFCURVE",
"282 896 CURVE SMOOTH",
"217 896 LINE SMOOTH",
"207 896 OFFCURVE",
"201 889 OFFCURVE",
"201 878 CURVE SMOOTH",
"201 794 OFFCURVE",
"265 735 OFFCURVE",
"366 735 CURVE SMOOTH"
);
},
{
closed = 1;
nodes = (
"473 921 OFFCURVE",
"501 939 OFFCURVE",
"528 976 CURVE SMOOTH",
"542 995 OFFCURVE",
"541 1004 OFFCURVE",
"521 1020 CURVE",
"498 1037 OFFCURVE",
"487 1038 OFFCURVE",
"475 1022 CURVE SMOOTH",
"459 1001 OFFCURVE",
"448 994 OFFCURVE",
"425 994 CURVE SMOOTH",
"380 994 OFFCURVE",
"357 1037 OFFCURVE",
"291 1037 CURVE SMOOTH",
"249 1037 OFFCURVE",
"220 1015 OFFCURVE",
"196 981 CURVE SMOOTH",
"182 962 OFFCURVE",
"188 953 OFFCURVE",
"203 940 CURVE SMOOTH",
"224 923 OFFCURVE",
"237 920 OFFCURVE",
"249 935 CURVE SMOOTH",
"264 953 OFFCURVE",
"275 963 OFFCURVE",
"299 963 CURVE SMOOTH",
"343 963 OFFCURVE",
"373 921 OFFCURVE",
"429 921 CURVE SMOOTH"
);
}
);
width = 733;
}
);
note = Abrevetilde;
unicode = 1EB4;
},
{
glyphname = Acaron;
lastChange = "2015-07-18 10:50:33 +0000";
layers = (
{
layerId = "082782A7-7ED4-4E0F-8549-8BA7EDA0D1AE";
name = Regular;
paths = (
{
closed = 1;
nodes = (
"143 0 LINE SMOOTH",
"161 0 OFFCURVE",
"166 4 OFFCURVE",
"172 18 CURVE SMOOTH",
"228 158 LINE",
"504 158 LINE",
"561 18 LINE SMOOTH",
"567 4 OFFCURVE",
"572 0 OFFCURVE",
"590 0 CURVE SMOOTH",
"677 0 LINE SMOOTH",
"693 0 OFFCURVE",
"698 12 OFFCURVE",
"691 28 CURVE SMOOTH",
"427 654 LINE SMOOTH",
"419 673 OFFCURVE",
"413 680 OFFCURVE",
"394 680 CURVE SMOOTH",
"339 680 LINE SMOOTH",
"321 680 OFFCURVE",
"314 673 OFFCURVE",
"306 654 CURVE SMOOTH",
"42 28 LINE SMOOTH",
"35 12 OFFCURVE",
"40 0 OFFCURVE",
"56 0 CURVE SMOOTH"
);
},
{
closed = 1;
nodes = (
"366 513 LINE",
"472 251 LINE",
"260 251 LINE"
);
},
{
closed = 1;
nodes = (
"395 742 LINE SMOOTH",
"418 742 OFFCURVE",
"422 748 OFFCURVE",
"433 763 CURVE SMOOTH",
"537 904 LINE SMOOTH",
"551 922 OFFCURVE",
"547 936 OFFCURVE",
"526 936 CURVE SMOOTH",
"474 936 LINE SMOOTH",
"449 936 OFFCURVE",
"444 932 OFFCURVE",
"435 917 CURVE",
"367 816 LINE",
"298 917 LINE SMOOTH",
"288 932 OFFCURVE",
"283 936 OFFCURVE",
"259 936 CURVE SMOOTH",
"206 936 LINE SMOOTH",
"186 936 OFFCURVE",
"182 923 OFFCURVE",
"196 904 CURVE SMOOTH",
"300 763 LINE",
"312 748 OFFCURVE",
"315 742 OFFCURVE",
"338 742 CURVE SMOOTH"
);
}
);
width = 733;
}
);
note = Acaron;
unicode = 01CD;
},
{
glyphname = Acircumflex;
lastChange = "2015-07-18 10:50:32 +0000";
layers = (
{
layerId = "082782A7-7ED4-4E0F-8549-8BA7EDA0D1AE";
name = Regular;
paths = (
{
closed = 1;
nodes = (
"143 0 LINE SMOOTH",
"161 0 OFFCURVE",
"166 4 OFFCURVE",
"172 18 CURVE SMOOTH",
"228 158 LINE",
"504 158 LINE",
"561 18 LINE SMOOTH",
"567 4 OFFCURVE",
"572 0 OFFCURVE",
"590 0 CURVE SMOOTH",
"677 0 LINE SMOOTH",
"693 0 OFFCURVE",
"698 12 OFFCURVE",
"691 28 CURVE SMOOTH",
"427 654 LINE SMOOTH",
"419 673 OFFCURVE",
"413 680 OFFCURVE",
"394 680 CURVE SMOOTH",
"339 680 LINE SMOOTH",
"321 680 OFFCURVE",
"314 673 OFFCURVE",
"306 654 CURVE SMOOTH",
"42 28 LINE SMOOTH",
"35 12 OFFCURVE",
"40 0 OFFCURVE",
"56 0 CURVE SMOOTH"
);
},
{
closed = 1;
nodes = (
"366 513 LINE",
"472 251 LINE",
"260 251 LINE"
);
},
{
closed = 1;
nodes = (
"258 726 LINE SMOOTH",
"282 726 OFFCURVE",
"289 733 OFFCURVE",
"298 747 CURVE SMOOTH",
"366 847 LINE",
"433 747 LINE SMOOTH",
"443 733 OFFCURVE",
"449 726 OFFCURVE",
"474 726 CURVE SMOOTH",
"521 726 LINE SMOOTH",
"541 726 OFFCURVE",
"550 739 OFFCURVE",
"536 758 CURVE SMOOTH",
"432 899 LINE SMOOTH",
"421 914 OFFCURVE",
"417 921 OFFCURVE",
"394 921 CURVE SMOOTH",
"337 921 LINE SMOOTH",
"314 921 OFFCURVE",
"311 914 OFFCURVE",
"299 899 CURVE",
"195 758 LINE SMOOTH",
"181 739 OFFCURVE",
"190 726 OFFCURVE",
"211 726 CURVE SMOOTH"
);
}
);
width = 733;
}
);
note = Acircumflex;
unicode = 00C2;
},
{
glyphname = Acircumflexacute;
lastChange = "2015-07-18 10:50:32 +0000";
layers = (
{
layerId = "082782A7-7ED4-4E0F-8549-8BA7EDA0D1AE";
name = Regular;
paths = (
{
closed = 1;
nodes = (
"143 0 LINE SMOOTH",
"161 0 OFFCURVE",
"166 4 OFFCURVE",
"172 18 CURVE SMOOTH",
"228 158 LINE",
"504 158 LINE",
"561 18 LINE SMOOTH",
"567 4 OFFCURVE",
"572 0 OFFCURVE",
"590 0 CURVE SMOOTH",
"677 0 LINE SMOOTH",
"693 0 OFFCURVE",
"698 12 OFFCURVE",
"691 28 CURVE SMOOTH",
"427 654 LINE SMOOTH",
"419 673 OFFCURVE",
"413 680 OFFCURVE",
"394 680 CURVE SMOOTH",
"339 680 LINE SMOOTH",
"321 680 OFFCURVE",
"314 673 OFFCURVE",
"306 654 CURVE SMOOTH",
"42 28 LINE SMOOTH",
"35 12 OFFCURVE",
"40 0 OFFCURVE",
"56 0 CURVE SMOOTH"
);
},
{
closed = 1;
nodes = (
"366 513 LINE",
"472 251 LINE",
"260 251 LINE"
);
},
{
closed = 1;
nodes = (
"263 735 LINE SMOOTH",
"285 735 OFFCURVE",
"292 738 OFFCURVE",
"302 753 CURVE",
"368 836 LINE",
"433 753 LINE SMOOTH",
"444 739 OFFCURVE",
"450 735 OFFCURVE",
"472 735 CURVE SMOOTH",
"517 735 LINE SMOOTH",
"538 735 OFFCURVE",
"546 749 OFFCURVE",
"531 767 CURVE SMOOTH",
"430 890 LINE",
"419 905 OFFCURVE",
"413 912 OFFCURVE",
"390 912 CURVE SMOOTH",
"345 912 LINE SMOOTH",
"322 912 OFFCURVE",
"317 905 OFFCURVE",
"305 890 CURVE SMOOTH",
"204 767 LINE SMOOTH",
"189 749 OFFCURVE",
"197 735 OFFCURVE",
"218 735 CURVE SMOOTH"
);
},
{
closed = 1;
nodes = (
"520 865 LINE SMOOTH",
"543 865 OFFCURVE",
"549 869 OFFCURVE",
"559 887 CURVE SMOOTH",
"608 980 LINE",
"619 999 OFFCURVE",
"613 1011 OFFCURVE",
"592 1011 CURVE SMOOTH",
"542 1011 LINE SMOOTH",
"519 1011 OFFCURVE",
"514 1005 OFFCURVE",
"508 987 CURVE SMOOTH",
"473 890 LINE SMOOTH",
"468 876 OFFCURVE",
"473 865 OFFCURVE",
"490 865 CURVE SMOOTH"
);
}
);
width = 733;
}
);
note = Acircumflexacute;
unicode = 1EA4;
},
{
glyphname = Acircumflexdotbelow;
lastChange = "2015-07-18 10:50:33 +0000";
layers = (
{
layerId = "082782A7-7ED4-4E0F-8549-8BA7EDA0D1AE";
name = Regular;
paths = (
{
closed = 1;
nodes = (
"143 0 LINE SMOOTH",
"161 0 OFFCURVE",
"166 4 OFFCURVE",
"172 18 CURVE SMOOTH",
"228 158 LINE",
"504 158 LINE",
"561 18 LINE SMOOTH",
"567 4 OFFCURVE",
"572 0 OFFCURVE",
"590 0 CURVE SMOOTH",
"677 0 LINE SMOOTH",
"693 0 OFFCURVE",
"698 12 OFFCURVE",
"691 28 CURVE SMOOTH",
"427 654 LINE SMOOTH",
"419 673 OFFCURVE",
"413 680 OFFCURVE",
"394 680 CURVE SMOOTH",
"339 680 LINE SMOOTH",
"321 680 OFFCURVE",
"314 673 OFFCURVE",
"306 654 CURVE SMOOTH",
"42 28 LINE SMOOTH",
"35 12 OFFCURVE",
"40 0 OFFCURVE",
"56 0 CURVE SMOOTH"
);
},
{
closed = 1;
nodes = (
"376 -184 LINE SMOOTH",
"405 -184 OFFCURVE",
"423 -161 OFFCURVE",
"423 -134 CURVE SMOOTH",
"423 -115 LINE SMOOTH",
"423 -88 OFFCURVE",
"404 -66 OFFCURVE",
"376 -66 CURVE SMOOTH",
"356 -66 LINE SMOOTH",
"329 -66 OFFCURVE",
"309 -88 OFFCURVE",
"309 -115 CURVE SMOOTH",
"309 -134 LINE SMOOTH",
"309 -161 OFFCURVE",
"329 -184 OFFCURVE",
"356 -184 CURVE SMOOTH"
);
},
{
closed = 1;
nodes = (
"366 513 LINE",
"472 251 LINE",
"260 251 LINE"
);
},
{
closed = 1;
nodes = (
"258 738 LINE SMOOTH",
"282 738 OFFCURVE",
"289 745 OFFCURVE",
"298 759 CURVE SMOOTH",
"366 859 LINE",
"433 759 LINE SMOOTH",
"443 745 OFFCURVE",
"449 738 OFFCURVE",
"474 738 CURVE SMOOTH",
"521 738 LINE SMOOTH",
"541 738 OFFCURVE",
"550 751 OFFCURVE",
"536 770 CURVE SMOOTH",
"432 911 LINE SMOOTH",
"421 926 OFFCURVE",
"417 933 OFFCURVE",
"394 933 CURVE SMOOTH",
"337 933 LINE SMOOTH",
"314 933 OFFCURVE",
"311 926 OFFCURVE",
"299 911 CURVE",
"195 770 LINE SMOOTH",
"181 751 OFFCURVE",
"190 738 OFFCURVE",
"211 738 CURVE SMOOTH"
);
}
);
width = 733;
}
);
note = Acircumflexdotbelow;
unicode = 1EAC;
},
{
glyphname = Acircumflexgrave;
lastChange = "2015-07-18 10:50:33 +0000";
layers = (
{
layerId = "082782A7-7ED4-4E0F-8549-8BA7EDA0D1AE";
name = Regular;
paths = (
{
closed = 1;
nodes = (
"143 0 LINE SMOOTH",
"161 0 OFFCURVE",
"166 4 OFFCURVE",
"172 18 CURVE SMOOTH",
"228 158 LINE",
"504 158 LINE",
"561 18 LINE SMOOTH",
"567 4 OFFCURVE",
"572 0 OFFCURVE",
"590 0 CURVE SMOOTH",
"677 0 LINE SMOOTH",
"693 0 OFFCURVE",
"698 12 OFFCURVE",
"691 28 CURVE SMOOTH",
"427 654 LINE SMOOTH",
"419 673 OFFCURVE",
"413 680 OFFCURVE",
"394 680 CURVE SMOOTH",
"339 680 LINE SMOOTH",
"321 680 OFFCURVE",
"314 673 OFFCURVE",
"306 654 CURVE SMOOTH",
"42 28 LINE SMOOTH",
"35 12 OFFCURVE",
"40 0 OFFCURVE",
"56 0 CURVE SMOOTH"
);
},
{
closed = 1;
nodes = (
"366 513 LINE",
"472 251 LINE",
"260 251 LINE"
);
},
{
closed = 1;
nodes = (
"243 865 LINE SMOOTH",
"260 865 OFFCURVE",
"265 876 OFFCURVE",
"260 890 CURVE SMOOTH",
"225 987 LINE SMOOTH",
"219 1005 OFFCURVE",
"214 1011 OFFCURVE",
"191 1011 CURVE SMOOTH",
"141 1011 LINE SMOOTH",
"120 1011 OFFCURVE",
"115 999 OFFCURVE",
"125 980 CURVE SMOOTH",
"174 887 LINE SMOOTH",
"184 869 OFFCURVE",
"190 865 OFFCURVE",
"213 865 CURVE SMOOTH"
);
},
{
closed = 1;
nodes = (
"261 735 LINE SMOOTH",
"283 735 OFFCURVE",
"289 739 OFFCURVE",
"300 753 CURVE SMOOTH",
"365 836 LINE",
"431 753 LINE SMOOTH",
"442 739 OFFCURVE",
"448 735 OFFCURVE",
"470 735 CURVE SMOOTH",
"515 735 LINE SMOOTH",
"536 735 OFFCURVE",
"544 749 OFFCURVE",
"529 767 CURVE SMOOTH",
"428 890 LINE SMOOTH",
"416 905 OFFCURVE",
"411 912 OFFCURVE",
"388 912 CURVE SMOOTH",
"343 912 LINE SMOOTH",
"320 912 OFFCURVE",
"315 904 OFFCURVE",
"303 890 CURVE SMOOTH",
"202 767 LINE SMOOTH",
"187 749 OFFCURVE",
"195 735 OFFCURVE",
"216 735 CURVE SMOOTH"
);
}
);
width = 733;
}
);
note = Acircumflexgrave;
unicode = 1EA6;
},
{
glyphname = Acircumflexhookabove;
lastChange = "2015-07-18 10:50:33 +0000";
layers = (
{
layerId = "082782A7-7ED4-4E0F-8549-8BA7EDA0D1AE";
name = Regular;
paths = (
{
closed = 1;
nodes = (
"143 0 LINE SMOOTH",
"161 0 OFFCURVE",
"166 4 OFFCURVE",
"172 18 CURVE SMOOTH",
"228 158 LINE",
"504 158 LINE",
"561 18 LINE SMOOTH",
"567 4 OFFCURVE",
"572 0 OFFCURVE",
"590 0 CURVE SMOOTH",
"677 0 LINE SMOOTH",
"693 0 OFFCURVE",
"698 12 OFFCURVE",
"691 28 CURVE SMOOTH",
"427 654 LINE SMOOTH",
"419 673 OFFCURVE",
"413 680 OFFCURVE",
"394 680 CURVE SMOOTH",
"339 680 LINE SMOOTH",
"321 680 OFFCURVE",
"314 673 OFFCURVE",
"306 654 CURVE SMOOTH",
"42 28 LINE SMOOTH",
"35 12 OFFCURVE",
"40 0 OFFCURVE",
"56 0 CURVE SMOOTH"
);
},
{
closed = 1;
nodes = (
"366 513 LINE",
"472 251 LINE",
"260 251 LINE"
);
},
{
closed = 1;
nodes = (
"271 740 LINE SMOOTH",
"284 740 OFFCURVE",
"287 742 OFFCURVE",
"292 748 CURVE SMOOTH",
"366 840 LINE",
"441 748 LINE SMOOTH",
"446 742 OFFCURVE",
"449 740 OFFCURVE",
"462 740 CURVE SMOOTH",
"533 740 LINE SMOOTH",
"545 740 OFFCURVE",
"549 750 OFFCURVE",
"541 759 CURVE SMOOTH",
"429 891 LINE SMOOTH",
"417 906 OFFCURVE",
"412 912 OFFCURVE",
"389 912 CURVE SMOOTH",
"344 912 LINE SMOOTH",
"321 912 OFFCURVE",
"316 905 OFFCURVE",
"304 891 CURVE SMOOTH",
"192 759 LINE SMOOTH",
"184 750 OFFCURVE",
"188 740 OFFCURVE",
"200 740 CURVE SMOOTH"
);
},
{
closed = 1;
nodes = (
"529 855 LINE SMOOTH",
"542 855 OFFCURVE",
"549 862 OFFCURVE",
"549 875 CURVE SMOOTH",
"549 889 LINE",
"587 889 OFFCURVE",
"621 912 OFFCURVE",
"621 960 CURVE SMOOTH",
"621 1008 OFFCURVE",
"589 1035 OFFCURVE",
"524 1035 CURVE SMOOTH",
"492 1035 OFFCURVE",
"456 1028 OFFCURVE",
"435 1014 CURVE",
"431 1011 OFFCURVE",
"430 1009 OFFCURVE",
"432 1004 CURVE",
"450 968 LINE SMOOTH",
"452 964 OFFCURVE",
"454 964 OFFCURVE",
"458 966 CURVE",
"472 974 OFFCURVE",
"492 980 OFFCURVE",
"511 980 CURVE SMOOTH",
"534 980 OFFCURVE",
"545 973 OFFCURVE",
"545 957 CURVE SMOOTH",
"545 938 OFFCURVE",
"535 931 OFFCURVE",
"505 931 CURVE SMOOTH",
"484 931 OFFCURVE",
"474 922 OFFCURVE",
"474 903 CURVE SMOOTH",
"474 875 LINE SMOOTH",
"474 862 OFFCURVE",
"481 855 OFFCURVE",
"495 855 CURVE SMOOTH"
);
}
);
width = 733;
}
);
note = Acircumflexhookabove;
unicode = 1EA8;
},
{
glyphname = Acircumflextilde;
lastChange = "2015-07-18 10:50:32 +0000";
layers = (
{
layerId = "082782A7-7ED4-4E0F-8549-8BA7EDA0D1AE";
name = Regular;
paths = (
{
closed = 1;
nodes = (
"143 0 LINE SMOOTH",
"161 0 OFFCURVE",
"166 4 OFFCURVE",
"172 18 CURVE SMOOTH",
"228 158 LINE",
"504 158 LINE",
"561 18 LINE SMOOTH",
"567 4 OFFCURVE",
"572 0 OFFCURVE",
"590 0 CURVE SMOOTH",
"677 0 LINE SMOOTH",
"693 0 OFFCURVE",
"698 12 OFFCURVE",
"691 28 CURVE SMOOTH",
"427 654 LINE SMOOTH",
"419 673 OFFCURVE",
"413 680 OFFCURVE",
"394 680 CURVE SMOOTH",
"339 680 LINE SMOOTH",
"321 680 OFFCURVE",
"314 673 OFFCURVE",
"306 654 CURVE SMOOTH",
"42 28 LINE SMOOTH",
"35 12 OFFCURVE",
"40 0 OFFCURVE",
"56 0 CURVE SMOOTH"
);
},
{
closed = 1;
nodes = (
"366 513 LINE",
"472 251 LINE",
"260 251 LINE"
);
},
{
closed = 1;
nodes = (
"271 740 LINE SMOOTH",
"284 740 OFFCURVE",
"287 742 OFFCURVE",
"292 748 CURVE SMOOTH",
"366 840 LINE",
"441 748 LINE SMOOTH",
"446 742 OFFCURVE",
"449 740 OFFCURVE",
"462 740 CURVE SMOOTH",
"533 740 LINE SMOOTH",
"545 740 OFFCURVE",
"549 750 OFFCURVE",
"541 759 CURVE SMOOTH",
"429 891 LINE SMOOTH",
"417 906 OFFCURVE",
"412 912 OFFCURVE",
"389 912 CURVE SMOOTH",
"344 912 LINE SMOOTH",
"321 912 OFFCURVE",
"316 905 OFFCURVE",
"304 891 CURVE SMOOTH",
"192 759 LINE SMOOTH",
"184 750 OFFCURVE",
"188 740 OFFCURVE",
"200 740 CURVE SMOOTH"
);
},
{
closed = 1;
nodes = (
"483 925 OFFCURVE",
"511 943 OFFCURVE",
"538 980 CURVE SMOOTH",
"552 999 OFFCURVE",
"551 1008 OFFCURVE",
"531 1024 CURVE",
"508 1041 OFFCURVE",
"497 1042 OFFCURVE",
"485 1026 CURVE SMOOTH",
"469 1005 OFFCURVE",
"458 998 OFFCURVE",
"435 998 CURVE SMOOTH",
"390 998 OFFCURVE",
"367 1041 OFFCURVE",
"301 1041 CURVE SMOOTH",
"259 1041 OFFCURVE",
"230 1019 OFFCURVE",
"206 985 CURVE SMOOTH",
"192 966 OFFCURVE",
"198 957 OFFCURVE",
"213 944 CURVE SMOOTH",
"234 927 OFFCURVE",
"247 924 OFFCURVE",
"259 939 CURVE SMOOTH",
"274 957 OFFCURVE",
"285 967 OFFCURVE",
"309 967 CURVE SMOOTH",
"353 967 OFFCURVE",
"383 925 OFFCURVE",
"439 925 CURVE SMOOTH"
);
}
);
width = 733;
}
);
note = Acircumflextilde;
unicode = 1EAA;
},
{
glyphname = Adieresis;
lastChange = "2015-07-18 10:50:34 +0000";
layers = (
{
layerId = "082782A7-7ED4-4E0F-8549-8BA7EDA0D1AE";
name = Regular;
paths = (
{
closed = 1;
nodes = (
"143 0 LINE SMOOTH",
"161 0 OFFCURVE",
"166 4 OFFCURVE",
"172 18 CURVE SMOOTH",
"228 158 LINE",
"504 158 LINE",
"561 18 LINE SMOOTH",
"567 4 OFFCURVE",
"572 0 OFFCURVE",
"590 0 CURVE SMOOTH",
"677 0 LINE SMOOTH",
"693 0 OFFCURVE",
"698 12 OFFCURVE",
"691 28 CURVE SMOOTH",
"427 654 LINE SMOOTH",
"419 673 OFFCURVE",
"413 680 OFFCURVE",
"394 680 CURVE SMOOTH",
"339 680 LINE SMOOTH",
"321 680 OFFCURVE",
"314 673 OFFCURVE",
"306 654 CURVE SMOOTH",
"42 28 LINE SMOOTH",
"35 12 OFFCURVE",
"40 0 OFFCURVE",
"56 0 CURVE SMOOTH"
);
},
{
closed = 1;
nodes = (
"366 513 LINE",
"472 251 LINE",
"260 251 LINE"
);
},
{
closed = 1;
nodes = (
"278 736 LINE SMOOTH",
"307 736 OFFCURVE",
"325 759 OFFCURVE",
"325 786 CURVE SMOOTH",
"325 805 LINE SMOOTH",
"325 832 OFFCURVE",
"306 854 OFFCURVE",
"278 854 CURVE SMOOTH",
"258 854 LINE SMOOTH",
"230 854 OFFCURVE",
"211 832 OFFCURVE",
"211 805 CURVE SMOOTH",
"211 786 LINE SMOOTH",
"211 759 OFFCURVE",
"230 736 OFFCURVE",
"258 736 CURVE SMOOTH"
);
},
{
closed = 1;
nodes = (
"475 736 LINE SMOOTH",
"504 736 OFFCURVE",
"522 759 OFFCURVE",
"522 786 CURVE SMOOTH",
"522 805 LINE SMOOTH",
"522 832 OFFCURVE",
"503 854 OFFCURVE",
"475 854 CURVE SMOOTH",
"455 854 LINE SMOOTH",
"428 854 OFFCURVE",
"408 832 OFFCURVE",
"408 805 CURVE SMOOTH",
"408 786 LINE SMOOTH",
"408 759 OFFCURVE",
"428 736 OFFCURVE",
"455 736 CURVE SMOOTH"
);
}
);
width = 733;
}
);
note = Adieresis;
unicode = 00C4;
},
{
glyphname = Adotbelow;
lastChange = "2015-07-18 10:50:34 +0000";
layers = (
{
layerId = "082782A7-7ED4-4E0F-8549-8BA7EDA0D1AE";
name = Regular;
paths = (
{
closed = 1;
nodes = (
"143 0 LINE SMOOTH",
"161 0 OFFCURVE",
"166 4 OFFCURVE",
"172 18 CURVE SMOOTH",
"228 158 LINE",
"504 158 LINE",
"561 18 LINE SMOOTH",
"567 4 OFFCURVE",
"572 0 OFFCURVE",
"590 0 CURVE SMOOTH",
"677 0 LINE SMOOTH",
"693 0 OFFCURVE",
"698 12 OFFCURVE",
"691 28 CURVE SMOOTH",
"427 654 LINE SMOOTH",
"419 673 OFFCURVE",
"413 680 OFFCURVE",
"394 680 CURVE SMOOTH",
"339 680 LINE SMOOTH",
"321 680 OFFCURVE",
"314 673 OFFCURVE",
"306 654 CURVE SMOOTH",
"42 28 LINE SMOOTH",
"35 12 OFFCURVE",
"40 0 OFFCURVE",
"56 0 CURVE SMOOTH"
);
},
{
closed = 1;
nodes = (
"377 -184 LINE SMOOTH",
"406 -184 OFFCURVE",
"424 -161 OFFCURVE",
"424 -134 CURVE SMOOTH",
"424 -115 LINE SMOOTH",
"424 -88 OFFCURVE",
"405 -66 OFFCURVE",
"377 -66 CURVE SMOOTH",
"357 -66 LINE SMOOTH",
"330 -66 OFFCURVE",
"310 -88 OFFCURVE",
"310 -115 CURVE SMOOTH",
"310 -134 LINE SMOOTH",
"310 -161 OFFCURVE",
"330 -184 OFFCURVE",
"357 -184 CURVE SMOOTH"
);
},
{
closed = 1;
nodes = (
"366 513 LINE",
"472 251 LINE",
"260 251 LINE"
);
}
);
width = 733;
}
);
note = Adotbelow;
unicode = 1EA0;
},
{
glyphname = Agrave;
lastChange = "2015-07-18 10:50:34 +0000";
layers = (
{
layerId = "082782A7-7ED4-4E0F-8549-8BA7EDA0D1AE";
name = Regular;
paths = (
{
closed = 1;
nodes = (
"143 0 LINE SMOOTH",
"161 0 OFFCURVE",
"166 4 OFFCURVE",
"172 18 CURVE SMOOTH",
"228 158 LINE",
"504 158 LINE",
"561 18 LINE SMOOTH",
"567 4 OFFCURVE",
"572 0 OFFCURVE",
"590 0 CURVE SMOOTH",
"677 0 LINE SMOOTH",
"693 0 OFFCURVE",
"698 12 OFFCURVE",
"691 28 CURVE SMOOTH",
"427 654 LINE SMOOTH",
"419 673 OFFCURVE",
"413 680 OFFCURVE",
"394 680 CURVE SMOOTH",
"339 680 LINE SMOOTH",
"321 680 OFFCURVE",
"314 673 OFFCURVE",
"306 654 CURVE SMOOTH",
"42 28 LINE SMOOTH",
"35 12 OFFCURVE",
"40 0 OFFCURVE",
"56 0 CURVE SMOOTH"
);
},
{
closed = 1;
nodes = (
"366 513 LINE",
"472 251 LINE",
"260 251 LINE"
);
},
{
closed = 1;
nodes = (
"400 729 LINE SMOOTH",
"421 729 OFFCURVE",
"426 740 OFFCURVE",
"420 757 CURVE SMOOTH",
"372 888 LINE SMOOTH",
"366 906 OFFCURVE",
"361 912 OFFCURVE",
"335 912 CURVE SMOOTH",
"262 912 LINE SMOOTH",
"240 912 OFFCURVE",
"230 901 OFFCURVE",
"241 880 CURVE SMOOTH",
"307 751 LINE SMOOTH",
"316 734 OFFCURVE",
"323 729 OFFCURVE",
"348 729 CURVE SMOOTH"
);
}
);
width = 733;
}
);
note = Agrave;
unicode = 00C0;
},
{
glyphname = Ahookabove;
lastChange = "2015-07-18 10:50:32 +0000";
layers = (
{
layerId = "082782A7-7ED4-4E0F-8549-8BA7EDA0D1AE";
name = Regular;
paths = (
{
closed = 1;
nodes = (
"143 0 LINE SMOOTH",
"161 0 OFFCURVE",
"166 4 OFFCURVE",
"172 18 CURVE SMOOTH",
"228 158 LINE",
"504 158 LINE",
"561 18 LINE SMOOTH",
"567 4 OFFCURVE",
"572 0 OFFCURVE",
"590 0 CURVE SMOOTH",
"677 0 LINE SMOOTH",
"693 0 OFFCURVE",
"698 12 OFFCURVE",
"691 28 CURVE SMOOTH",
"427 654 LINE SMOOTH",
"419 673 OFFCURVE",
"413 680 OFFCURVE",
"394 680 CURVE SMOOTH",
"339 680 LINE SMOOTH",
"321 680 OFFCURVE",
"314 673 OFFCURVE",
"306 654 CURVE SMOOTH",
"42 28 LINE SMOOTH",
"35 12 OFFCURVE",
"40 0 OFFCURVE",
"56 0 CURVE SMOOTH"
);
},
{
closed = 1;
nodes = (
"366 513 LINE",
"472 251 LINE",
"260 251 LINE"
);
},
{
closed = 1;
nodes = (
"384 731 LINE SMOOTH",
"400 731 OFFCURVE",
"407 739 OFFCURVE",
"407 754 CURVE SMOOTH",
"407 776 LINE",
"458 776 OFFCURVE",
"505 811 OFFCURVE",
"505 872 CURVE SMOOTH",
"505 933 OFFCURVE",
"462 970 OFFCURVE",
"373 970 CURVE SMOOTH",
"333 970 OFFCURVE",
"287 960 OFFCURVE",
"260 942 CURVE SMOOTH",
"254 938 OFFCURVE",
"254 936 OFFCURVE",
"256 930 CURVE",
"277 884 LINE",
"279 880 OFFCURVE",
"282 880 OFFCURVE",
"287 882 CURVE",
"311 894 OFFCURVE",
"333 901 OFFCURVE",
"362 901 CURVE SMOOTH",
"400 901 OFFCURVE",
"414 891 OFFCURVE",
"414 868 CURVE SMOOTH",
"414 841 OFFCURVE",
"402 830 OFFCURVE",
"354 830 CURVE SMOOTH",
"328 830 OFFCURVE",
"319 820 OFFCURVE",
"319 799 CURVE SMOOTH",
"319 754 LINE SMOOTH",
"319 739 OFFCURVE",
"326 731 OFFCURVE",
"342 731 CURVE SMOOTH"
);
}
);
width = 733;
}
);
note = Ahookabove;
unicode = 1EA2;
},
{
glyphname = Amacron;
lastChange = "2015-07-18 10:50:32 +0000";
layers = (
{
layerId = "082782A7-7ED4-4E0F-8549-8BA7EDA0D1AE";
name = Regular;
paths = (
{
closed = 1;
nodes = (
"143 0 LINE SMOOTH",
"161 0 OFFCURVE",
"166 4 OFFCURVE",
"172 18 CURVE SMOOTH",
"228 158 LINE",
"504 158 LINE",
"561 18 LINE SMOOTH",
"567 4 OFFCURVE",
"572 0 OFFCURVE",
"590 0 CURVE SMOOTH",
"677 0 LINE SMOOTH",
"693 0 OFFCURVE",
"698 12 OFFCURVE",
"691 28 CURVE SMOOTH",
"427 654 LINE SMOOTH",
"419 673 OFFCURVE",
"413 680 OFFCURVE",
"394 680 CURVE SMOOTH",
"339 680 LINE SMOOTH",
"321 680 OFFCURVE",
"314 673 OFFCURVE",
"306 654 CURVE SMOOTH",
"42 28 LINE SMOOTH",
"35 12 OFFCURVE",
"40 0 OFFCURVE",
"56 0 CURVE SMOOTH"
);
},
{
closed = 1;
nodes = (
"366 513 LINE",
"472 251 LINE",
"260 251 LINE"
);
},
{
closed = 1;
nodes = (
"503 777 LINE SMOOTH",
"530 777 OFFCURVE",
"539 787 OFFCURVE",
"539 812 CURVE SMOOTH",
"539 838 LINE SMOOTH",
"539 863 OFFCURVE",
"530 874 OFFCURVE",
"503 874 CURVE SMOOTH",
"230 874 LINE SMOOTH",
"203 874 OFFCURVE",
"194 863 OFFCURVE",
"194 838 CURVE SMOOTH",
"194 812 LINE SMOOTH",
"194 787 OFFCURVE",
"203 777 OFFCURVE",
"230 777 CURVE SMOOTH"
);
}
);
width = 733;
}
);
note = Amacron;
unicode = 0100;
},
{
glyphname = Aogonek;
lastChange = "2015-07-18 10:50:34 +0000";
layers = (
{
layerId = "082782A7-7ED4-4E0F-8549-8BA7EDA0D1AE";
name = Regular;
paths = (
{
closed = 1;
nodes = (
"143 0 LINE SMOOTH",
"161 0 OFFCURVE",
"166 4 OFFCURVE",
"172 18 CURVE SMOOTH",
"228 158 LINE",
"504 158 LINE",
"561 18 LINE SMOOTH",
"567 4 OFFCURVE",
"572 0 OFFCURVE",
"590 0 CURVE SMOOTH",
"677 0 LINE SMOOTH",
"693 0 OFFCURVE",
"698 12 OFFCURVE",
"691 28 CURVE SMOOTH",
"427 654 LINE SMOOTH",
"419 673 OFFCURVE",
"413 680 OFFCURVE",
"394 680 CURVE SMOOTH",
"339 680 LINE SMOOTH",
"321 680 OFFCURVE",
"314 673 OFFCURVE",
"306 654 CURVE SMOOTH",
"42 28 LINE SMOOTH",
"35 12 OFFCURVE",
"40 0 OFFCURVE",
"56 0 CURVE SMOOTH"
);
},
{
closed = 1;
nodes = (
"616 -209 OFFCURVE",
"641 -206 OFFCURVE",
"659 -197 CURVE SMOOTH",
"672 -191 OFFCURVE",
"672 -187 OFFCURVE",
"669 -180 CURVE SMOOTH",
"654 -147 LINE",
"650 -139 OFFCURVE",
"647 -139 OFFCURVE",
"640 -142 CURVE",
"634 -145 OFFCURVE",
"627 -146 OFFCURVE",
"618 -146 CURVE SMOOTH",
"602 -146 OFFCURVE",
"594 -137 OFFCURVE",
"594 -119 CURVE SMOOTH",
"594 -90 OFFCURVE",
"606 -67 OFFCURVE",
"653 -11 CURVE SMOOTH",
"660 -3 OFFCURVE",
"655 5 OFFCURVE",
"643 5 CURVE SMOOTH",
"584 5 LINE SMOOTH",
"571 5 OFFCURVE",
"567 1 OFFCURVE",
"559 -8 CURVE SMOOTH",
"515 -58 OFFCURVE",
"498 -95 OFFCURVE",
"498 -131 CURVE SMOOTH",
"498 -173 OFFCURVE",
"525 -209 OFFCURVE",
"585 -209 CURVE SMOOTH"
);
},
{
closed = 1;
nodes = (
"366 513 LINE",
"472 251 LINE",
"260 251 LINE"
);
}
);
width = 733;
}
);
note = Aogonek;
unicode = 0104;
},
{
glyphname = Aring;
lastChange = "2015-07-18 10:50:33 +0000";
layers = (
{
layerId = "082782A7-7ED4-4E0F-8549-8BA7EDA0D1AE";
name = Regular;
paths = (
{
closed = 1;
nodes = (
"143 0 LINE SMOOTH",
"161 0 OFFCURVE",
"166 4 OFFCURVE",
"172 18 CURVE SMOOTH",
"228 158 LINE",
"504 158 LINE",
"561 18 LINE SMOOTH",
"567 4 OFFCURVE",
"572 0 OFFCURVE",
"590 0 CURVE SMOOTH",
"677 0 LINE SMOOTH",
"693 0 OFFCURVE",
"698 12 OFFCURVE",
"691 28 CURVE SMOOTH",
"427 654 LINE SMOOTH",
"419 673 OFFCURVE",
"413 680 OFFCURVE",
"394 680 CURVE SMOOTH",
"339 680 LINE SMOOTH",
"321 680 OFFCURVE",
"314 673 OFFCURVE",
"306 654 CURVE SMOOTH",
"42 28 LINE SMOOTH",
"35 12 OFFCURVE",
"40 0 OFFCURVE",
"56 0 CURVE SMOOTH"
);
},
{
closed = 1;
nodes = (
"366 513 LINE",
"472 251 LINE",
"260 251 LINE"
);
},
{
closed = 1;
nodes = (
"431 636 OFFCURVE",
"483 688 OFFCURVE",
"483 753 CURVE SMOOTH",
"483 818 OFFCURVE",
"431 870 OFFCURVE",
"366 870 CURVE SMOOTH",
"301 870 OFFCURVE",
"249 818 OFFCURVE",
"249 753 CURVE SMOOTH",
"249 688 OFFCURVE",
"301 636 OFFCURVE",
"366 636 CURVE SMOOTH"
);
},
{
closed = 1;
nodes = (
"336 699 OFFCURVE",
"312 723 OFFCURVE",
"312 753 CURVE SMOOTH",
"312 782 OFFCURVE",
"336 806 OFFCURVE",
"366 806 CURVE SMOOTH",
"395 806 OFFCURVE",
"419 782 OFFCURVE",
"419 753 CURVE SMOOTH",
"419 723 OFFCURVE",
"395 699 OFFCURVE",
"366 699 CURVE SMOOTH"
);
}
);
width = 733;
}
);
note = Aring;
unicode = 00C5;
},
{
glyphname = Aringacute;
lastChange = "2015-07-18 10:50:32 +0000";
layers = (
{
layerId = "082782A7-7ED4-4E0F-8549-8BA7EDA0D1AE";
name = Regular;
paths = (
{
closed = 1;
nodes = (
"143 0 LINE SMOOTH",
"161 0 OFFCURVE",
"166 4 OFFCURVE",
"172 18 CURVE SMOOTH",
"228 158 LINE",
"504 158 LINE",
"561 18 LINE SMOOTH",
"567 4 OFFCURVE",
"572 0 OFFCURVE",
"590 0 CURVE SMOOTH",
"677 0 LINE SMOOTH",
"693 0 OFFCURVE",
"698 12 OFFCURVE",
"691 28 CURVE SMOOTH",
"427 654 LINE SMOOTH",
"419 673 OFFCURVE",
"413 680 OFFCURVE",
"394 680 CURVE SMOOTH",
"339 680 LINE SMOOTH",
"321 680 OFFCURVE",
"314 673 OFFCURVE",
"306 654 CURVE SMOOTH",
"42 28 LINE SMOOTH",
"35 12 OFFCURVE",
"40 0 OFFCURVE",
"56 0 CURVE SMOOTH"
);
},
{
closed = 1;
nodes = (
"366 513 LINE",
"472 251 LINE",
"260 251 LINE"
);
},
{
closed = 1;
nodes = (
"431 636 OFFCURVE",
"483 688 OFFCURVE",
"483 753 CURVE SMOOTH",
"483 818 OFFCURVE",
"431 870 OFFCURVE",
"366 870 CURVE SMOOTH",
"301 870 OFFCURVE",
"249 818 OFFCURVE",
"249 753 CURVE SMOOTH",
"249 688 OFFCURVE",
"301 636 OFFCURVE",
"366 636 CURVE SMOOTH"
);
},
{
closed = 1;
nodes = (
"336 699 OFFCURVE",
"312 723 OFFCURVE",
"312 753 CURVE SMOOTH",
"312 782 OFFCURVE",
"336 806 OFFCURVE",
"366 806 CURVE SMOOTH",
"395 806 OFFCURVE",
"419 782 OFFCURVE",
"419 753 CURVE SMOOTH",
"419 723 OFFCURVE",
"395 699 OFFCURVE",
"366 699 CURVE SMOOTH"
);
},
{
closed = 1;
nodes = (
"381 896 LINE SMOOTH",
"407 896 OFFCURVE",
"414 901 OFFCURVE",
"423 918 CURVE SMOOTH",
"489 1047 LINE SMOOTH",
"500 1068 OFFCURVE",
"490 1079 OFFCURVE",
"468 1079 CURVE SMOOTH",
"394 1079 LINE SMOOTH",
"369 1079 OFFCURVE",
"364 1072 OFFCURVE",
"357 1055 CURVE",
"310 924 LINE SMOOTH",
"304 907 OFFCURVE",
"309 896 OFFCURVE",
"329 896 CURVE SMOOTH"
);
}
);
width = 733;
}
);
note = Aringacute;
unicode = 01FA;
},
{
glyphname = Atilde;
lastChange = "2015-07-18 10:50:32 +0000";
layers = (
{
layerId = "082782A7-7ED4-4E0F-8549-8BA7EDA0D1AE";
name = Regular;
paths = (
{
closed = 1;
nodes = (
"143 0 LINE SMOOTH",
"161 0 OFFCURVE",
"166 4 OFFCURVE",
"172 18 CURVE SMOOTH",
"228 158 LINE",
"504 158 LINE",
"561 18 LINE SMOOTH",
"567 4 OFFCURVE",
"572 0 OFFCURVE",
"590 0 CURVE SMOOTH",
"677 0 LINE SMOOTH",
"693 0 OFFCURVE",
"698 12 OFFCURVE",
"691 28 CURVE SMOOTH",
"427 654 LINE SMOOTH",
"419 673 OFFCURVE",
"413 680 OFFCURVE",
"394 680 CURVE SMOOTH",
"339 680 LINE SMOOTH",
"321 680 OFFCURVE",
"314 673 OFFCURVE",
"306 654 CURVE SMOOTH",
"42 28 LINE SMOOTH",
"35 12 OFFCURVE",
"40 0 OFFCURVE",
"56 0 CURVE SMOOTH"
);
},
{
closed = 1;
nodes = (
"366 513 LINE",
"472 251 LINE",
"260 251 LINE"
);
},
{
closed = 1;
nodes = (
"524 742 OFFCURVE",
"555 765 OFFCURVE",
"587 813 CURVE",
"603 835 OFFCURVE",
"601 848 OFFCURVE",
"575 868 CURVE SMOOTH",
"550 888 OFFCURVE",
"534 890 OFFCURVE",
"521 873 CURVE SMOOTH",
"500 845 OFFCURVE",
"486 836 OFFCURVE",
"459 836 CURVE SMOOTH",
"402 836 OFFCURVE",
"361 888 OFFCURVE",
"280 888 CURVE SMOOTH",
"230 888 OFFCURVE",
"200 860 OFFCURVE",
"172 825 CURVE SMOOTH",
"156 804 OFFCURVE",
"157 791 OFFCURVE",
"179 772 CURVE SMOOTH",
"203 751 OFFCURVE",
"219 747 OFFCURVE",
"232 763 CURVE",
"252 785 OFFCURVE",
"263 795 OFFCURVE",
"291 795 CURVE SMOOTH",
"344 795 OFFCURVE",
"399 742 OFFCURVE",
"466 742 CURVE SMOOTH"
);
}
);
width = 733;
}
);
note = Atilde;
unicode = 00C3;
},
{
glyphname = AE;
lastChange = "2015-07-18 10:50:32 +0000";
layers = (
{
layerId = "082782A7-7ED4-4E0F-8549-8BA7EDA0D1AE";
name = Regular;
paths = (
{
closed = 1;
nodes = (
"140 0 LINE SMOOTH",
"160 0 OFFCURVE",
"167 4 OFFCURVE",
"172 18 CURVE",
"228 159 LINE",
"411 159 LINE",
"411 37 LINE SMOOTH",
"411 13 OFFCURVE",
"422 0 OFFCURVE",
"449 0 CURVE SMOOTH",
"821 0 LINE SMOOTH",
"848 0 OFFCURVE",
"857 10 OFFCURVE",
"857 34 CURVE SMOOTH",
"857 61 LINE SMOOTH",
"857 86 OFFCURVE",
"848 97 OFFCURVE",
"821 97 CURVE SMOOTH",
"532 97 LINE",
"532 292 LINE",
"733 292 LINE SMOOTH",
"760 292 OFFCURVE",
"769 303 OFFCURVE",
"769 328 CURVE SMOOTH",
"769 353 LINE SMOOTH",
"769 378 OFFCURVE",
"760 388 OFFCURVE",
"733 388 CURVE SMOOTH",
"532 388 LINE",
"532 582 LINE",
"821 582 LINE SMOOTH",
"848 582 OFFCURVE",
"857 593 OFFCURVE",
"857 618 CURVE SMOOTH",
"857 645 LINE SMOOTH",
"857 670 OFFCURVE",
"848 680 OFFCURVE",
"821 680 CURVE SMOOTH",
"343 680 LINE SMOOTH",
"324 680 OFFCURVE",
"314 673 OFFCURVE",
"306 654 CURVE SMOOTH",
"42 28 LINE",
"36 12 OFFCURVE",
"41 0 OFFCURVE",
"56 0 CURVE SMOOTH"
);
},
{
closed = 1;
nodes = (
"388 582 LINE",
"411 582 LINE",
"411 251 LINE",
"257 251 LINE"
);
}
);
width = 886;
}
);
note = AE;
unicode = 00C6;
},
{
glyphname = AEacute;
lastChange = "2015-07-18 10:50:33 +0000";
layers = (
{
layerId = "082782A7-7ED4-4E0F-8549-8BA7EDA0D1AE";
name = Regular;
paths = (
{
closed = 1;
nodes = (
"140 0 LINE SMOOTH",
"160 0 OFFCURVE",
"167 4 OFFCURVE",
"172 18 CURVE",
"228 159 LINE",
"411 159 LINE",
"411 37 LINE SMOOTH",
"411 13 OFFCURVE",
"422 0 OFFCURVE",
"449 0 CURVE SMOOTH",
"821 0 LINE SMOOTH",
"848 0 OFFCURVE",
"857 10 OFFCURVE",
"857 34 CURVE SMOOTH",
"857 61 LINE SMOOTH",
"857 86 OFFCURVE",
"848 97 OFFCURVE",
"821 97 CURVE SMOOTH",
"532 97 LINE",
"532 292 LINE",
"733 292 LINE SMOOTH",
"760 292 OFFCURVE",
"769 303 OFFCURVE",
"769 328 CURVE SMOOTH",
"769 353 LINE SMOOTH",
"769 378 OFFCURVE",
"760 388 OFFCURVE",
"733 388 CURVE SMOOTH",
"532 388 LINE",
"532 582 LINE",
"821 582 LINE SMOOTH",
"848 582 OFFCURVE",
"857 593 OFFCURVE",
"857 618 CURVE SMOOTH",
"857 645 LINE SMOOTH",
"857 670 OFFCURVE",
"848 680 OFFCURVE",
"821 680 CURVE SMOOTH",
"343 680 LINE SMOOTH",
"324 680 OFFCURVE",
"314 673 OFFCURVE",
"306 654 CURVE SMOOTH",
"42 28 LINE",
"36 12 OFFCURVE",
"41 0 OFFCURVE",
"56 0 CURVE SMOOTH"
);
},
{
closed = 1;
nodes = (
"388 582 LINE",
"411 582 LINE",
"411 251 LINE",
"257 251 LINE"
);
},
{
closed = 1;
nodes = (
"508 729 LINE SMOOTH",
"534 729 OFFCURVE",
"541 734 OFFCURVE",
"550 751 CURVE SMOOTH",
"616 880 LINE SMOOTH",
"627 901 OFFCURVE",
"617 912 OFFCURVE",
"595 912 CURVE SMOOTH",
"521 912 LINE SMOOTH",
"496 912 OFFCURVE",
"491 905 OFFCURVE",
"484 888 CURVE",
"437 757 LINE SMOOTH",
"431 740 OFFCURVE",
"436 729 OFFCURVE",
"456 729 CURVE SMOOTH"
);
}
);
width = 886;
}
);
note = AEacute;
unicode = 01FC;
},
{
glyphname = B;
lastChange = "2015-07-18 10:50:34 +0000";
layers = (
{
layerId = "082782A7-7ED4-4E0F-8549-8BA7EDA0D1AE";
name = Regular;
paths = (
{
closed = 1;
nodes = (
"388 0 LINE SMOOTH",
"543 0 OFFCURVE",
"616 89 OFFCURVE",
"616 197 CURVE SMOOTH",
"616 274 OFFCURVE",
"582 329 OFFCURVE",
"505 353 CURVE",
"563 377 OFFCURVE",
"596 432 OFFCURVE",
"596 495 CURVE SMOOTH",
"596 605 OFFCURVE",
"528 680 OFFCURVE",
"385 680 CURVE SMOOTH",
"96 680 LINE SMOOTH",
"69 680 OFFCURVE",
"59 667 OFFCURVE",
"59 643 CURVE SMOOTH",
"59 36 LINE SMOOTH",
"59 12 OFFCURVE",
"69 0 OFFCURVE",
"96 0 CURVE SMOOTH"
);
},
{
closed = 1;
nodes = (
"187 304 LINE",
"370 304 LINE SMOOTH",
"443 304 OFFCURVE",
"489 270 OFFCURVE",
"489 199 CURVE SMOOTH",
"489 143 OFFCURVE",
"459 97 OFFCURVE",
"382 97 CURVE SMOOTH",
"187 97 LINE"
);
},
{
closed = 1;
nodes = (
"187 583 LINE",
"366 583 LINE SMOOTH",
"438 583 OFFCURVE",
"469 557 OFFCURVE",
"469 491 CURVE SMOOTH",
"469 432 OFFCURVE",
"433 396 OFFCURVE",
"367 396 CURVE SMOOTH",
"187 396 LINE"
);
}
);
width = 655;
}
);
note = B;
unicode = 0042;
},
{
glyphname = C;
lastChange = "2015-07-18 10:50:28 +0000";
layers = (
{
layerId = "082782A7-7ED4-4E0F-8549-8BA7EDA0D1AE";
name = Regular;
paths = (
{
closed = 1;
nodes = (
"496 -15 OFFCURVE",
"574 1 OFFCURVE",
"628 39 CURVE SMOOTH",
"640 47 OFFCURVE",
"642 51 OFFCURVE",
"636 62 CURVE",
"605 114 LINE SMOOTH",
"598 126 OFFCURVE",
"592 125 OFFCURVE",
"580 118 CURVE SMOOTH",
"537 93 OFFCURVE",
"485 79 OFFCURVE",
"409 79 CURVE SMOOTH",
"267 79 OFFCURVE",
"165 156 OFFCURVE",
"165 340 CURVE SMOOTH",
"165 519 OFFCURVE",
"260 600 OFFCURVE",
"406 600 CURVE SMOOTH",
"478 600 OFFCURVE",
"532 583 OFFCURVE",
"567 562 CURVE",
"580 555 OFFCURVE",
"585 554 OFFCURVE",
"592 566 CURVE SMOOTH",
"620 614 LINE SMOOTH",
"627 626 OFFCURVE",
"627 634 OFFCURVE",
"616 641 CURVE SMOOTH",
"563 676 OFFCURVE",
"482 695 OFFCURVE",
"392 695 CURVE SMOOTH",
"166 695 OFFCURVE",
"39 568 OFFCURVE",
"39 340 CURVE SMOOTH",
"39 111 OFFCURVE",
"170 -15 OFFCURVE",
"395 -15 CURVE SMOOTH"
);
}
);
width = 677;
}
);
note = C;
unicode = 0043;
},
{
glyphname = Cacute;
lastChange = "2015-07-18 10:50:34 +0000";
layers = (
{
layerId = "082782A7-7ED4-4E0F-8549-8BA7EDA0D1AE";
name = Regular;
paths = (
{
closed = 1;
nodes = (
"496 -15 OFFCURVE",
"574 1 OFFCURVE",
"628 39 CURVE SMOOTH",
"640 47 OFFCURVE",
"642 51 OFFCURVE",
"636 62 CURVE",
"605 114 LINE SMOOTH",
"598 126 OFFCURVE",
"592 125 OFFCURVE",
"580 118 CURVE SMOOTH",
"537 93 OFFCURVE",
"485 79 OFFCURVE",
"409 79 CURVE SMOOTH",
"267 79 OFFCURVE",
"165 156 OFFCURVE",
"165 340 CURVE SMOOTH",
"165 519 OFFCURVE",
"260 600 OFFCURVE",
"406 600 CURVE SMOOTH",
"478 600 OFFCURVE",
"532 583 OFFCURVE",
"567 562 CURVE",
"580 555 OFFCURVE",
"585 554 OFFCURVE",
"592 566 CURVE SMOOTH",
"620 614 LINE SMOOTH",
"627 626 OFFCURVE",
"627 634 OFFCURVE",
"616 641 CURVE SMOOTH",
"563 676 OFFCURVE",
"482 695 OFFCURVE",
"392 695 CURVE SMOOTH",
"166 695 OFFCURVE",
"39 568 OFFCURVE",
"39 340 CURVE SMOOTH",
"39 111 OFFCURVE",
"170 -15 OFFCURVE",
"395 -15 CURVE SMOOTH"
);
},
{
closed = 1;
nodes = (
"392 753 LINE SMOOTH",
"418 753 OFFCURVE",
"425 758 OFFCURVE",
"434 775 CURVE SMOOTH",
"500 904 LINE SMOOTH",
"511 925 OFFCURVE",
"501 936 OFFCURVE",
"479 936 CURVE SMOOTH",
"405 936 LINE SMOOTH",
"380 936 OFFCURVE",
"375 929 OFFCURVE",
"368 912 CURVE",
"321 781 LINE SMOOTH",
"315 764 OFFCURVE",
"320 753 OFFCURVE",
"340 753 CURVE SMOOTH"
);
}
);
width = 677;
}
);
note = Cacute;
unicode = 0106;
},
{
glyphname = Ccaron;
lastChange = "2015-07-18 10:50:32 +0000";
layers = (
{
layerId = "082782A7-7ED4-4E0F-8549-8BA7EDA0D1AE";
name = Regular;
paths = (
{
closed = 1;
nodes = (
"496 -15 OFFCURVE",
"574 1 OFFCURVE",
"628 39 CURVE SMOOTH",
"640 47 OFFCURVE",
"642 51 OFFCURVE",
"636 62 CURVE",
"605 114 LINE SMOOTH",
"598 126 OFFCURVE",
"592 125 OFFCURVE",
"580 118 CURVE SMOOTH",
"537 93 OFFCURVE",
"485 79 OFFCURVE",
"409 79 CURVE SMOOTH",
"267 79 OFFCURVE",
"165 156 OFFCURVE",
"165 340 CURVE SMOOTH",
"165 519 OFFCURVE",
"260 600 OFFCURVE",
"406 600 CURVE SMOOTH",
"478 600 OFFCURVE",
"532 583 OFFCURVE",
"567 562 CURVE",
"580 555 OFFCURVE",
"585 554 OFFCURVE",
"592 566 CURVE SMOOTH",
"620 614 LINE SMOOTH",
"627 626 OFFCURVE",
"627 634 OFFCURVE",
"616 641 CURVE SMOOTH",
"563 676 OFFCURVE",
"482 695 OFFCURVE",
"392 695 CURVE SMOOTH",
"166 695 OFFCURVE",
"39 568 OFFCURVE",
"39 340 CURVE SMOOTH",
"39 111 OFFCURVE",
"170 -15 OFFCURVE",
"395 -15 CURVE SMOOTH"
);
},
{
closed = 1;
nodes = (
"427 754 LINE SMOOTH",
"450 754 OFFCURVE",
"454 760 OFFCURVE",
"465 775 CURVE SMOOTH",
"569 916 LINE SMOOTH",
"583 934 OFFCURVE",
"579 948 OFFCURVE",
"558 948 CURVE SMOOTH",
"506 948 LINE SMOOTH",
"481 948 OFFCURVE",
"476 944 OFFCURVE",
"467 929 CURVE",
"399 828 LINE",
"330 929 LINE SMOOTH",
"320 944 OFFCURVE",
"315 948 OFFCURVE",
"291 948 CURVE SMOOTH",
"238 948 LINE SMOOTH",
"218 948 OFFCURVE",
"214 935 OFFCURVE",
"228 916 CURVE SMOOTH",
"332 775 LINE",
"344 760 OFFCURVE",
"347 754 OFFCURVE",
"370 754 CURVE SMOOTH"
);
}
);
width = 677;
}
);
note = Ccaron;
unicode = 010C;
},
{
glyphname = Ccedilla;
lastChange = "2015-07-18 10:50:33 +0000";
layers = (
{
layerId = "082782A7-7ED4-4E0F-8549-8BA7EDA0D1AE";
name = Regular;
paths = (
{
closed = 1;
nodes = (
"496 -15 OFFCURVE",
"574 1 OFFCURVE",
"628 39 CURVE SMOOTH",
"640 47 OFFCURVE",
"642 51 OFFCURVE",
"636 62 CURVE",
"605 114 LINE SMOOTH",
"598 126 OFFCURVE",
"592 125 OFFCURVE",
"580 118 CURVE SMOOTH",
"537 93 OFFCURVE",
"485 79 OFFCURVE",
"409 79 CURVE SMOOTH",
"267 79 OFFCURVE",
"165 156 OFFCURVE",
"165 340 CURVE SMOOTH",
"165 519 OFFCURVE",
"260 600 OFFCURVE",
"406 600 CURVE SMOOTH",
"478 600 OFFCURVE",
"532 583 OFFCURVE",
"567 562 CURVE",
"580 555 OFFCURVE",
"585 554 OFFCURVE",
"592 566 CURVE SMOOTH",
"620 614 LINE SMOOTH",
"627 626 OFFCURVE",
"627 634 OFFCURVE",
"616 641 CURVE SMOOTH",
"563 676 OFFCURVE",
"482 695 OFFCURVE",
"392 695 CURVE SMOOTH",
"166 695 OFFCURVE",
"39 568 OFFCURVE",
"39 340 CURVE SMOOTH",
"39 111 OFFCURVE",
"170 -15 OFFCURVE",
"395 -15 CURVE SMOOTH"
);
},
{
closed = 1;
nodes = (
"450 -227 OFFCURVE",
"489 -193 OFFCURVE",
"489 -144 CURVE SMOOTH",
"489 -97 OFFCURVE",
"462 -74 OFFCURVE",
"417 -70 CURVE",
"440 -20 LINE SMOOTH",
"445 -10 OFFCURVE",
"442 -4 OFFCURVE",
"430 -4 CURVE SMOOTH",
"366 -4 LINE SMOOTH",
"352 -4 OFFCURVE",
"348 -7 OFFCURVE",
"344 -18 CURVE SMOOTH",
"317 -86 LINE SMOOTH",
"313 -96 OFFCURVE",
"317 -102 OFFCURVE",
"327 -102 CURVE SMOOTH",
"342 -102 LINE SMOOTH",
"382 -102 OFFCURVE",
"402 -107 OFFCURVE",
"402 -135 CURVE SMOOTH",
"402 -155 OFFCURVE",
"391 -164 OFFCURVE",
"363 -164 CURVE SMOOTH",
"348 -164 OFFCURVE",
"330 -160 OFFCURVE",
"317 -153 CURVE SMOOTH",
"308 -148 OFFCURVE",
"303 -148 OFFCURVE",
"299 -157 CURVE",
"285 -192 LINE",
"281 -201 OFFCURVE",
"283 -204 OFFCURVE",
"295 -210 CURVE",
"313 -220 OFFCURVE",
"347 -227 OFFCURVE",
"377 -227 CURVE SMOOTH"
);
}
);
width = 677;
}
);
note = Ccedilla;
unicode = 00C7;
},
{
glyphname = Ccircumflex;
lastChange = "2015-07-18 10:50:32 +0000";
layers = (
{
layerId = "082782A7-7ED4-4E0F-8549-8BA7EDA0D1AE";
name = Regular;
paths = (
{
closed = 1;
nodes = (
"496 -15 OFFCURVE",
"574 1 OFFCURVE",
"628 39 CURVE SMOOTH",
"640 47 OFFCURVE",
"642 51 OFFCURVE",
"636 62 CURVE",
"605 114 LINE SMOOTH",
"598 126 OFFCURVE",
"592 125 OFFCURVE",
"580 118 CURVE SMOOTH",
"537 93 OFFCURVE",
"485 79 OFFCURVE",
"409 79 CURVE SMOOTH",
"267 79 OFFCURVE",
"165 156 OFFCURVE",
"165 340 CURVE SMOOTH",
"165 519 OFFCURVE",
"260 600 OFFCURVE",
"406 600 CURVE SMOOTH",
"478 600 OFFCURVE",
"532 583 OFFCURVE",
"567 562 CURVE",
"580 555 OFFCURVE",
"585 554 OFFCURVE",
"592 566 CURVE SMOOTH",
"620 614 LINE SMOOTH",
"627 626 OFFCURVE",
"627 634 OFFCURVE",
"616 641 CURVE SMOOTH",
"563 676 OFFCURVE",
"482 695 OFFCURVE",
"392 695 CURVE SMOOTH",
"166 695 OFFCURVE",
"39 568 OFFCURVE",
"39 340 CURVE SMOOTH",
"39 111 OFFCURVE",
"170 -15 OFFCURVE",
"395 -15 CURVE SMOOTH"
);
},
{
closed = 1;
nodes = (
"274 738 LINE SMOOTH",
"298 738 OFFCURVE",
"305 745 OFFCURVE",
"314 759 CURVE SMOOTH",
"382 859 LINE",
"449 759 LINE SMOOTH",
"459 745 OFFCURVE",
"465 738 OFFCURVE",
"490 738 CURVE SMOOTH",
"537 738 LINE SMOOTH",
"557 738 OFFCURVE",
"566 751 OFFCURVE",
"552 770 CURVE SMOOTH",
"448 911 LINE SMOOTH",
"437 926 OFFCURVE",
"433 933 OFFCURVE",
"410 933 CURVE SMOOTH",
"353 933 LINE SMOOTH",
"330 933 OFFCURVE",
"327 926 OFFCURVE",
"315 911 CURVE",
"211 770 LINE SMOOTH",
"197 751 OFFCURVE",
"206 738 OFFCURVE",
"227 738 CURVE SMOOTH"
);
}
);
width = 677;
}
);
note = Ccircumflex;
unicode = 0108;
},
{
glyphname = Cdotaccent;
lastChange = "2015-07-18 10:50:34 +0000";
layers = (
{
layerId = "082782A7-7ED4-4E0F-8549-8BA7EDA0D1AE";
name = Regular;
paths = (
{
closed = 1;
nodes = (
"496 -15 OFFCURVE",
"574 1 OFFCURVE",
"628 39 CURVE SMOOTH",
"640 47 OFFCURVE",
"642 51 OFFCURVE",
"636 62 CURVE",
"605 114 LINE SMOOTH",
"598 126 OFFCURVE",
"592 125 OFFCURVE",
"580 118 CURVE SMOOTH",
"537 93 OFFCURVE",
"485 79 OFFCURVE",
"409 79 CURVE SMOOTH",
"267 79 OFFCURVE",
"165 156 OFFCURVE",
"165 340 CURVE SMOOTH",
"165 519 OFFCURVE",
"260 600 OFFCURVE",
"406 600 CURVE SMOOTH",
"478 600 OFFCURVE",
"532 583 OFFCURVE",
"567 562 CURVE",
"580 555 OFFCURVE",
"585 554 OFFCURVE",
"592 566 CURVE SMOOTH",
"620 614 LINE SMOOTH",
"627 626 OFFCURVE",
"627 634 OFFCURVE",
"616 641 CURVE SMOOTH",
"563 676 OFFCURVE",
"482 695 OFFCURVE",
"392 695 CURVE SMOOTH",
"166 695 OFFCURVE",
"39 568 OFFCURVE",
"39 340 CURVE SMOOTH",
"39 111 OFFCURVE",
"170 -15 OFFCURVE",
"395 -15 CURVE SMOOTH"
);
},
{
closed = 1;
nodes = (
"393 771 LINE SMOOTH",
"421 771 OFFCURVE",
"440 794 OFFCURVE",
"440 821 CURVE SMOOTH",
"440 840 LINE SMOOTH",
"440 867 OFFCURVE",
"420 889 OFFCURVE",
"393 889 CURVE SMOOTH",
"372 889 LINE SMOOTH",
"345 889 OFFCURVE",
"325 867 OFFCURVE",
"325 840 CURVE SMOOTH",
"325 821 LINE SMOOTH",
"325 794 OFFCURVE",
"345 771 OFFCURVE",
"372 771 CURVE SMOOTH"
);
}
);
width = 677;
}
);
note = Cdotaccent;
unicode = 010A;
},
{
glyphname = D;
lastChange = "2015-07-18 10:50:32 +0000";
layers = (
{
layerId = "082782A7-7ED4-4E0F-8549-8BA7EDA0D1AE";
name = Regular;
paths = (
{
closed = 1;
nodes = (
"296 0 LINE SMOOTH",
"512 0 OFFCURVE",
"644 97 OFFCURVE",
"644 340 CURVE SMOOTH",
"644 585 OFFCURVE",
"512 680 OFFCURVE",
"296 680 CURVE SMOOTH",
"96 680 LINE SMOOTH",
"69 680 OFFCURVE",
"59 667 OFFCURVE",
"59 643 CURVE SMOOTH",
"59 36 LINE SMOOTH",
"59 12 OFFCURVE",
"69 0 OFFCURVE",
"96 0 CURVE SMOOTH"
);
},
{
closed = 1;
nodes = (
"187 582 LINE",
"304 582 LINE SMOOTH",
"437 582 OFFCURVE",
"517 525 OFFCURVE",
"517 340 CURVE SMOOTH",
"517 155 OFFCURVE",
"437 97 OFFCURVE",
"304 97 CURVE SMOOTH",
"187 97 LINE"
);
}
);
width = 683;
}
);
note = D;
unicode = 0044;
},
{
glyphname = Eth;
lastChange = "2015-07-18 10:50:32 +0000";
layers = (
{
layerId = "082782A7-7ED4-4E0F-8549-8BA7EDA0D1AE";
name = Regular;
paths = (
{
closed = 1;
nodes = (
"342 0 LINE SMOOTH",
"557 0 OFFCURVE",
"689 97 OFFCURVE",
"689 340 CURVE SMOOTH",
"689 585 OFFCURVE",
"557 680 OFFCURVE",
"342 680 CURVE SMOOTH",
"142 680 LINE SMOOTH",
"114 680 OFFCURVE",
"104 667 OFFCURVE",
"104 643 CURVE SMOOTH",
"104 389 LINE",
"51 389 LINE SMOOTH",
"26 389 OFFCURVE",
"19 380 OFFCURVE",
"19 354 CURVE SMOOTH",
"19 325 LINE SMOOTH",
"19 300 OFFCURVE",
"26 292 OFFCURVE",
"51 292 CURVE SMOOTH",
"104 292 LINE",
"104 36 LINE SMOOTH",
"104 12 OFFCURVE",
"114 0 OFFCURVE",
"142 0 CURVE SMOOTH"
);
},
{
closed = 1;
nodes = (
"232 292 LINE",
"380 292 LINE SMOOTH",
"405 292 OFFCURVE",
"412 300 OFFCURVE",
"412 325 CURVE SMOOTH",
"412 354 LINE SMOOTH",
"412 380 OFFCURVE",
"405 389 OFFCURVE",
"380 389 CURVE SMOOTH",
"232 389 LINE",
"232 582 LINE",
"349 582 LINE SMOOTH",
"483 582 OFFCURVE",
"562 525 OFFCURVE",
"562 340 CURVE SMOOTH",
"562 155 OFFCURVE",
"483 97 OFFCURVE",
"349 97 CURVE SMOOTH",
"232 97 LINE"
);
}
);
width = 728;
}
);
note = Eth;
unicode = 00D0;
},
{
glyphname = Dcaron;
lastChange = "2015-07-18 10:50:34 +0000";
layers = (
{
layerId = "082782A7-7ED4-4E0F-8549-8BA7EDA0D1AE";
name = Regular;
paths = (
{
closed = 1;
nodes = (
"296 0 LINE SMOOTH",
"512 0 OFFCURVE",
"644 97 OFFCURVE",
"644 340 CURVE SMOOTH",
"644 585 OFFCURVE",
"512 680 OFFCURVE",
"296 680 CURVE SMOOTH",
"96 680 LINE SMOOTH",
"69 680 OFFCURVE",
"59 667 OFFCURVE",
"59 643 CURVE SMOOTH",
"59 36 LINE SMOOTH",
"59 12 OFFCURVE",
"69 0 OFFCURVE",
"96 0 CURVE SMOOTH"
);
},
{
closed = 1;
nodes = (
"187 582 LINE",
"304 582 LINE SMOOTH",
"437 582 OFFCURVE",
"517 525 OFFCURVE",
"517 340 CURVE SMOOTH",
"517 155 OFFCURVE",
"437 97 OFFCURVE",
"304 97 CURVE SMOOTH",
"187 97 LINE"
);
},
{
closed = 1;
nodes = (
"331 754 LINE SMOOTH",
"354 754 OFFCURVE",
"358 760 OFFCURVE",
"369 775 CURVE SMOOTH",
"473 916 LINE SMOOTH",
"487 934 OFFCURVE",
"483 948 OFFCURVE",
"462 948 CURVE SMOOTH",
"410 948 LINE SMOOTH",
"385 948 OFFCURVE",
"380 944 OFFCURVE",
"371 929 CURVE",
"303 828 LINE",
"234 929 LINE SMOOTH",
"224 944 OFFCURVE",
"219 948 OFFCURVE",
"195 948 CURVE SMOOTH",
"142 948 LINE SMOOTH",
"122 948 OFFCURVE",
"118 935 OFFCURVE",
"132 916 CURVE SMOOTH",
"236 775 LINE",
"248 760 OFFCURVE",
"251 754 OFFCURVE",
"274 754 CURVE SMOOTH"
);
}
);
width = 683;
}
);
note = Dcaron;
unicode = 010E;
},
{
glyphname = Dcroat;
lastChange = "2015-07-18 10:50:33 +0000";
layers = (
{
layerId = "082782A7-7ED4-4E0F-8549-8BA7EDA0D1AE";
name = Regular;
paths = (
{
closed = 1;
nodes = (
"342 0 LINE SMOOTH",
"557 0 OFFCURVE",
"689 97 OFFCURVE",
"689 340 CURVE SMOOTH",
"689 585 OFFCURVE",
"557 680 OFFCURVE",
"342 680 CURVE SMOOTH",
"142 680 LINE SMOOTH",
"114 680 OFFCURVE",
"104 667 OFFCURVE",
"104 643 CURVE SMOOTH",
"104 389 LINE",
"54 389 LINE SMOOTH",
"27 389 OFFCURVE",
"19 378 OFFCURVE",
"19 353 CURVE SMOOTH",
"19 326 LINE SMOOTH",
"19 302 OFFCURVE",
"27 292 OFFCURVE",
"54 292 CURVE SMOOTH",
"104 292 LINE",
"104 36 LINE SMOOTH",
"104 12 OFFCURVE",
"114 0 OFFCURVE",
"142 0 CURVE SMOOTH"
);
},
{
closed = 1;
nodes = (
"232 292 LINE",
"376 292 LINE SMOOTH",
"403 292 OFFCURVE",
"412 302 OFFCURVE",
"412 326 CURVE SMOOTH",
"412 353 LINE SMOOTH",
"412 378 OFFCURVE",
"403 389 OFFCURVE",
"376 389 CURVE SMOOTH",
"232 389 LINE",
"232 582 LINE",
"349 582 LINE SMOOTH",
"483 582 OFFCURVE",
"562 525 OFFCURVE",
"562 340 CURVE SMOOTH",
"562 155 OFFCURVE",
"483 97 OFFCURVE",
"349 97 CURVE SMOOTH",
"232 97 LINE"
);
}
);
width = 728;
}
);
note = Dcroat;
unicode = 0110;
},
{
glyphname = Ddotbelow;
lastChange = "2015-07-18 10:50:33 +0000";
layers = (
{
layerId = "082782A7-7ED4-4E0F-8549-8BA7EDA0D1AE";
name = Regular;
paths = (
{
closed = 1;
nodes = (
"296 0 LINE SMOOTH",
"512 0 OFFCURVE",
"644 97 OFFCURVE",
"644 340 CURVE SMOOTH",
"644 585 OFFCURVE",
"512 680 OFFCURVE",
"296 680 CURVE SMOOTH",
"96 680 LINE SMOOTH",
"69 680 OFFCURVE",
"59 667 OFFCURVE",
"59 643 CURVE SMOOTH",
"59 36 LINE SMOOTH",
"59 12 OFFCURVE",
"69 0 OFFCURVE",
"96 0 CURVE SMOOTH"
);
},
{
closed = 1;
nodes = (
"304 -184 LINE SMOOTH",
"333 -184 OFFCURVE",
"351 -161 OFFCURVE",
"351 -134 CURVE SMOOTH",
"351 -115 LINE SMOOTH",
"351 -88 OFFCURVE",
"332 -66 OFFCURVE",
"304 -66 CURVE SMOOTH",
"284 -66 LINE SMOOTH",
"257 -66 OFFCURVE",
"237 -88 OFFCURVE",
"237 -115 CURVE SMOOTH",
"237 -134 LINE SMOOTH",
"237 -161 OFFCURVE",
"257 -184 OFFCURVE",
"284 -184 CURVE SMOOTH"
);
},
{
closed = 1;
nodes = (
"187 582 LINE",
"304 582 LINE SMOOTH",
"437 582 OFFCURVE",
"517 525 OFFCURVE",
"517 340 CURVE SMOOTH",
"517 155 OFFCURVE",
"437 97 OFFCURVE",
"304 97 CURVE SMOOTH",
"187 97 LINE"
);
}
);
width = 683;
}
);
note = Ddotbelow;
unicode = 1E0C;
},
{
glyphname = Dlinebelow;
lastChange = "2015-07-18 10:50:33 +0000";
layers = (
{
layerId = "082782A7-7ED4-4E0F-8549-8BA7EDA0D1AE";
name = Regular;
paths = (
{
closed = 1;
nodes = (
"296 0 LINE SMOOTH",
"512 0 OFFCURVE",
"644 97 OFFCURVE",
"644 340 CURVE SMOOTH",
"644 585 OFFCURVE",
"512 680 OFFCURVE",
"296 680 CURVE SMOOTH",
"96 680 LINE SMOOTH",
"69 680 OFFCURVE",
"59 667 OFFCURVE",
"59 643 CURVE SMOOTH",
"59 36 LINE SMOOTH",
"59 12 OFFCURVE",
"69 0 OFFCURVE",
"96 0 CURVE SMOOTH"
);
},
{
closed = 1;
nodes = (
"412 -161 LINE SMOOTH",
"439 -161 OFFCURVE",
"448 -151 OFFCURVE",
"448 -126 CURVE SMOOTH",
"448 -107 LINE SMOOTH",
"448 -83 OFFCURVE",
"439 -71 OFFCURVE",
"412 -71 CURVE SMOOTH",
"152 -71 LINE SMOOTH",
"125 -71 OFFCURVE",
"116 -83 OFFCURVE",
"116 -107 CURVE SMOOTH",
"116 -126 LINE SMOOTH",
"116 -151 OFFCURVE",
"125 -161 OFFCURVE",
"152 -161 CURVE SMOOTH"
);
},
{
closed = 1;
nodes = (
"187 582 LINE",
"304 582 LINE SMOOTH",
"437 582 OFFCURVE",
"517 525 OFFCURVE",
"517 340 CURVE SMOOTH",
"517 155 OFFCURVE",
"437 97 OFFCURVE",
"304 97 CURVE SMOOTH",
"187 97 LINE"
);
}
);
width = 683;
}
);
note = Dlinebelow;
unicode = 1E0E;
},
{
glyphname = E;
lastChange = "2015-07-18 10:50:28 +0000";
layers = (
{
layerId = "082782A7-7ED4-4E0F-8549-8BA7EDA0D1AE";
name = Regular;
paths = (
{
closed = 1;
nodes = (
"511 0 LINE SMOOTH",
"538 0 OFFCURVE",
"547 10 OFFCURVE",
"547 34 CURVE SMOOTH",
"547 61 LINE SMOOTH",
"547 86 OFFCURVE",
"538 97 OFFCURVE",
"511 97 CURVE SMOOTH",
"187 97 LINE",
"187 292 LINE",
"423 292 LINE SMOOTH",
"450 292 OFFCURVE",
"459 303 OFFCURVE",
"459 328 CURVE SMOOTH",
"459 353 LINE SMOOTH",
"459 378 OFFCURVE",
"450 388 OFFCURVE",
"423 388 CURVE SMOOTH",
"187 388 LINE",
"187 582 LINE",
"512 582 LINE SMOOTH",
"539 582 OFFCURVE",
"547 593 OFFCURVE",
"547 618 CURVE SMOOTH",
"547 645 LINE SMOOTH",
"547 670 OFFCURVE",
"539 680 OFFCURVE",
"512 680 CURVE SMOOTH",
"96 680 LINE SMOOTH",
"69 680 OFFCURVE",
"59 667 OFFCURVE",
"59 643 CURVE SMOOTH",
"59 36 LINE SMOOTH",
"59 12 OFFCURVE",
"69 0 OFFCURVE",
"96 0 CURVE SMOOTH"
);
}
);
width = 576;
}
);
note = E;
unicode = 0045;
},
{
glyphname = Eacute;
lastChange = "2015-07-18 10:50:33 +0000";
layers = (
{
layerId = "082782A7-7ED4-4E0F-8549-8BA7EDA0D1AE";
name = Regular;
paths = (
{
closed = 1;
nodes = (
"511 0 LINE SMOOTH",
"538 0 OFFCURVE",
"547 10 OFFCURVE",
"547 34 CURVE SMOOTH",
"547 61 LINE SMOOTH",
"547 86 OFFCURVE",
"538 97 OFFCURVE",
"511 97 CURVE SMOOTH",
"187 97 LINE",
"187 292 LINE",
"423 292 LINE SMOOTH",
"450 292 OFFCURVE",
"459 303 OFFCURVE",
"459 328 CURVE SMOOTH",
"459 353 LINE SMOOTH",
"459 378 OFFCURVE",
"450 388 OFFCURVE",
"423 388 CURVE SMOOTH",
"187 388 LINE",
"187 582 LINE",
"512 582 LINE SMOOTH",
"539 582 OFFCURVE",
"547 593 OFFCURVE",
"547 618 CURVE SMOOTH",
"547 645 LINE SMOOTH",
"547 670 OFFCURVE",
"539 680 OFFCURVE",
"512 680 CURVE SMOOTH",
"96 680 LINE SMOOTH",
"69 680 OFFCURVE",
"59 667 OFFCURVE",
"59 643 CURVE SMOOTH",
"59 36 LINE SMOOTH",
"59 12 OFFCURVE",
"69 0 OFFCURVE",
"96 0 CURVE SMOOTH"
);
},
{
closed = 1;
nodes = (
"307 753 LINE SMOOTH",
"333 753 OFFCURVE",
"340 758 OFFCURVE",
"349 775 CURVE SMOOTH",
"415 904 LINE SMOOTH",
"426 925 OFFCURVE",
"416 936 OFFCURVE",
"394 936 CURVE SMOOTH",
"320 936 LINE SMOOTH",
"295 936 OFFCURVE",
"290 929 OFFCURVE",
"283 912 CURVE",
"236 781 LINE SMOOTH",
"230 764 OFFCURVE",
"235 753 OFFCURVE",
"255 753 CURVE SMOOTH"
);
}
);
width = 576;
}
);
note = Eacute;
unicode = 00C9;
},
{
glyphname = Ebreve;
lastChange = "2015-07-18 10:50:33 +0000";
layers = (
{
layerId = "082782A7-7ED4-4E0F-8549-8BA7EDA0D1AE";
name = Regular;
paths = (
{
closed = 1;
nodes = (
"511 0 LINE SMOOTH",
"538 0 OFFCURVE",
"547 10 OFFCURVE",
"547 34 CURVE SMOOTH",
"547 61 LINE SMOOTH",
"547 86 OFFCURVE",
"538 97 OFFCURVE",
"511 97 CURVE SMOOTH",
"187 97 LINE",
"187 292 LINE",
"423 292 LINE SMOOTH",
"450 292 OFFCURVE",
"459 303 OFFCURVE",
"459 328 CURVE SMOOTH",
"459 353 LINE SMOOTH",
"459 378 OFFCURVE",
"450 388 OFFCURVE",
"423 388 CURVE SMOOTH",
"187 388 LINE",
"187 582 LINE",
"512 582 LINE SMOOTH",
"539 582 OFFCURVE",
"547 593 OFFCURVE",
"547 618 CURVE SMOOTH",
"547 645 LINE SMOOTH",
"547 670 OFFCURVE",
"539 680 OFFCURVE",
"512 680 CURVE SMOOTH",
"96 680 LINE SMOOTH",
"69 680 OFFCURVE",
"59 667 OFFCURVE",
"59 643 CURVE SMOOTH",
"59 36 LINE SMOOTH",
"59 12 OFFCURVE",
"69 0 OFFCURVE",
"96 0 CURVE SMOOTH"
);
},
{
closed = 1;
nodes = (
"419 756 OFFCURVE",
"473 825 OFFCURVE",
"473 919 CURVE SMOOTH",
"473 930 OFFCURVE",
"467 937 OFFCURVE",
"457 937 CURVE SMOOTH",
"391 937 LINE SMOOTH",
"377 937 OFFCURVE",
"374 930 OFFCURVE",
"374 918 CURVE SMOOTH",
"374 874 OFFCURVE",
"359 843 OFFCURVE",
"308 843 CURVE SMOOTH",
"256 843 OFFCURVE",
"242 874 OFFCURVE",
"242 918 CURVE SMOOTH",
"242 930 OFFCURVE",
"239 937 OFFCURVE",
"225 937 CURVE SMOOTH",
"159 937 LINE SMOOTH",
"149 937 OFFCURVE",
"143 930 OFFCURVE",
"143 919 CURVE SMOOTH",
"143 825 OFFCURVE",
"195 756 OFFCURVE",
"308 756 CURVE SMOOTH"
);
}
);
width = 576;
}
);
note = Ebreve;
unicode = 0114;
},
{
glyphname = Ecaron;
lastChange = "2015-07-18 10:50:34 +0000";
layers = (
{
layerId = "082782A7-7ED4-4E0F-8549-8BA7EDA0D1AE";
name = Regular;
paths = (
{
closed = 1;
nodes = (
"511 0 LINE SMOOTH",
"538 0 OFFCURVE",
"547 10 OFFCURVE",
"547 34 CURVE SMOOTH",
"547 61 LINE SMOOTH",
"547 86 OFFCURVE",
"538 97 OFFCURVE",
"511 97 CURVE SMOOTH",
"187 97 LINE",
"187 292 LINE",
"423 292 LINE SMOOTH",
"450 292 OFFCURVE",
"459 303 OFFCURVE",
"459 328 CURVE SMOOTH",
"459 353 LINE SMOOTH",
"459 378 OFFCURVE",
"450 388 OFFCURVE",
"423 388 CURVE SMOOTH",
"187 388 LINE",
"187 582 LINE",
"512 582 LINE SMOOTH",
"539 582 OFFCURVE",
"547 593 OFFCURVE",
"547 618 CURVE SMOOTH",
"547 645 LINE SMOOTH",
"547 670 OFFCURVE",
"539 680 OFFCURVE",
"512 680 CURVE SMOOTH",
"96 680 LINE SMOOTH",
"69 680 OFFCURVE",
"59 667 OFFCURVE",
"59 643 CURVE SMOOTH",
"59 36 LINE SMOOTH",
"59 12 OFFCURVE",
"69 0 OFFCURVE",
"96 0 CURVE SMOOTH"
);
},
{
closed = 1;
nodes = (
"336 754 LINE SMOOTH",
"359 754 OFFCURVE",
"363 760 OFFCURVE",
"374 775 CURVE SMOOTH",
"478 916 LINE SMOOTH",
"492 934 OFFCURVE",
"488 948 OFFCURVE",
"467 948 CURVE SMOOTH",
"415 948 LINE SMOOTH",
"390 948 OFFCURVE",
"385 944 OFFCURVE",
"376 929 CURVE",
"308 828 LINE",
"239 929 LINE SMOOTH",
"229 944 OFFCURVE",
"224 948 OFFCURVE",
"200 948 CURVE SMOOTH",
"147 948 LINE SMOOTH",
"127 948 OFFCURVE",
"123 935 OFFCURVE",
"137 916 CURVE SMOOTH",
"241 775 LINE",
"253 760 OFFCURVE",
"256 754 OFFCURVE",
"279 754 CURVE SMOOTH"
);
}
);
width = 576;
}
);
note = Ecaron;
unicode = 011A;
},
{
glyphname = Ecircumflex;
lastChange = "2015-07-18 10:50:34 +0000";
layers = (
{
layerId = "082782A7-7ED4-4E0F-8549-8BA7EDA0D1AE";
name = Regular;
paths = (
{
closed = 1;
nodes = (
"511 0 LINE SMOOTH",
"538 0 OFFCURVE",
"547 10 OFFCURVE",
"547 34 CURVE SMOOTH",
"547 61 LINE SMOOTH",
"547 86 OFFCURVE",
"538 97 OFFCURVE",
"511 97 CURVE SMOOTH",
"187 97 LINE",
"187 292 LINE",
"423 292 LINE SMOOTH",
"450 292 OFFCURVE",
"459 303 OFFCURVE",
"459 328 CURVE SMOOTH",
"459 353 LINE SMOOTH",
"459 378 OFFCURVE",
"450 388 OFFCURVE",
"423 388 CURVE SMOOTH",
"187 388 LINE",
"187 582 LINE",
"512 582 LINE SMOOTH",
"539 582 OFFCURVE",
"547 593 OFFCURVE",
"547 618 CURVE SMOOTH",
"547 645 LINE SMOOTH",
"547 670 OFFCURVE",
"539 680 OFFCURVE",
"512 680 CURVE SMOOTH",
"96 680 LINE SMOOTH",
"69 680 OFFCURVE",
"59 667 OFFCURVE",
"59 643 CURVE SMOOTH",
"59 36 LINE SMOOTH",
"59 12 OFFCURVE",
"69 0 OFFCURVE",
"96 0 CURVE SMOOTH"
);
},
{
closed = 1;
nodes = (
"192 750 LINE SMOOTH",
"216 750 OFFCURVE",
"223 757 OFFCURVE",
"232 771 CURVE SMOOTH",
"300 871 LINE",
"367 771 LINE SMOOTH",
"377 757 OFFCURVE",
"383 750 OFFCURVE",
"408 750 CURVE SMOOTH",
"455 750 LINE SMOOTH",
"475 750 OFFCURVE",
"484 763 OFFCURVE",
"470 782 CURVE SMOOTH",
"366 923 LINE SMOOTH",
"355 938 OFFCURVE",
"351 945 OFFCURVE",
"328 945 CURVE SMOOTH",
"271 945 LINE SMOOTH",
"248 945 OFFCURVE",
"245 938 OFFCURVE",
"233 923 CURVE",
"129 782 LINE SMOOTH",
"115 763 OFFCURVE",
"124 750 OFFCURVE",
"145 750 CURVE SMOOTH"
);
}
);
width = 576;
}
);
note = Ecircumflex;
unicode = 00CA;
},
{
glyphname = Ecircumflexacute;
lastChange = "2015-07-18 10:50:33 +0000";
layers = (
{
layerId = "082782A7-7ED4-4E0F-8549-8BA7EDA0D1AE";
name = Regular;
paths = (
{
closed = 1;
nodes = (
"511 0 LINE SMOOTH",
"538 0 OFFCURVE",
"547 10 OFFCURVE",
"547 34 CURVE SMOOTH",
"547 61 LINE SMOOTH",
"547 86 OFFCURVE",
"538 97 OFFCURVE",
"511 97 CURVE SMOOTH",
"187 97 LINE",
"187 292 LINE",
"423 292 LINE SMOOTH",
"450 292 OFFCURVE",
"459 303 OFFCURVE",
"459 328 CURVE SMOOTH",
"459 353 LINE SMOOTH",
"459 378 OFFCURVE",
"450 388 OFFCURVE",
"423 388 CURVE SMOOTH",
"187 388 LINE",
"187 582 LINE",
"512 582 LINE SMOOTH",
"539 582 OFFCURVE",
"547 593 OFFCURVE",
"547 618 CURVE SMOOTH",
"547 645 LINE SMOOTH",
"547 670 OFFCURVE",
"539 680 OFFCURVE",
"512 680 CURVE SMOOTH",
"96 680 LINE SMOOTH",
"69 680 OFFCURVE",
"59 667 OFFCURVE",
"59 643 CURVE SMOOTH",
"59 36 LINE SMOOTH",
"59 12 OFFCURVE",
"69 0 OFFCURVE",
"96 0 CURVE SMOOTH"
);
},
{
closed = 1;
nodes = (
"193 737 LINE SMOOTH",
"215 737 OFFCURVE",
"222 740 OFFCURVE",
"232 755 CURVE",
"298 838 LINE",
"363 755 LINE SMOOTH",
"374 741 OFFCURVE",
"380 737 OFFCURVE",
"402 737 CURVE SMOOTH",
"447 737 LINE SMOOTH",
"468 737 OFFCURVE",
"476 751 OFFCURVE",
"461 769 CURVE SMOOTH",
"360 892 LINE",
"349 907 OFFCURVE",
"343 914 OFFCURVE",
"320 914 CURVE SMOOTH",
"275 914 LINE SMOOTH",
"252 914 OFFCURVE",
"247 907 OFFCURVE",
"235 892 CURVE SMOOTH",
"134 769 LINE SMOOTH",
"119 751 OFFCURVE",
"127 737 OFFCURVE",
"148 737 CURVE SMOOTH"
);
},
{
closed = 1;
nodes = (
"450 867 LINE SMOOTH",
"473 867 OFFCURVE",
"479 871 OFFCURVE",
"489 889 CURVE SMOOTH",
"538 982 LINE",
"549 1001 OFFCURVE",
"543 1013 OFFCURVE",
"522 1013 CURVE SMOOTH",
"472 1013 LINE SMOOTH",
"449 1013 OFFCURVE",
"444 1007 OFFCURVE",
"438 989 CURVE SMOOTH",
"403 892 LINE SMOOTH",
"398 878 OFFCURVE",
"403 867 OFFCURVE",
"420 867 CURVE SMOOTH"
);
}
);
width = 576;
}
);
note = Ecircumflexacute;
unicode = 1EBE;
},
{
glyphname = Ecircumflexdotbelow;
lastChange = "2015-07-18 10:50:34 +0000";
layers = (
{
layerId = "082782A7-7ED4-4E0F-8549-8BA7EDA0D1AE";
name = Regular;
paths = (
{
closed = 1;
nodes = (
"511 0 LINE SMOOTH",
"538 0 OFFCURVE",
"547 10 OFFCURVE",
"547 34 CURVE SMOOTH",
"547 61 LINE SMOOTH",
"547 86 OFFCURVE",
"538 97 OFFCURVE",
"511 97 CURVE SMOOTH",
"187 97 LINE",
"187 292 LINE",
"423 292 LINE SMOOTH",
"450 292 OFFCURVE",
"459 303 OFFCURVE",
"459 328 CURVE SMOOTH",
"459 353 LINE SMOOTH",
"459 378 OFFCURVE",
"450 388 OFFCURVE",
"423 388 CURVE SMOOTH",
"187 388 LINE",
"187 582 LINE",
"512 582 LINE SMOOTH",
"539 582 OFFCURVE",
"547 593 OFFCURVE",
"547 618 CURVE SMOOTH",
"547 645 LINE SMOOTH",
"547 670 OFFCURVE",
"539 680 OFFCURVE",
"512 680 CURVE SMOOTH",
"96 680 LINE SMOOTH",
"69 680 OFFCURVE",
"59 667 OFFCURVE",
"59 643 CURVE SMOOTH",
"59 36 LINE SMOOTH",
"59 12 OFFCURVE",
"69 0 OFFCURVE",
"96 0 CURVE SMOOTH"
);
},
{
closed = 1;
nodes = (
"309 -184 LINE SMOOTH",
"338 -184 OFFCURVE",
"356 -161 OFFCURVE",
"356 -134 CURVE SMOOTH",
"356 -115 LINE SMOOTH",
"356 -88 OFFCURVE",
"337 -66 OFFCURVE",
"309 -66 CURVE SMOOTH",
"289 -66 LINE SMOOTH",
"262 -66 OFFCURVE",
"242 -88 OFFCURVE",
"242 -115 CURVE SMOOTH",
"242 -134 LINE SMOOTH",
"242 -161 OFFCURVE",
"262 -184 OFFCURVE",
"289 -184 CURVE SMOOTH"
);
},
{
closed = 1;
nodes = (
"188 738 LINE SMOOTH",
"212 738 OFFCURVE",
"219 745 OFFCURVE",
"228 759 CURVE SMOOTH",
"296 859 LINE",
"363 759 LINE SMOOTH",
"373 745 OFFCURVE",
"379 738 OFFCURVE",
"404 738 CURVE SMOOTH",
"451 738 LINE SMOOTH",
"471 738 OFFCURVE",
"480 751 OFFCURVE",
"466 770 CURVE SMOOTH",
"362 911 LINE SMOOTH",
"351 926 OFFCURVE",
"347 933 OFFCURVE",
"324 933 CURVE SMOOTH",
"267 933 LINE SMOOTH",
"244 933 OFFCURVE",
"241 926 OFFCURVE",
"229 911 CURVE",
"125 770 LINE SMOOTH",
"111 751 OFFCURVE",
"120 738 OFFCURVE",
"141 738 CURVE SMOOTH"
);
}
);
width = 576;
}
);
note = Ecircumflexdotbelow;
unicode = 1EC6;
},
{
glyphname = Ecircumflexgrave;
lastChange = "2015-07-18 10:50:34 +0000";
layers = (
{
layerId = "082782A7-7ED4-4E0F-8549-8BA7EDA0D1AE";
name = Regular;
paths = (
{
closed = 1;
nodes = (
"511 0 LINE SMOOTH",
"538 0 OFFCURVE",
"547 10 OFFCURVE",
"547 34 CURVE SMOOTH",
"547 61 LINE SMOOTH",
"547 86 OFFCURVE",
"538 97 OFFCURVE",
"511 97 CURVE SMOOTH",
"187 97 LINE",
"187 292 LINE",
"423 292 LINE SMOOTH",
"450 292 OFFCURVE",
"459 303 OFFCURVE",
"459 328 CURVE SMOOTH",
"459 353 LINE SMOOTH",
"459 378 OFFCURVE",
"450 388 OFFCURVE",
"423 388 CURVE SMOOTH",
"187 388 LINE",
"187 582 LINE",
"512 582 LINE SMOOTH",
"539 582 OFFCURVE",
"547 593 OFFCURVE",
"547 618 CURVE SMOOTH",
"547 645 LINE SMOOTH",
"547 670 OFFCURVE",
"539 680 OFFCURVE",
"512 680 CURVE SMOOTH",
"96 680 LINE SMOOTH",
"69 680 OFFCURVE",
"59 667 OFFCURVE",
"59 643 CURVE SMOOTH",
"59 36 LINE SMOOTH",
"59 12 OFFCURVE",
"69 0 OFFCURVE",
"96 0 CURVE SMOOTH"
);
},
{
closed = 1;
nodes = (
"186 865 LINE SMOOTH",
"203 865 OFFCURVE",
"208 876 OFFCURVE",
"203 890 CURVE SMOOTH",
"168 987 LINE SMOOTH",
"162 1005 OFFCURVE",
"157 1011 OFFCURVE",
"134 1011 CURVE SMOOTH",
"84 1011 LINE SMOOTH",
"63 1011 OFFCURVE",
"58 999 OFFCURVE",
"68 980 CURVE SMOOTH",
"117 887 LINE SMOOTH",
"127 869 OFFCURVE",
"133 865 OFFCURVE",
"156 865 CURVE SMOOTH"
);
},
{
closed = 1;
nodes = (
"204 735 LINE SMOOTH",
"226 735 OFFCURVE",
"232 739 OFFCURVE",
"243 753 CURVE SMOOTH",
"308 836 LINE",
"374 753 LINE SMOOTH",
"385 739 OFFCURVE",
"391 735 OFFCURVE",
"413 735 CURVE SMOOTH",
"458 735 LINE SMOOTH",
"479 735 OFFCURVE",
"487 749 OFFCURVE",
"472 767 CURVE SMOOTH",
"371 890 LINE SMOOTH",
"359 905 OFFCURVE",
"354 912 OFFCURVE",
"331 912 CURVE SMOOTH",
"286 912 LINE SMOOTH",
"263 912 OFFCURVE",
"258 904 OFFCURVE",
"246 890 CURVE SMOOTH",
"145 767 LINE SMOOTH",
"130 749 OFFCURVE",
"138 735 OFFCURVE",
"159 735 CURVE SMOOTH"
);
}
);
width = 576;
}
);
note = Ecircumflexgrave;
unicode = 1EC0;
},
{
glyphname = Ecircumflexhookabove;
lastChange = "2015-07-18 10:50:33 +0000";
layers = (
{
layerId = "082782A7-7ED4-4E0F-8549-8BA7EDA0D1AE";
name = Regular;
paths = (
{
closed = 1;
nodes = (
"511 0 LINE SMOOTH",
"538 0 OFFCURVE",
"547 10 OFFCURVE",
"547 34 CURVE SMOOTH",
"547 61 LINE SMOOTH",
"547 86 OFFCURVE",
"538 97 OFFCURVE",
"511 97 CURVE SMOOTH",
"187 97 LINE",
"187 292 LINE",
"423 292 LINE SMOOTH",
"450 292 OFFCURVE",
"459 303 OFFCURVE",
"459 328 CURVE SMOOTH",
"459 353 LINE SMOOTH",
"459 378 OFFCURVE",
"450 388 OFFCURVE",
"423 388 CURVE SMOOTH",
"187 388 LINE",
"187 582 LINE",
"512 582 LINE SMOOTH",
"539 582 OFFCURVE",
"547 593 OFFCURVE",
"547 618 CURVE SMOOTH",
"547 645 LINE SMOOTH",
"547 670 OFFCURVE",
"539 680 OFFCURVE",
"512 680 CURVE SMOOTH",
"96 680 LINE SMOOTH",
"69 680 OFFCURVE",
"59 667 OFFCURVE",
"59 643 CURVE SMOOTH",
"59 36 LINE SMOOTH",
"59 12 OFFCURVE",
"69 0 OFFCURVE",
"96 0 CURVE SMOOTH"
);
},
{
closed = 1;
nodes = (
"204 740 LINE SMOOTH",
"217 740 OFFCURVE",
"220 742 OFFCURVE",
"225 748 CURVE SMOOTH",
"299 840 LINE",
"374 748 LINE SMOOTH",
"379 742 OFFCURVE",
"382 740 OFFCURVE",
"395 740 CURVE SMOOTH",
"466 740 LINE SMOOTH",
"478 740 OFFCURVE",
"482 750 OFFCURVE",
"474 759 CURVE SMOOTH",
"362 891 LINE SMOOTH",
"350 906 OFFCURVE",
"345 912 OFFCURVE",
"322 912 CURVE SMOOTH",
"277 912 LINE SMOOTH",
"254 912 OFFCURVE",
"249 905 OFFCURVE",
"237 891 CURVE SMOOTH",
"125 759 LINE SMOOTH",
"117 750 OFFCURVE",
"121 740 OFFCURVE",
"133 740 CURVE SMOOTH"
);
},
{
closed = 1;
nodes = (
"462 855 LINE SMOOTH",
"475 855 OFFCURVE",
"482 862 OFFCURVE",
"482 875 CURVE SMOOTH",
"482 889 LINE",
"520 889 OFFCURVE",
"554 912 OFFCURVE",
"554 960 CURVE SMOOTH",
"554 1008 OFFCURVE",
"522 1035 OFFCURVE",
"457 1035 CURVE SMOOTH",
"425 1035 OFFCURVE",
"389 1028 OFFCURVE",
"368 1014 CURVE",
"364 1011 OFFCURVE",
"363 1009 OFFCURVE",
"365 1004 CURVE",
"383 968 LINE SMOOTH",
"385 964 OFFCURVE",
"387 964 OFFCURVE",
"391 966 CURVE",
"405 974 OFFCURVE",
"425 980 OFFCURVE",
"444 980 CURVE SMOOTH",
"467 980 OFFCURVE",
"478 973 OFFCURVE",
"478 957 CURVE SMOOTH",
"478 938 OFFCURVE",
"468 931 OFFCURVE",
"438 931 CURVE SMOOTH",
"417 931 OFFCURVE",
"407 922 OFFCURVE",
"407 903 CURVE SMOOTH",
"407 875 LINE SMOOTH",
"407 862 OFFCURVE",
"414 855 OFFCURVE",
"428 855 CURVE SMOOTH"
);
}
);
width = 583;
}
);
note = Ecircumflexhookabove;
unicode = 1EC2;
},
{
glyphname = Ecircumflextilde;
lastChange = "2015-07-18 10:50:32 +0000";
layers = (
{
layerId = "082782A7-7ED4-4E0F-8549-8BA7EDA0D1AE";
name = Regular;
paths = (
{
closed = 1;
nodes = (
"511 0 LINE SMOOTH",
"538 0 OFFCURVE",
"547 10 OFFCURVE",
"547 34 CURVE SMOOTH",
"547 61 LINE SMOOTH",
"547 86 OFFCURVE",
"538 97 OFFCURVE",
"511 97 CURVE SMOOTH",
"187 97 LINE",
"187 292 LINE",
"423 292 LINE SMOOTH",
"450 292 OFFCURVE",
"459 303 OFFCURVE",
"459 328 CURVE SMOOTH",
"459 353 LINE SMOOTH",
"459 378 OFFCURVE",
"450 388 OFFCURVE",
"423 388 CURVE SMOOTH",
"187 388 LINE",
"187 582 LINE",
"512 582 LINE SMOOTH",
"539 582 OFFCURVE",
"547 593 OFFCURVE",
"547 618 CURVE SMOOTH",
"547 645 LINE SMOOTH",
"547 670 OFFCURVE",
"539 680 OFFCURVE",
"512 680 CURVE SMOOTH",
"96 680 LINE SMOOTH",
"69 680 OFFCURVE",
"59 667 OFFCURVE",
"59 643 CURVE SMOOTH",
"59 36 LINE SMOOTH",
"59 12 OFFCURVE",
"69 0 OFFCURVE",
"96 0 CURVE SMOOTH"
);
},
{
closed = 1;
nodes = (
"220 740 LINE SMOOTH",
"233 740 OFFCURVE",
"236 742 OFFCURVE",
"241 748 CURVE SMOOTH",
"315 840 LINE",
"390 748 LINE SMOOTH",
"395 742 OFFCURVE",
"398 740 OFFCURVE",
"411 740 CURVE SMOOTH",
"482 740 LINE SMOOTH",
"494 740 OFFCURVE",
"498 750 OFFCURVE",
"490 759 CURVE SMOOTH",
"378 891 LINE SMOOTH",
"366 906 OFFCURVE",
"361 912 OFFCURVE",
"338 912 CURVE SMOOTH",
"293 912 LINE SMOOTH",
"270 912 OFFCURVE",
"265 905 OFFCURVE",
"253 891 CURVE SMOOTH",
"141 759 LINE SMOOTH",
"133 750 OFFCURVE",
"137 740 OFFCURVE",
"149 740 CURVE SMOOTH"
);
},
{
closed = 1;
nodes = (
"432 925 OFFCURVE",
"460 943 OFFCURVE",
"487 980 CURVE SMOOTH",
"501 999 OFFCURVE",
"500 1008 OFFCURVE",
"480 1024 CURVE",
"457 1041 OFFCURVE",
"446 1042 OFFCURVE",
"434 1026 CURVE SMOOTH",
"418 1005 OFFCURVE",
"407 998 OFFCURVE",
"384 998 CURVE SMOOTH",
"339 998 OFFCURVE",
"316 1041 OFFCURVE",
"250 1041 CURVE SMOOTH",
"208 1041 OFFCURVE",
"179 1019 OFFCURVE",
"155 985 CURVE SMOOTH",
"141 966 OFFCURVE",
"147 957 OFFCURVE",
"162 944 CURVE SMOOTH",
"183 927 OFFCURVE",
"196 924 OFFCURVE",
"208 939 CURVE SMOOTH",
"223 957 OFFCURVE",
"234 967 OFFCURVE",
"258 967 CURVE SMOOTH",
"302 967 OFFCURVE",
"332 925 OFFCURVE",
"388 925 CURVE SMOOTH"
);
}
);
width = 576;
}
);
note = Ecircumflextilde;
unicode = 1EC4;
},
{
glyphname = Edieresis;
lastChange = "2015-07-18 10:50:33 +0000";
layers = (
{
layerId = "082782A7-7ED4-4E0F-8549-8BA7EDA0D1AE";
name = Regular;
paths = (
{
closed = 1;
nodes = (
"511 0 LINE SMOOTH",
"538 0 OFFCURVE",
"547 10 OFFCURVE",
"547 34 CURVE SMOOTH",
"547 61 LINE SMOOTH",
"547 86 OFFCURVE",
"538 97 OFFCURVE",
"511 97 CURVE SMOOTH",
"187 97 LINE",
"187 292 LINE",
"423 292 LINE SMOOTH",
"450 292 OFFCURVE",
"459 303 OFFCURVE",
"459 328 CURVE SMOOTH",
"459 353 LINE SMOOTH",
"459 378 OFFCURVE",
"450 388 OFFCURVE",
"423 388 CURVE SMOOTH",
"187 388 LINE",
"187 582 LINE",
"512 582 LINE SMOOTH",
"539 582 OFFCURVE",
"547 593 OFFCURVE",
"547 618 CURVE SMOOTH",
"547 645 LINE SMOOTH",
"547 670 OFFCURVE",
"539 680 OFFCURVE",
"512 680 CURVE SMOOTH",
"96 680 LINE SMOOTH",
"69 680 OFFCURVE",
"59 667 OFFCURVE",
"59 643 CURVE SMOOTH",
"59 36 LINE SMOOTH",
"59 12 OFFCURVE",
"69 0 OFFCURVE",
"96 0 CURVE SMOOTH"
);
},
{
closed = 1;
nodes = (
"211 741 LINE SMOOTH",
"240 741 OFFCURVE",
"258 764 OFFCURVE",
"258 791 CURVE SMOOTH",
"258 810 LINE SMOOTH",
"258 837 OFFCURVE",
"239 859 OFFCURVE",
"211 859 CURVE SMOOTH",
"191 859 LINE SMOOTH",
"163 859 OFFCURVE",
"144 837 OFFCURVE",
"144 810 CURVE SMOOTH",
"144 791 LINE SMOOTH",
"144 764 OFFCURVE",
"163 741 OFFCURVE",
"191 741 CURVE SMOOTH"
);
},
{
closed = 1;
nodes = (
"408 741 LINE SMOOTH",
"437 741 OFFCURVE",
"455 764 OFFCURVE",
"455 791 CURVE SMOOTH",
"455 810 LINE SMOOTH",
"455 837 OFFCURVE",
"436 859 OFFCURVE",
"408 859 CURVE SMOOTH",
"388 859 LINE SMOOTH",
"361 859 OFFCURVE",
"341 837 OFFCURVE",
"341 810 CURVE SMOOTH",
"341 791 LINE SMOOTH",
"341 764 OFFCURVE",
"361 741 OFFCURVE",
"388 741 CURVE SMOOTH"
);
}
);
width = 576;
}
);
note = Edieresis;
unicode = 00CB;
},
{
glyphname = Edotaccent;
lastChange = "2015-07-18 10:50:32 +0000";
layers = (
{
layerId = "082782A7-7ED4-4E0F-8549-8BA7EDA0D1AE";
name = Regular;
paths = (
{
closed = 1;
nodes = (
"511 0 LINE SMOOTH",
"538 0 OFFCURVE",
"547 10 OFFCURVE",
"547 34 CURVE SMOOTH",
"547 61 LINE SMOOTH",
"547 86 OFFCURVE",
"538 97 OFFCURVE",
"511 97 CURVE SMOOTH",
"187 97 LINE",
"187 292 LINE",
"423 292 LINE SMOOTH",
"450 292 OFFCURVE",
"459 303 OFFCURVE",
"459 328 CURVE SMOOTH",
"459 353 LINE SMOOTH",
"459 378 OFFCURVE",
"450 388 OFFCURVE",
"423 388 CURVE SMOOTH",
"187 388 LINE",
"187 582 LINE",
"512 582 LINE SMOOTH",
"539 582 OFFCURVE",
"547 593 OFFCURVE",
"547 618 CURVE SMOOTH",
"547 645 LINE SMOOTH",
"547 670 OFFCURVE",
"539 680 OFFCURVE",
"512 680 CURVE SMOOTH",
"96 680 LINE SMOOTH",
"69 680 OFFCURVE",
"59 667 OFFCURVE",
"59 643 CURVE SMOOTH",
"59 36 LINE SMOOTH",
"59 12 OFFCURVE",
"69 0 OFFCURVE",
"96 0 CURVE SMOOTH"
);
},
{
closed = 1;
nodes = (
"314 771 LINE SMOOTH",
"342 771 OFFCURVE",
"361 794 OFFCURVE",
"361 821 CURVE SMOOTH",
"361 840 LINE SMOOTH",
"361 867 OFFCURVE",
"341 889 OFFCURVE",
"314 889 CURVE SMOOTH",
"293 889 LINE SMOOTH",
"266 889 OFFCURVE",
"246 867 OFFCURVE",
"246 840 CURVE SMOOTH",
"246 821 LINE SMOOTH",
"246 794 OFFCURVE",
"266 771 OFFCURVE",
"293 771 CURVE SMOOTH"
);
}
);
width = 576;
}
);
note = Edotaccent;
unicode = 0116;
},
{
glyphname = Edotbelow;
lastChange = "2015-07-18 10:50:33 +0000";
layers = (
{
layerId = "082782A7-7ED4-4E0F-8549-8BA7EDA0D1AE";
name = Regular;
paths = (
{
closed = 1;
nodes = (
"511 0 LINE SMOOTH",
"538 0 OFFCURVE",
"547 10 OFFCURVE",
"547 34 CURVE SMOOTH",
"547 61 LINE SMOOTH",
"547 86 OFFCURVE",
"538 97 OFFCURVE",
"511 97 CURVE SMOOTH",
"187 97 LINE",
"187 292 LINE",
"423 292 LINE SMOOTH",
"450 292 OFFCURVE",
"459 303 OFFCURVE",
"459 328 CURVE SMOOTH",
"459 353 LINE SMOOTH",
"459 378 OFFCURVE",
"450 388 OFFCURVE",
"423 388 CURVE SMOOTH",
"187 388 LINE",
"187 582 LINE",
"512 582 LINE SMOOTH",
"539 582 OFFCURVE",
"547 593 OFFCURVE",
"547 618 CURVE SMOOTH",
"547 645 LINE SMOOTH",
"547 670 OFFCURVE",
"539 680 OFFCURVE",
"512 680 CURVE SMOOTH",
"96 680 LINE SMOOTH",
"69 680 OFFCURVE",
"59 667 OFFCURVE",
"59 643 CURVE SMOOTH",
"59 36 LINE SMOOTH",
"59 12 OFFCURVE",
"69 0 OFFCURVE",
"96 0 CURVE SMOOTH"
);
},
{
closed = 1;
nodes = (
"285 -184 LINE SMOOTH",
"314 -184 OFFCURVE",
"332 -161 OFFCURVE",
"332 -134 CURVE SMOOTH",
"332 -115 LINE SMOOTH",
"332 -88 OFFCURVE",
"313 -66 OFFCURVE",
"285 -66 CURVE SMOOTH",
"265 -66 LINE SMOOTH",
"238 -66 OFFCURVE",
"218 -88 OFFCURVE",
"218 -115 CURVE SMOOTH",
"218 -134 LINE SMOOTH",
"218 -161 OFFCURVE",
"238 -184 OFFCURVE",
"265 -184 CURVE SMOOTH"
);
}
);
width = 576;
}
);
note = Edotbelow;
unicode = 1EB8;
},
{
glyphname = Egrave;
lastChange = "2015-07-18 10:50:32 +0000";
layers = (
{
layerId = "082782A7-7ED4-4E0F-8549-8BA7EDA0D1AE";
name = Regular;
paths = (
{
closed = 1;
nodes = (
"511 0 LINE SMOOTH",
"538 0 OFFCURVE",
"547 10 OFFCURVE",
"547 34 CURVE SMOOTH",
"547 61 LINE SMOOTH",
"547 86 OFFCURVE",
"538 97 OFFCURVE",
"511 97 CURVE SMOOTH",
"187 97 LINE",
"187 292 LINE",
"423 292 LINE SMOOTH",
"450 292 OFFCURVE",
"459 303 OFFCURVE",
"459 328 CURVE SMOOTH",
"459 353 LINE SMOOTH",
"459 378 OFFCURVE",
"450 388 OFFCURVE",
"423 388 CURVE SMOOTH",
"187 388 LINE",
"187 582 LINE",
"512 582 LINE SMOOTH",
"539 582 OFFCURVE",
"547 593 OFFCURVE",
"547 618 CURVE SMOOTH",
"547 645 LINE SMOOTH",
"547 670 OFFCURVE",
"539 680 OFFCURVE",
"512 680 CURVE SMOOTH",
"96 680 LINE SMOOTH",
"69 680 OFFCURVE",
"59 667 OFFCURVE",
"59 643 CURVE SMOOTH",
"59 36 LINE SMOOTH",
"59 12 OFFCURVE",
"69 0 OFFCURVE",
"96 0 CURVE SMOOTH"
);
},
{
closed = 1;
nodes = (
"350 753 LINE SMOOTH",
"371 753 OFFCURVE",
"376 764 OFFCURVE",
"370 781 CURVE SMOOTH",
"322 912 LINE SMOOTH",
"316 930 OFFCURVE",
"311 936 OFFCURVE",
"285 936 CURVE SMOOTH",
"212 936 LINE SMOOTH",
"190 936 OFFCURVE",
"180 925 OFFCURVE",
"191 904 CURVE SMOOTH",
"257 775 LINE SMOOTH",
"266 758 OFFCURVE",
"273 753 OFFCURVE",
"298 753 CURVE SMOOTH"
);
}
);
width = 576;
}
);
note = Egrave;
unicode = 00C8;
},
{
glyphname = Ehookabove;
lastChange = "2015-07-18 10:50:33 +0000";
layers = (
{
layerId = "082782A7-7ED4-4E0F-8549-8BA7EDA0D1AE";
name = Regular;
paths = (
{
closed = 1;
nodes = (
"511 0 LINE SMOOTH",
"538 0 OFFCURVE",
"547 10 OFFCURVE",
"547 34 CURVE SMOOTH",
"547 61 LINE SMOOTH",
"547 86 OFFCURVE",
"538 97 OFFCURVE",
"511 97 CURVE SMOOTH",
"187 97 LINE",
"187 292 LINE",
"423 292 LINE SMOOTH",
"450 292 OFFCURVE",
"459 303 OFFCURVE",
"459 328 CURVE SMOOTH",
"459 353 LINE SMOOTH",
"459 378 OFFCURVE",
"450 388 OFFCURVE",
"423 388 CURVE SMOOTH",
"187 388 LINE",
"187 582 LINE",
"512 582 LINE SMOOTH",
"539 582 OFFCURVE",
"547 593 OFFCURVE",
"547 618 CURVE SMOOTH",
"547 645 LINE SMOOTH",
"547 670 OFFCURVE",
"539 680 OFFCURVE",
"512 680 CURVE SMOOTH",
"96 680 LINE SMOOTH",
"69 680 OFFCURVE",
"59 667 OFFCURVE",
"59 643 CURVE SMOOTH",
"59 36 LINE SMOOTH",
"59 12 OFFCURVE",
"69 0 OFFCURVE",
"96 0 CURVE SMOOTH"
);
},
{
closed = 1;
nodes = (
"303 731 LINE SMOOTH",
"319 731 OFFCURVE",
"326 739 OFFCURVE",
"326 754 CURVE SMOOTH",
"326 776 LINE",
"377 776 OFFCURVE",
"424 811 OFFCURVE",
"424 872 CURVE SMOOTH",
"424 933 OFFCURVE",
"381 970 OFFCURVE",
"292 970 CURVE SMOOTH",
"252 970 OFFCURVE",
"206 960 OFFCURVE",
"179 942 CURVE SMOOTH",
"173 938 OFFCURVE",
"173 936 OFFCURVE",
"175 930 CURVE",
"196 884 LINE",
"198 880 OFFCURVE",
"201 880 OFFCURVE",
"206 882 CURVE",
"230 894 OFFCURVE",
"252 901 OFFCURVE",
"281 901 CURVE SMOOTH",
"319 901 OFFCURVE",
"333 891 OFFCURVE",
"333 868 CURVE SMOOTH",
"333 841 OFFCURVE",
"321 830 OFFCURVE",
"273 830 CURVE SMOOTH",
"247 830 OFFCURVE",
"238 820 OFFCURVE",
"238 799 CURVE SMOOTH",
"238 754 LINE SMOOTH",
"238 739 OFFCURVE",
"245 731 OFFCURVE",
"261 731 CURVE SMOOTH"
);
}
);
width = 576;
}
);
note = Ehookabove;
unicode = 1EBA;
},
{
glyphname = Emacron;
lastChange = "2015-07-18 10:50:34 +0000";
layers = (
{
layerId = "082782A7-7ED4-4E0F-8549-8BA7EDA0D1AE";
name = Regular;
paths = (
{
closed = 1;
nodes = (
"511 0 LINE SMOOTH",
"538 0 OFFCURVE",
"547 10 OFFCURVE",
"547 34 CURVE SMOOTH",
"547 61 LINE SMOOTH",
"547 86 OFFCURVE",
"538 97 OFFCURVE",
"511 97 CURVE SMOOTH",
"187 97 LINE",
"187 292 LINE",
"423 292 LINE SMOOTH",
"450 292 OFFCURVE",
"459 303 OFFCURVE",
"459 328 CURVE SMOOTH",
"459 353 LINE SMOOTH",
"459 378 OFFCURVE",
"450 388 OFFCURVE",
"423 388 CURVE SMOOTH",
"187 388 LINE",
"187 582 LINE",
"512 582 LINE SMOOTH",
"539 582 OFFCURVE",
"547 593 OFFCURVE",
"547 618 CURVE SMOOTH",
"547 645 LINE SMOOTH",
"547 670 OFFCURVE",
"539 680 OFFCURVE",
"512 680 CURVE SMOOTH",
"96 680 LINE SMOOTH",
"69 680 OFFCURVE",
"59 667 OFFCURVE",
"59 643 CURVE SMOOTH",
"59 36 LINE SMOOTH",
"59 12 OFFCURVE",
"69 0 OFFCURVE",
"96 0 CURVE SMOOTH"
);
},
{
closed = 1;
nodes = (
"432 777 LINE SMOOTH",
"459 777 OFFCURVE",
"468 787 OFFCURVE",
"468 812 CURVE SMOOTH",
"468 838 LINE SMOOTH",
"468 863 OFFCURVE",
"459 874 OFFCURVE",
"432 874 CURVE SMOOTH",
"159 874 LINE SMOOTH",
"132 874 OFFCURVE",
"123 863 OFFCURVE",
"123 838 CURVE SMOOTH",
"123 812 LINE SMOOTH",
"123 787 OFFCURVE",
"132 777 OFFCURVE",
"159 777 CURVE SMOOTH"
);
}
);
width = 576;
}
);
note = Emacron;
unicode = 0112;
},
{
glyphname = Eogonek;
lastChange = "2015-07-18 10:50:34 +0000";
layers = (
{
layerId = "082782A7-7ED4-4E0F-8549-8BA7EDA0D1AE";
name = Regular;
paths = (
{
closed = 1;
nodes = (
"511 0 LINE SMOOTH",
"538 0 OFFCURVE",
"547 10 OFFCURVE",
"547 34 CURVE SMOOTH",
"547 61 LINE SMOOTH",
"547 86 OFFCURVE",
"538 97 OFFCURVE",
"511 97 CURVE SMOOTH",
"187 97 LINE",
"187 292 LINE",
"423 292 LINE SMOOTH",
"450 292 OFFCURVE",
"459 303 OFFCURVE",
"459 328 CURVE SMOOTH",
"459 353 LINE SMOOTH",
"459 378 OFFCURVE",
"450 388 OFFCURVE",
"423 388 CURVE SMOOTH",
"187 388 LINE",
"187 582 LINE",
"512 582 LINE SMOOTH",
"539 582 OFFCURVE",
"547 593 OFFCURVE",
"547 618 CURVE SMOOTH",
"547 645 LINE SMOOTH",
"547 670 OFFCURVE",
"539 680 OFFCURVE",
"512 680 CURVE SMOOTH",
"96 680 LINE SMOOTH",
"69 680 OFFCURVE",
"59 667 OFFCURVE",
"59 643 CURVE SMOOTH",
"59 36 LINE SMOOTH",
"59 12 OFFCURVE",
"69 0 OFFCURVE",
"96 0 CURVE SMOOTH"
);
},
{
closed = 1;
nodes = (
"475 -208 OFFCURVE",
"500 -205 OFFCURVE",
"518 -196 CURVE SMOOTH",
"531 -190 OFFCURVE",
"531 -186 OFFCURVE",
"528 -179 CURVE SMOOTH",
"513 -146 LINE",
"509 -138 OFFCURVE",
"506 -138 OFFCURVE",
"499 -141 CURVE",
"493 -144 OFFCURVE",
"486 -145 OFFCURVE",
"477 -145 CURVE SMOOTH",
"461 -145 OFFCURVE",
"453 -136 OFFCURVE",
"453 -118 CURVE SMOOTH",
"453 -89 OFFCURVE",
"465 -66 OFFCURVE",
"512 -10 CURVE SMOOTH",
"519 -2 OFFCURVE",
"514 6 OFFCURVE",
"502 6 CURVE SMOOTH",
"443 6 LINE SMOOTH",
"430 6 OFFCURVE",
"426 2 OFFCURVE",
"418 -7 CURVE SMOOTH",
"374 -57 OFFCURVE",
"357 -94 OFFCURVE",
"357 -130 CURVE SMOOTH",
"357 -172 OFFCURVE",
"384 -208 OFFCURVE",
"444 -208 CURVE SMOOTH"
);
}
);
width = 576;
}
);
note = Eogonek;
unicode = 0118;
},
{
glyphname = Etilde;
lastChange = "2015-07-18 10:50:33 +0000";
layers = (
{
layerId = "082782A7-7ED4-4E0F-8549-8BA7EDA0D1AE";
name = Regular;
paths = (
{
closed = 1;
nodes = (
"511 0 LINE SMOOTH",
"538 0 OFFCURVE",
"547 10 OFFCURVE",
"547 34 CURVE SMOOTH",
"547 61 LINE SMOOTH",
"547 86 OFFCURVE",
"538 97 OFFCURVE",
"511 97 CURVE SMOOTH",
"187 97 LINE",
"187 292 LINE",
"423 292 LINE SMOOTH",
"450 292 OFFCURVE",
"459 303 OFFCURVE",
"459 328 CURVE SMOOTH",
"459 353 LINE SMOOTH",
"459 378 OFFCURVE",
"450 388 OFFCURVE",
"423 388 CURVE SMOOTH",
"187 388 LINE",
"187 582 LINE",
"512 582 LINE SMOOTH",
"539 582 OFFCURVE",
"547 593 OFFCURVE",
"547 618 CURVE SMOOTH",
"547 645 LINE SMOOTH",
"547 670 OFFCURVE",
"539 680 OFFCURVE",
"512 680 CURVE SMOOTH",
"96 680 LINE SMOOTH",
"69 680 OFFCURVE",
"59 667 OFFCURVE",
"59 643 CURVE SMOOTH",
"59 36 LINE SMOOTH",
"59 12 OFFCURVE",
"69 0 OFFCURVE",
"96 0 CURVE SMOOTH"
);
},
{
closed = 1;
nodes = (
"473 754 OFFCURVE",
"504 777 OFFCURVE",
"536 825 CURVE",
"552 847 OFFCURVE",
"550 860 OFFCURVE",
"524 880 CURVE SMOOTH",
"499 900 OFFCURVE",
"483 902 OFFCURVE",
"470 885 CURVE SMOOTH",
"449 857 OFFCURVE",
"435 848 OFFCURVE",
"408 848 CURVE SMOOTH",
"351 848 OFFCURVE",
"310 900 OFFCURVE",
"229 900 CURVE SMOOTH",
"179 900 OFFCURVE",
"149 872 OFFCURVE",
"121 837 CURVE SMOOTH",
"105 816 OFFCURVE",
"106 803 OFFCURVE",
"128 784 CURVE SMOOTH",
"152 763 OFFCURVE",
"168 759 OFFCURVE",
"181 775 CURVE",
"201 797 OFFCURVE",
"212 807 OFFCURVE",
"240 807 CURVE SMOOTH",
"293 807 OFFCURVE",
"348 754 OFFCURVE",
"415 754 CURVE SMOOTH"
);
}
);
width = 576;
}
);
note = Etilde;
unicode = 1EBC;
},
{
glyphname = F;
lastChange = "2015-07-18 10:50:28 +0000";
layers = (
{
layerId = "082782A7-7ED4-4E0F-8549-8BA7EDA0D1AE";
name = Regular;
paths = (
{
closed = 1;
nodes = (
"149 0 LINE SMOOTH",
"177 0 OFFCURVE",
"187 12 OFFCURVE",
"187 36 CURVE SMOOTH",
"187 291 LINE",
"423 291 LINE SMOOTH",
"450 291 OFFCURVE",
"459 302 OFFCURVE",
"459 327 CURVE SMOOTH",
"459 354 LINE SMOOTH",
"459 379 OFFCURVE",
"450 389 OFFCURVE",
"423 389 CURVE SMOOTH",
"187 389 LINE",
"187 582 LINE",
"512 582 LINE SMOOTH",
"539 582 OFFCURVE",
"547 593 OFFCURVE",
"547 618 CURVE SMOOTH",
"547 645 LINE SMOOTH",
"547 670 OFFCURVE",
"539 680 OFFCURVE",
"512 680 CURVE SMOOTH",
"96 680 LINE SMOOTH",
"69 680 OFFCURVE",
"59 667 OFFCURVE",
"59 643 CURVE SMOOTH",
"59 36 LINE SMOOTH",
"59 12 OFFCURVE",
"69 0 OFFCURVE",
"96 0 CURVE SMOOTH"
);
}
);
width = 566;
}
);
note = F;
unicode = 0046;
},
{
glyphname = G;
lastChange = "2015-07-18 10:50:28 +0000";
layers = (
{
layerId = "082782A7-7ED4-4E0F-8549-8BA7EDA0D1AE";
name = Regular;
paths = (
{
closed = 1;
nodes = (
"497 -15 OFFCURVE",
"583 4 OFFCURVE",
"645 43 CURVE SMOOTH",
"659 52 OFFCURVE",
"661 60 OFFCURVE",
"661 79 CURVE SMOOTH",
"661 343 LINE SMOOTH",
"661 371 OFFCURVE",
"651 386 OFFCURVE",
"620 386 CURVE SMOOTH",
"409 386 LINE SMOOTH",
"382 386 OFFCURVE",
"373 377 OFFCURVE",
"373 352 CURVE SMOOTH",
"373 326 LINE SMOOTH",
"373 301 OFFCURVE",
"382 290 OFFCURVE",
"409 290 CURVE SMOOTH",
"541 290 LINE",
"541 105 LINE",
"508 89 OFFCURVE",
"453 80 OFFCURVE",
"401 80 CURVE SMOOTH",
"261 80 OFFCURVE",
"165 158 OFFCURVE",
"165 340 CURVE SMOOTH",
"165 521 OFFCURVE",
"264 600 OFFCURVE",
"409 600 CURVE SMOOTH",
"481 600 OFFCURVE",
"535 582 OFFCURVE",
"571 562 CURVE SMOOTH",
"584 555 OFFCURVE",
"589 555 OFFCURVE",
"596 566 CURVE",
"625 616 LINE SMOOTH",
"632 628 OFFCURVE",
"631 634 OFFCURVE",
"620 641 CURVE SMOOTH",
"567 676 OFFCURVE",
"485 695 OFFCURVE",
"395 695 CURVE SMOOTH",
"170 695 OFFCURVE",
"39 568 OFFCURVE",
"39 340 CURVE SMOOTH",
"39 111 OFFCURVE",
"170 -15 OFFCURVE",
"395 -15 CURVE SMOOTH"
);
}
);
width = 700;
}
);
note = G;
unicode = 0047;
},
{
glyphname = Gbreve;
lastChange = "2015-07-18 10:50:33 +0000";
layers = (
{
layerId = "082782A7-7ED4-4E0F-8549-8BA7EDA0D1AE";
name = Regular;
paths = (
{
closed = 1;
nodes = (
"497 -15 OFFCURVE",
"583 4 OFFCURVE",
"645 43 CURVE SMOOTH",
"659 52 OFFCURVE",
"661 60 OFFCURVE",
"661 79 CURVE SMOOTH",
"661 343 LINE SMOOTH",
"661 371 OFFCURVE",
"651 386 OFFCURVE",
"620 386 CURVE SMOOTH",
"409 386 LINE SMOOTH",
"382 386 OFFCURVE",
"373 377 OFFCURVE",
"373 352 CURVE SMOOTH",
"373 326 LINE SMOOTH",
"373 301 OFFCURVE",
"382 290 OFFCURVE",
"409 290 CURVE SMOOTH",
"541 290 LINE",
"541 105 LINE",
"508 89 OFFCURVE",
"453 80 OFFCURVE",
"401 80 CURVE SMOOTH",
"261 80 OFFCURVE",
"165 158 OFFCURVE",
"165 340 CURVE SMOOTH",
"165 521 OFFCURVE",
"264 600 OFFCURVE",
"409 600 CURVE SMOOTH",
"481 600 OFFCURVE",
"535 582 OFFCURVE",
"571 562 CURVE SMOOTH",
"584 555 OFFCURVE",
"589 555 OFFCURVE",
"596 566 CURVE",
"625 616 LINE SMOOTH",
"632 628 OFFCURVE",
"631 634 OFFCURVE",
"620 641 CURVE SMOOTH",
"567 676 OFFCURVE",
"485 695 OFFCURVE",
"395 695 CURVE SMOOTH",
"170 695 OFFCURVE",
"39 568 OFFCURVE",
"39 340 CURVE SMOOTH",
"39 111 OFFCURVE",
"170 -15 OFFCURVE",
"395 -15 CURVE SMOOTH"
);
},
{
closed = 1;
nodes = (
"501 732 OFFCURVE",
"555 801 OFFCURVE",
"555 895 CURVE SMOOTH",
"555 906 OFFCURVE",
"549 913 OFFCURVE",
"539 913 CURVE SMOOTH",
"473 913 LINE SMOOTH",
"459 913 OFFCURVE",
"456 906 OFFCURVE",
"456 894 CURVE SMOOTH",
"456 850 OFFCURVE",
"441 819 OFFCURVE",
"390 819 CURVE SMOOTH",
"338 819 OFFCURVE",
"324 850 OFFCURVE",
"324 894 CURVE SMOOTH",
"324 906 OFFCURVE",
"321 913 OFFCURVE",
"307 913 CURVE SMOOTH",
"241 913 LINE SMOOTH",
"231 913 OFFCURVE",
"225 906 OFFCURVE",
"225 895 CURVE SMOOTH",
"225 801 OFFCURVE",
"277 732 OFFCURVE",
"390 732 CURVE SMOOTH"
);
}
);
width = 700;
}
);
note = Gbreve;
unicode = 011E;
},
{
glyphname = Gcaron;
lastChange = "2015-07-18 10:50:34 +0000";
layers = (
{
layerId = "082782A7-7ED4-4E0F-8549-8BA7EDA0D1AE";
name = Regular;
paths = (
{
closed = 1;
nodes = (
"497 -15 OFFCURVE",
"583 4 OFFCURVE",
"645 43 CURVE SMOOTH",
"659 52 OFFCURVE",
"661 60 OFFCURVE",
"661 79 CURVE SMOOTH",
"661 343 LINE SMOOTH",
"661 371 OFFCURVE",
"651 386 OFFCURVE",
"620 386 CURVE SMOOTH",
"409 386 LINE SMOOTH",
"382 386 OFFCURVE",
"373 377 OFFCURVE",
"373 352 CURVE SMOOTH",
"373 326 LINE SMOOTH",
"373 301 OFFCURVE",
"382 290 OFFCURVE",
"409 290 CURVE SMOOTH",
"541 290 LINE",
"541 105 LINE",
"508 89 OFFCURVE",
"453 80 OFFCURVE",
"401 80 CURVE SMOOTH",
"261 80 OFFCURVE",
"165 158 OFFCURVE",
"165 340 CURVE SMOOTH",
"165 521 OFFCURVE",
"264 600 OFFCURVE",
"409 600 CURVE SMOOTH",
"481 600 OFFCURVE",
"535 582 OFFCURVE",
"571 562 CURVE SMOOTH",
"584 555 OFFCURVE",
"589 555 OFFCURVE",
"596 566 CURVE",
"625 616 LINE SMOOTH",
"632 628 OFFCURVE",
"631 634 OFFCURVE",
"620 641 CURVE SMOOTH",
"567 676 OFFCURVE",
"485 695 OFFCURVE",
"395 695 CURVE SMOOTH",
"170 695 OFFCURVE",
"39 568 OFFCURVE",
"39 340 CURVE SMOOTH",
"39 111 OFFCURVE",
"170 -15 OFFCURVE",
"395 -15 CURVE SMOOTH"
);
},
{
closed = 1;
nodes = (
"425 742 LINE SMOOTH",
"448 742 OFFCURVE",
"452 748 OFFCURVE",
"463 763 CURVE SMOOTH",
"567 904 LINE SMOOTH",
"581 922 OFFCURVE",
"577 936 OFFCURVE",
"556 936 CURVE SMOOTH",
"504 936 LINE SMOOTH",
"479 936 OFFCURVE",
"474 932 OFFCURVE",
"465 917 CURVE",
"397 816 LINE",
"328 917 LINE SMOOTH",
"318 932 OFFCURVE",
"313 936 OFFCURVE",
"289 936 CURVE SMOOTH",
"236 936 LINE SMOOTH",
"216 936 OFFCURVE",
"212 923 OFFCURVE",
"226 904 CURVE SMOOTH",
"330 763 LINE",
"342 748 OFFCURVE",
"345 742 OFFCURVE",
"368 742 CURVE SMOOTH"
);
}
);
width = 700;
}
);
note = Gcaron;
unicode = 01E6;
},
{
glyphname = Gcircumflex;
lastChange = "2015-07-18 10:50:34 +0000";
layers = (
{
layerId = "082782A7-7ED4-4E0F-8549-8BA7EDA0D1AE";
name = Regular;
paths = (
{
closed = 1;
nodes = (
"497 -15 OFFCURVE",
"583 4 OFFCURVE",
"645 43 CURVE SMOOTH",
"659 52 OFFCURVE",
"661 60 OFFCURVE",
"661 79 CURVE SMOOTH",
"661 343 LINE SMOOTH",
"661 371 OFFCURVE",
"651 386 OFFCURVE",
"620 386 CURVE SMOOTH",
"409 386 LINE SMOOTH",
"382 386 OFFCURVE",
"373 377 OFFCURVE",
"373 352 CURVE SMOOTH",
"373 326 LINE SMOOTH",
"373 301 OFFCURVE",
"382 290 OFFCURVE",
"409 290 CURVE SMOOTH",
"541 290 LINE",
"541 105 LINE",
"508 89 OFFCURVE",
"453 80 OFFCURVE",
"401 80 CURVE SMOOTH",
"261 80 OFFCURVE",
"165 158 OFFCURVE",
"165 340 CURVE SMOOTH",
"165 521 OFFCURVE",
"264 600 OFFCURVE",
"409 600 CURVE SMOOTH",
"481 600 OFFCURVE",
"535 582 OFFCURVE",
"571 562 CURVE SMOOTH",
"584 555 OFFCURVE",
"589 555 OFFCURVE",
"596 566 CURVE",
"625 616 LINE SMOOTH",
"632 628 OFFCURVE",
"631 634 OFFCURVE",
"620 641 CURVE SMOOTH",
"567 676 OFFCURVE",
"485 695 OFFCURVE",
"395 695 CURVE SMOOTH",
"170 695 OFFCURVE",
"39 568 OFFCURVE",
"39 340 CURVE SMOOTH",
"39 111 OFFCURVE",
"170 -15 OFFCURVE",
"395 -15 CURVE SMOOTH"
);
},
{
closed = 1;
nodes = (
"285 726 LINE SMOOTH",
"309 726 OFFCURVE",
"316 733 OFFCURVE",
"325 747 CURVE SMOOTH",
"393 847 LINE",
"460 747 LINE SMOOTH",
"470 733 OFFCURVE",
"476 726 OFFCURVE",
"501 726 CURVE SMOOTH",
"548 726 LINE SMOOTH",
"568 726 OFFCURVE",
"577 739 OFFCURVE",
"563 758 CURVE SMOOTH",
"459 899 LINE SMOOTH",
"448 914 OFFCURVE",
"444 921 OFFCURVE",
"421 921 CURVE SMOOTH",
"364 921 LINE SMOOTH",
"341 921 OFFCURVE",
"338 914 OFFCURVE",
"326 899 CURVE",
"222 758 LINE SMOOTH",
"208 739 OFFCURVE",
"217 726 OFFCURVE",
"238 726 CURVE SMOOTH"
);
}
);
width = 700;
}
);
note = Gcircumflex;
unicode = 011C;
},
{
glyphname = Gcommaaccent;
lastChange = "2015-07-18 10:50:34 +0000";
layers = (
{
layerId = "082782A7-7ED4-4E0F-8549-8BA7EDA0D1AE";
name = Regular;
paths = (
{
closed = 1;
nodes = (
"497 -15 OFFCURVE",
"583 4 OFFCURVE",
"645 43 CURVE SMOOTH",
"659 52 OFFCURVE",
"661 60 OFFCURVE",
"661 79 CURVE SMOOTH",
"661 343 LINE SMOOTH",
"661 371 OFFCURVE",
"651 386 OFFCURVE",
"620 386 CURVE SMOOTH",
"409 386 LINE SMOOTH",
"382 386 OFFCURVE",
"373 377 OFFCURVE",
"373 352 CURVE SMOOTH",
"373 326 LINE SMOOTH",
"373 301 OFFCURVE",
"382 290 OFFCURVE",
"409 290 CURVE SMOOTH",
"541 290 LINE",
"541 105 LINE",
"508 89 OFFCURVE",
"453 80 OFFCURVE",
"401 80 CURVE SMOOTH",
"261 80 OFFCURVE",
"165 158 OFFCURVE",
"165 340 CURVE SMOOTH",
"165 521 OFFCURVE",
"264 600 OFFCURVE",
"409 600 CURVE SMOOTH",
"481 600 OFFCURVE",
"535 582 OFFCURVE",
"571 562 CURVE SMOOTH",
"584 555 OFFCURVE",
"589 555 OFFCURVE",
"596 566 CURVE",
"625 616 LINE SMOOTH",
"632 628 OFFCURVE",
"631 634 OFFCURVE",
"620 641 CURVE SMOOTH",
"567 676 OFFCURVE",
"485 695 OFFCURVE",
"395 695 CURVE SMOOTH",
"170 695 OFFCURVE",
"39 568 OFFCURVE",
"39 340 CURVE SMOOTH",
"39 111 OFFCURVE",
"170 -15 OFFCURVE",
"395 -15 CURVE SMOOTH"
);
},
{
closed = 1;
nodes = (
"372 -238 LINE SMOOTH",
"389 -238 OFFCURVE",
"397 -232 OFFCURVE",
"401 -221 CURVE",
"466 -69 LINE SMOOTH",
"476 -46 OFFCURVE",
"472 -36 OFFCURVE",
"446 -36 CURVE SMOOTH",
"394 -36 LINE SMOOTH",
"372 -36 OFFCURVE",
"364 -41 OFFCURVE",
"358 -62 CURVE SMOOTH",
"312 -213 LINE SMOOTH",
"307 -228 OFFCURVE",
"310 -238 OFFCURVE",
"328 -238 CURVE SMOOTH"
);
}
);
width = 700;
}
);
note = Gcommaaccent;
unicode = 0122;
},
{
glyphname = Gdotaccent;
lastChange = "2015-07-18 10:50:33 +0000";
layers = (
{
layerId = "082782A7-7ED4-4E0F-8549-8BA7EDA0D1AE";
name = Regular;
paths = (
{
closed = 1;
nodes = (
"497 -15 OFFCURVE",
"583 4 OFFCURVE",
"645 43 CURVE SMOOTH",
"659 52 OFFCURVE",
"661 60 OFFCURVE",
"661 79 CURVE SMOOTH",
"661 343 LINE SMOOTH",
"661 371 OFFCURVE",
"651 386 OFFCURVE",
"620 386 CURVE SMOOTH",
"409 386 LINE SMOOTH",
"382 386 OFFCURVE",
"373 377 OFFCURVE",
"373 352 CURVE SMOOTH",
"373 326 LINE SMOOTH",
"373 301 OFFCURVE",
"382 290 OFFCURVE",
"409 290 CURVE SMOOTH",
"541 290 LINE",
"541 105 LINE",
"508 89 OFFCURVE",
"453 80 OFFCURVE",
"401 80 CURVE SMOOTH",
"261 80 OFFCURVE",
"165 158 OFFCURVE",
"165 340 CURVE SMOOTH",
"165 521 OFFCURVE",
"264 600 OFFCURVE",
"409 600 CURVE SMOOTH",
"481 600 OFFCURVE",
"535 582 OFFCURVE",
"571 562 CURVE SMOOTH",
"584 555 OFFCURVE",
"589 555 OFFCURVE",
"596 566 CURVE",
"625 616 LINE SMOOTH",
"632 628 OFFCURVE",
"631 634 OFFCURVE",
"620 641 CURVE SMOOTH",
"567 676 OFFCURVE",
"485 695 OFFCURVE",
"395 695 CURVE SMOOTH",
"170 695 OFFCURVE",
"39 568 OFFCURVE",
"39 340 CURVE SMOOTH",
"39 111 OFFCURVE",
"170 -15 OFFCURVE",
"395 -15 CURVE SMOOTH"
);
},
{
closed = 1;
nodes = (
"399 747 LINE SMOOTH",
"427 747 OFFCURVE",
"446 770 OFFCURVE",
"446 797 CURVE SMOOTH",
"446 816 LINE SMOOTH",
"446 843 OFFCURVE",
"426 865 OFFCURVE",
"399 865 CURVE SMOOTH",
"378 865 LINE SMOOTH",
"351 865 OFFCURVE",
"331 843 OFFCURVE",
"331 816 CURVE SMOOTH",
"331 797 LINE SMOOTH",
"331 770 OFFCURVE",
"351 747 OFFCURVE",
"378 747 CURVE SMOOTH"
);
}
);
width = 700;
}
);
note = Gdotaccent;
unicode = 0120;
},
{
glyphname = Gmacron;
lastChange = "2015-07-18 10:50:33 +0000";
layers = (
{
layerId = "082782A7-7ED4-4E0F-8549-8BA7EDA0D1AE";
name = Regular;
paths = (
{
closed = 1;
nodes = (
"497 -15 OFFCURVE",
"583 4 OFFCURVE",
"645 43 CURVE SMOOTH",
"659 52 OFFCURVE",
"661 60 OFFCURVE",
"661 79 CURVE SMOOTH",
"661 343 LINE SMOOTH",
"661 371 OFFCURVE",
"651 386 OFFCURVE",
"620 386 CURVE SMOOTH",
"409 386 LINE SMOOTH",
"382 386 OFFCURVE",
"373 377 OFFCURVE",
"373 352 CURVE SMOOTH",
"373 326 LINE SMOOTH",
"373 301 OFFCURVE",
"382 290 OFFCURVE",
"409 290 CURVE SMOOTH",
"541 290 LINE",
"541 105 LINE",
"508 89 OFFCURVE",
"453 80 OFFCURVE",
"401 80 CURVE SMOOTH",
"261 80 OFFCURVE",
"165 158 OFFCURVE",
"165 340 CURVE SMOOTH",
"165 521 OFFCURVE",
"264 600 OFFCURVE",
"409 600 CURVE SMOOTH",
"481 600 OFFCURVE",
"535 582 OFFCURVE",
"571 562 CURVE SMOOTH",
"584 555 OFFCURVE",
"589 555 OFFCURVE",
"596 566 CURVE",
"625 616 LINE SMOOTH",
"632 628 OFFCURVE",
"631 634 OFFCURVE",
"620 641 CURVE SMOOTH",
"567 676 OFFCURVE",
"485 695 OFFCURVE",
"395 695 CURVE SMOOTH",
"170 695 OFFCURVE",
"39 568 OFFCURVE",
"39 340 CURVE SMOOTH",
"39 111 OFFCURVE",
"170 -15 OFFCURVE",
"395 -15 CURVE SMOOTH"
);
},
{
closed = 1;
nodes = (
"515 765 LINE SMOOTH",
"542 765 OFFCURVE",
"551 775 OFFCURVE",
"551 800 CURVE SMOOTH",
"551 826 LINE SMOOTH",
"551 851 OFFCURVE",
"542 862 OFFCURVE",
"515 862 CURVE SMOOTH",
"242 862 LINE SMOOTH",
"215 862 OFFCURVE",
"206 851 OFFCURVE",
"206 826 CURVE SMOOTH",
"206 800 LINE SMOOTH",
"206 775 OFFCURVE",
"215 765 OFFCURVE",
"242 765 CURVE SMOOTH"
);
}
);
width = 700;
}
);
note = Gmacron;
unicode = 1E20;
},
{
glyphname = H;
lastChange = "2015-07-18 10:50:28 +0000";
layers = (
{
layerId = "082782A7-7ED4-4E0F-8549-8BA7EDA0D1AE";
name = Regular;
paths = (
{
closed = 1;
nodes = (
"149 0 LINE SMOOTH",
"177 0 OFFCURVE",
"187 12 OFFCURVE",
"187 36 CURVE SMOOTH",
"187 294 LINE",
"515 294 LINE",
"515 36 LINE SMOOTH",
"515 12 OFFCURVE",
"525 0 OFFCURVE",
"553 0 CURVE SMOOTH",
"605 0 LINE SMOOTH",
"633 0 OFFCURVE",
"643 12 OFFCURVE",
"643 36 CURVE SMOOTH",
"643 643 LINE SMOOTH",
"643 667 OFFCURVE",
"633 680 OFFCURVE",
"605 680 CURVE SMOOTH",
"553 680 LINE SMOOTH",
"525 680 OFFCURVE",
"515 667 OFFCURVE",
"515 643 CURVE SMOOTH",
"515 391 LINE",
"187 391 LINE",
"187 643 LINE SMOOTH",
"187 667 OFFCURVE",
"177 680 OFFCURVE",
"149 680 CURVE SMOOTH",
"96 680 LINE SMOOTH",
"69 680 OFFCURVE",
"59 667 OFFCURVE",
"59 643 CURVE SMOOTH",
"59 36 LINE SMOOTH",
"59 12 OFFCURVE",
"69 0 OFFCURVE",
"96 0 CURVE SMOOTH"
);
}
);
width = 702;
}
);
note = H;
unicode = 0048;
},
{
glyphname = Hbar;
lastChange = "2015-07-18 10:50:33 +0000";
layers = (
{
layerId = "082782A7-7ED4-4E0F-8549-8BA7EDA0D1AE";
name = Regular;
paths = (
{
closed = 1;
nodes = (
"169 0 LINE SMOOTH",
"197 0 OFFCURVE",
"207 12 OFFCURVE",
"207 36 CURVE SMOOTH",
"207 294 LINE",
"535 294 LINE",
"535 36 LINE SMOOTH",
"535 12 OFFCURVE",
"545 0 OFFCURVE",
"573 0 CURVE SMOOTH",
"625 0 LINE SMOOTH",
"653 0 OFFCURVE",
"663 12 OFFCURVE",
"663 36 CURVE SMOOTH",
"663 643 LINE SMOOTH",
"663 667 OFFCURVE",
"653 680 OFFCURVE",
"625 680 CURVE SMOOTH",
"573 680 LINE SMOOTH",
"545 680 OFFCURVE",
"535 667 OFFCURVE",
"535 643 CURVE SMOOTH",
"535 391 LINE",
"207 391 LINE",
"207 643 LINE SMOOTH",
"207 667 OFFCURVE",
"197 680 OFFCURVE",
"169 680 CURVE SMOOTH",
"116 680 LINE SMOOTH",
"89 680 OFFCURVE",
"79 667 OFFCURVE",
"79 643 CURVE SMOOTH",
"79 36 LINE SMOOTH",
"79 12 OFFCURVE",
"89 0 OFFCURVE",
"116 0 CURVE SMOOTH"
);
},
{
closed = 1;
nodes = (
"676 494 LINE SMOOTH",
"698 494 OFFCURVE",
"705 499 OFFCURVE",
"705 521 CURVE SMOOTH",
"705 550 LINE SMOOTH",
"705 571 OFFCURVE",
"698 578 OFFCURVE",
"676 578 CURVE SMOOTH",
"57 578 LINE SMOOTH",
"36 578 OFFCURVE",
"28 571 OFFCURVE",
"28 550 CURVE SMOOTH",
"28 521 LINE SMOOTH",
"28 499 OFFCURVE",
"36 494 OFFCURVE",
"57 494 CURVE SMOOTH"
);
}
);
width = 714;
}
);
note = Hbar;
unicode = 0126;
},
{
glyphname = Hbrevebelow;
lastChange = "2015-07-18 10:50:34 +0000";
layers = (
{
layerId = "082782A7-7ED4-4E0F-8549-8BA7EDA0D1AE";
name = Regular;
paths = (
{
closed = 1;
nodes = (
"149 0 LINE SMOOTH",
"177 0 OFFCURVE",
"187 12 OFFCURVE",
"187 36 CURVE SMOOTH",
"187 294 LINE",
"515 294 LINE",
"515 36 LINE SMOOTH",
"515 12 OFFCURVE",
"525 0 OFFCURVE",
"553 0 CURVE SMOOTH",
"605 0 LINE SMOOTH",
"633 0 OFFCURVE",
"643 12 OFFCURVE",
"643 36 CURVE SMOOTH",
"643 643 LINE SMOOTH",
"643 667 OFFCURVE",
"633 680 OFFCURVE",
"605 680 CURVE SMOOTH",
"553 680 LINE SMOOTH",
"525 680 OFFCURVE",
"515 667 OFFCURVE",
"515 643 CURVE SMOOTH",
"515 391 LINE",
"187 391 LINE",
"187 643 LINE SMOOTH",
"187 667 OFFCURVE",
"177 680 OFFCURVE",
"149 680 CURVE SMOOTH",
"96 680 LINE SMOOTH",
"69 680 OFFCURVE",
"59 667 OFFCURVE",
"59 643 CURVE SMOOTH",
"59 36 LINE SMOOTH",
"59 12 OFFCURVE",
"69 0 OFFCURVE",
"96 0 CURVE SMOOTH"
);
},
{
closed = 1;
nodes = (
"464 -218 OFFCURVE",
"517 -149 OFFCURVE",
"517 -55 CURVE SMOOTH",
"517 -44 OFFCURVE",
"511 -37 OFFCURVE",
"501 -37 CURVE SMOOTH",
"435 -37 LINE SMOOTH",
"421 -37 OFFCURVE",
"418 -44 OFFCURVE",
"418 -56 CURVE SMOOTH",
"418 -100 OFFCURVE",
"404 -131 OFFCURVE",
"352 -131 CURVE SMOOTH",
"301 -131 OFFCURVE",
"286 -100 OFFCURVE",
"286 -56 CURVE SMOOTH",
"286 -44 OFFCURVE",
"283 -37 OFFCURVE",
"269 -37 CURVE SMOOTH",
"203 -37 LINE SMOOTH",
"193 -37 OFFCURVE",
"187 -44 OFFCURVE",
"187 -55 CURVE SMOOTH",
"187 -149 OFFCURVE",
"240 -218 OFFCURVE",
"352 -218 CURVE SMOOTH"
);
}
);
width = 702;
}
);
note = Hbrevebelow;
unicode = 1E2A;
},
{
glyphname = Hcircumflex;
lastChange = "2015-07-18 10:50:34 +0000";
layers = (
{
layerId = "082782A7-7ED4-4E0F-8549-8BA7EDA0D1AE";
name = Regular;
paths = (
{
closed = 1;
nodes = (
"149 0 LINE SMOOTH",
"177 0 OFFCURVE",
"187 12 OFFCURVE",
"187 36 CURVE SMOOTH",
"187 294 LINE",
"515 294 LINE",
"515 36 LINE SMOOTH",
"515 12 OFFCURVE",
"525 0 OFFCURVE",
"553 0 CURVE SMOOTH",
"605 0 LINE SMOOTH",
"633 0 OFFCURVE",
"643 12 OFFCURVE",
"643 36 CURVE SMOOTH",
"643 643 LINE SMOOTH",
"643 667 OFFCURVE",
"633 680 OFFCURVE",
"605 680 CURVE SMOOTH",
"553 680 LINE SMOOTH",
"525 680 OFFCURVE",
"515 667 OFFCURVE",
"515 643 CURVE SMOOTH",
"515 391 LINE",
"187 391 LINE",
"187 643 LINE SMOOTH",
"187 667 OFFCURVE",
"177 680 OFFCURVE",
"149 680 CURVE SMOOTH",
"96 680 LINE SMOOTH",
"69 680 OFFCURVE",
"59 667 OFFCURVE",
"59 643 CURVE SMOOTH",
"59 36 LINE SMOOTH",
"59 12 OFFCURVE",
"69 0 OFFCURVE",
"96 0 CURVE SMOOTH"
);
},
{
closed = 1;
nodes = (
"243 750 LINE SMOOTH",
"267 750 OFFCURVE",
"274 757 OFFCURVE",
"283 771 CURVE SMOOTH",
"351 871 LINE",
"418 771 LINE SMOOTH",
"428 757 OFFCURVE",
"434 750 OFFCURVE",
"459 750 CURVE SMOOTH",
"506 750 LINE SMOOTH",
"526 750 OFFCURVE",
"535 763 OFFCURVE",
"521 782 CURVE SMOOTH",
"417 923 LINE SMOOTH",
"406 938 OFFCURVE",
"402 945 OFFCURVE",
"379 945 CURVE SMOOTH",
"322 945 LINE SMOOTH",
"299 945 OFFCURVE",
"296 938 OFFCURVE",
"284 923 CURVE",
"180 782 LINE SMOOTH",
"166 763 OFFCURVE",
"175 750 OFFCURVE",
"196 750 CURVE SMOOTH"
);
}
);
width = 702;
}
);
note = Hcircumflex;
unicode = 0124;
},
{
glyphname = Hdotbelow;
lastChange = "2015-07-18 10:50:34 +0000";
layers = (
{
layerId = "082782A7-7ED4-4E0F-8549-8BA7EDA0D1AE";
name = Regular;
paths = (
{
closed = 1;
nodes = (
"149 0 LINE SMOOTH",
"177 0 OFFCURVE",
"187 12 OFFCURVE",
"187 36 CURVE SMOOTH",
"187 294 LINE",
"515 294 LINE",
"515 36 LINE SMOOTH",
"515 12 OFFCURVE",
"525 0 OFFCURVE",
"553 0 CURVE SMOOTH",
"605 0 LINE SMOOTH",
"633 0 OFFCURVE",
"643 12 OFFCURVE",
"643 36 CURVE SMOOTH",
"643 643 LINE SMOOTH",
"643 667 OFFCURVE",
"633 680 OFFCURVE",
"605 680 CURVE SMOOTH",
"553 680 LINE SMOOTH",
"525 680 OFFCURVE",
"515 667 OFFCURVE",
"515 643 CURVE SMOOTH",
"515 391 LINE",
"187 391 LINE",
"187 643 LINE SMOOTH",
"187 667 OFFCURVE",
"177 680 OFFCURVE",
"149 680 CURVE SMOOTH",
"96 680 LINE SMOOTH",
"69 680 OFFCURVE",
"59 667 OFFCURVE",
"59 643 CURVE SMOOTH",
"59 36 LINE SMOOTH",
"59 12 OFFCURVE",
"69 0 OFFCURVE",
"96 0 CURVE SMOOTH"
);
},
{
closed = 1;
nodes = (
"363 -184 LINE SMOOTH",
"392 -184 OFFCURVE",
"410 -161 OFFCURVE",
"410 -134 CURVE SMOOTH",
"410 -115 LINE SMOOTH",
"410 -88 OFFCURVE",
"391 -66 OFFCURVE",
"363 -66 CURVE SMOOTH",
"343 -66 LINE SMOOTH",
"316 -66 OFFCURVE",
"296 -88 OFFCURVE",
"296 -115 CURVE SMOOTH",
"296 -134 LINE SMOOTH",
"296 -161 OFFCURVE",
"316 -184 OFFCURVE",
"343 -184 CURVE SMOOTH"
);
}
);
width = 702;
}
);
note = Hdotbelow;
unicode = 1E24;
},
{
glyphname = I;
lastChange = "2015-07-18 10:50:28 +0000";
layers = (
{
layerId = "082782A7-7ED4-4E0F-8549-8BA7EDA0D1AE";
name = Regular;
paths = (
{
closed = 1;
nodes = (
"149 0 LINE SMOOTH",
"177 0 OFFCURVE",
"187 12 OFFCURVE",
"187 36 CURVE SMOOTH",
"187 643 LINE SMOOTH",
"187 667 OFFCURVE",
"177 680 OFFCURVE",
"149 680 CURVE SMOOTH",
"96 680 LINE SMOOTH",
"69 680 OFFCURVE",
"59 667 OFFCURVE",
"59 643 CURVE SMOOTH",
"59 36 LINE SMOOTH",
"59 12 OFFCURVE",
"69 0 OFFCURVE",
"96 0 CURVE SMOOTH"
);
}
);
width = 246;
}
);
note = I;
unicode = 0049;
},
{
glyphname = IJ;
lastChange = "2015-07-18 10:50:34 +0000";
layers = (
{
layerId = "082782A7-7ED4-4E0F-8549-8BA7EDA0D1AE";
name = Regular;
paths = (
{
closed = 1;
nodes = (
"556 -15 OFFCURVE",
"623 70 OFFCURVE",
"623 190 CURVE SMOOTH",
"623 643 LINE SMOOTH",
"623 667 OFFCURVE",
"613 680 OFFCURVE",
"585 680 CURVE SMOOTH",
"533 680 LINE SMOOTH",
"505 680 OFFCURVE",
"495 667 OFFCURVE",
"495 643 CURVE SMOOTH",
"495 190 LINE SMOOTH",
"495 117 OFFCURVE",
"465 79 OFFCURVE",
"394 79 CURVE SMOOTH",
"342 79 OFFCURVE",
"297 94 OFFCURVE",
"268 114 CURVE SMOOTH",
"257 122 OFFCURVE",
"250 122 OFFCURVE",
"243 110 CURVE SMOOTH",
"214 61 LINE SMOOTH",
"207 49 OFFCURVE",
"208 40 OFFCURVE",
"218 34 CURVE SMOOTH",
"268 3 OFFCURVE",
"330 -15 OFFCURVE",
"407 -15 CURVE SMOOTH"
);
},
{
closed = 1;
nodes = (
"149 0 LINE SMOOTH",
"177 0 OFFCURVE",
"187 12 OFFCURVE",
"187 36 CURVE SMOOTH",
"187 643 LINE SMOOTH",
"187 667 OFFCURVE",
"177 680 OFFCURVE",
"149 680 CURVE SMOOTH",
"96 680 LINE SMOOTH",
"69 680 OFFCURVE",
"59 667 OFFCURVE",
"59 643 CURVE SMOOTH",
"59 36 LINE SMOOTH",
"59 12 OFFCURVE",
"69 0 OFFCURVE",
"96 0 CURVE SMOOTH"
);
}
);
width = 683;
}
);
note = IJ;
unicode = 0132;
},
{
glyphname = Iacute;
lastChange = "2015-11-23 13:12:04 +0000";
layers = (
{
layerId = "082782A7-7ED4-4E0F-8549-8BA7EDA0D1AE";
name = Regular;
paths = (
{
closed = 1;
nodes = (
"157 0 LINE SMOOTH",
"185 0 OFFCURVE",
"195 12 OFFCURVE",
"195 36 CURVE SMOOTH",
"195 643 LINE SMOOTH",
"195 667 OFFCURVE",
"185 680 OFFCURVE",
"157 680 CURVE SMOOTH",
"104 680 LINE SMOOTH",
"77 680 OFFCURVE",
"67 667 OFFCURVE",
"67 643 CURVE SMOOTH",
"67 36 LINE SMOOTH",
"67 12 OFFCURVE",
"77 0 OFFCURVE",
"104 0 CURVE SMOOTH"
);
},
{
closed = 1;
nodes = (
"147 753 LINE SMOOTH",
"173 753 OFFCURVE",
"180 758 OFFCURVE",
"189 775 CURVE SMOOTH",
"255 904 LINE SMOOTH",
"266 925 OFFCURVE",
"256 936 OFFCURVE",
"234 936 CURVE SMOOTH",
"160 936 LINE SMOOTH",
"135 936 OFFCURVE",
"130 929 OFFCURVE",
"123 912 CURVE",
"76 781 LINE SMOOTH",
"70 764 OFFCURVE",
"75 753 OFFCURVE",
"95 753 CURVE SMOOTH"
);
}
);
width = 261;
}
);
note = Iacute;
unicode = 00CD;
},
{
glyphname = Ibreve;
lastChange = "2015-07-18 10:50:32 +0000";
layers = (
{
layerId = "082782A7-7ED4-4E0F-8549-8BA7EDA0D1AE";
name = Regular;
paths = (
{
closed = 1;
nodes = (
"161 0 LINE SMOOTH",
"189 0 OFFCURVE",
"199 12 OFFCURVE",
"199 36 CURVE SMOOTH",
"199 643 LINE SMOOTH",
"199 667 OFFCURVE",
"189 680 OFFCURVE",
"161 680 CURVE SMOOTH",
"108 680 LINE SMOOTH",
"81 680 OFFCURVE",
"71 667 OFFCURVE",
"71 643 CURVE SMOOTH",
"71 36 LINE SMOOTH",
"71 12 OFFCURVE",
"81 0 OFFCURVE",
"108 0 CURVE SMOOTH"
);
},
{
closed = 1;
nodes = (
"246 753 OFFCURVE",
"300 822 OFFCURVE",
"300 916 CURVE SMOOTH",
"300 927 OFFCURVE",
"294 934 OFFCURVE",
"284 934 CURVE SMOOTH",
"218 934 LINE SMOOTH",
"204 934 OFFCURVE",
"201 927 OFFCURVE",
"201 915 CURVE SMOOTH",
"201 871 OFFCURVE",
"186 840 OFFCURVE",
"135 840 CURVE SMOOTH",
"83 840 OFFCURVE",
"69 871 OFFCURVE",
"69 915 CURVE SMOOTH",
"69 927 OFFCURVE",
"66 934 OFFCURVE",
"52 934 CURVE SMOOTH",
"-14 934 LINE SMOOTH",
"-24 934 OFFCURVE",
"-30 927 OFFCURVE",
"-30 916 CURVE SMOOTH",
"-30 822 OFFCURVE",
"22 753 OFFCURVE",
"135 753 CURVE SMOOTH"
);
}
);
width = 271;
}
);
note = Ibreve;
unicode = 012C;
},
{
glyphname = Icaron;
lastChange = "2015-07-18 10:50:33 +0000";
layers = (
{
layerId = "082782A7-7ED4-4E0F-8549-8BA7EDA0D1AE";
name = Regular;
paths = (
{
closed = 1;
nodes = (
"173 0 LINE SMOOTH",
"201 0 OFFCURVE",
"211 12 OFFCURVE",
"211 36 CURVE SMOOTH",
"211 643 LINE SMOOTH",
"211 667 OFFCURVE",
"201 680 OFFCURVE",
"173 680 CURVE SMOOTH",
"120 680 LINE SMOOTH",
"93 680 OFFCURVE",
"83 667 OFFCURVE",
"83 643 CURVE SMOOTH",
"83 36 LINE SMOOTH",
"83 12 OFFCURVE",
"93 0 OFFCURVE",
"120 0 CURVE SMOOTH"
);
},
{
closed = 1;
nodes = (
"175 742 LINE SMOOTH",
"198 742 OFFCURVE",
"202 748 OFFCURVE",
"213 763 CURVE SMOOTH",
"317 904 LINE SMOOTH",
"331 922 OFFCURVE",
"327 936 OFFCURVE",
"306 936 CURVE SMOOTH",
"254 936 LINE SMOOTH",
"229 936 OFFCURVE",
"224 932 OFFCURVE",
"215 917 CURVE",
"147 816 LINE",
"78 917 LINE SMOOTH",
"68 932 OFFCURVE",
"63 936 OFFCURVE",
"39 936 CURVE SMOOTH",
"-14 936 LINE SMOOTH",
"-34 936 OFFCURVE",
"-38 923 OFFCURVE",
"-24 904 CURVE SMOOTH",
"80 763 LINE",
"92 748 OFFCURVE",
"95 742 OFFCURVE",
"118 742 CURVE SMOOTH"
);
}
);
width = 294;
}
);
note = Icaron;
unicode = 01CF;
},
{
glyphname = Icircumflex;
lastChange = "2015-07-18 10:50:34 +0000";
layers = (
{
layerId = "082782A7-7ED4-4E0F-8549-8BA7EDA0D1AE";
name = Regular;
paths = (
{
closed = 1;
nodes = (
"146 0 LINE SMOOTH",
"174 0 OFFCURVE",
"184 12 OFFCURVE",
"184 36 CURVE SMOOTH",
"184 643 LINE SMOOTH",
"184 667 OFFCURVE",
"174 680 OFFCURVE",
"146 680 CURVE SMOOTH",
"93 680 LINE SMOOTH",
"66 680 OFFCURVE",
"56 667 OFFCURVE",
"56 643 CURVE SMOOTH",
"56 36 LINE SMOOTH",
"56 12 OFFCURVE",
"66 0 OFFCURVE",
"93 0 CURVE SMOOTH"
);
},
{
closed = 1;
nodes = (
"12 757 LINE SMOOTH",
"36 757 OFFCURVE",
"43 764 OFFCURVE",
"52 778 CURVE SMOOTH",
"120 878 LINE",
"187 778 LINE SMOOTH",
"197 764 OFFCURVE",
"203 757 OFFCURVE",
"228 757 CURVE SMOOTH",
"275 757 LINE SMOOTH",
"295 757 OFFCURVE",
"304 770 OFFCURVE",
"290 789 CURVE SMOOTH",
"186 930 LINE SMOOTH",
"175 945 OFFCURVE",
"171 952 OFFCURVE",
"148 952 CURVE SMOOTH",
"91 952 LINE SMOOTH",
"68 952 OFFCURVE",
"65 945 OFFCURVE",
"53 930 CURVE",
"-51 789 LINE SMOOTH",
"-65 770 OFFCURVE",
"-56 757 OFFCURVE",
"-35 757 CURVE SMOOTH"
);
}
);
width = 240;
}
);
note = Icircumflex;
unicode = 00CE;
},
{
glyphname = Idieresis;
lastChange = "2015-07-18 10:50:32 +0000";
layers = (
{
layerId = "082782A7-7ED4-4E0F-8549-8BA7EDA0D1AE";
name = Regular;
paths = (
{
closed = 1;
nodes = (
"160 0 LINE SMOOTH",
"188 0 OFFCURVE",
"198 12 OFFCURVE",
"198 36 CURVE SMOOTH",
"198 643 LINE SMOOTH",
"198 667 OFFCURVE",
"188 680 OFFCURVE",
"160 680 CURVE SMOOTH",
"107 680 LINE SMOOTH",
"80 680 OFFCURVE",
"70 667 OFFCURVE",
"70 643 CURVE SMOOTH",
"70 36 LINE SMOOTH",
"70 12 OFFCURVE",
"80 0 OFFCURVE",
"107 0 CURVE SMOOTH"
);
},
{
closed = 1;
nodes = (
"47 714 LINE SMOOTH",
"76 714 OFFCURVE",
"94 737 OFFCURVE",
"94 764 CURVE SMOOTH",
"94 783 LINE SMOOTH",
"94 810 OFFCURVE",
"75 832 OFFCURVE",
"47 832 CURVE SMOOTH",
"27 832 LINE SMOOTH",
"-1 832 OFFCURVE",
"-20 810 OFFCURVE",
"-20 783 CURVE SMOOTH",
"-20 764 LINE SMOOTH",
"-20 737 OFFCURVE",
"-1 714 OFFCURVE",
"27 714 CURVE SMOOTH"
);
},
{
closed = 1;
nodes = (
"244 714 LINE SMOOTH",
"273 714 OFFCURVE",
"291 737 OFFCURVE",
"291 764 CURVE SMOOTH",
"291 783 LINE SMOOTH",
"291 810 OFFCURVE",
"272 832 OFFCURVE",
"244 832 CURVE SMOOTH",
"224 832 LINE SMOOTH",
"197 832 OFFCURVE",
"177 810 OFFCURVE",
"177 783 CURVE SMOOTH",
"177 764 LINE SMOOTH",
"177 737 OFFCURVE",
"197 714 OFFCURVE",
"224 714 CURVE SMOOTH"
);
}
);
width = 271;
}
);
note = Idieresis;
unicode = 00CF;
},
{
glyphname = Idotaccent;
lastChange = "2015-07-18 10:50:32 +0000";
layers = (
{
layerId = "082782A7-7ED4-4E0F-8549-8BA7EDA0D1AE";
name = Regular;
paths = (
{
closed = 1;
nodes = (
"143 0 LINE SMOOTH",
"171 0 OFFCURVE",
"181 12 OFFCURVE",
"181 36 CURVE SMOOTH",
"181 643 LINE SMOOTH",
"181 667 OFFCURVE",
"171 680 OFFCURVE",
"143 680 CURVE SMOOTH",
"90 680 LINE SMOOTH",
"63 680 OFFCURVE",
"53 667 OFFCURVE",
"53 643 CURVE SMOOTH",
"53 36 LINE SMOOTH",
"53 12 OFFCURVE",
"63 0 OFFCURVE",
"90 0 CURVE SMOOTH"
);
},
{
closed = 1;
nodes = (
"130 747 LINE SMOOTH",
"158 747 OFFCURVE",
"177 770 OFFCURVE",
"177 797 CURVE SMOOTH",
"177 816 LINE SMOOTH",
"177 843 OFFCURVE",
"157 865 OFFCURVE",
"130 865 CURVE SMOOTH",
"109 865 LINE SMOOTH",
"82 865 OFFCURVE",
"62 843 OFFCURVE",
"62 816 CURVE SMOOTH",
"62 797 LINE SMOOTH",
"62 770 OFFCURVE",
"82 747 OFFCURVE",
"109 747 CURVE SMOOTH"
);
}
);
width = 236;
}
);
note = Idotaccent;
unicode = 0130;
},
{
glyphname = Idotbelow;
lastChange = "2015-07-18 10:50:32 +0000";
layers = (
{
layerId = "082782A7-7ED4-4E0F-8549-8BA7EDA0D1AE";
name = Regular;
paths = (
{
closed = 1;
nodes = (
"149 0 LINE SMOOTH",
"177 0 OFFCURVE",
"187 12 OFFCURVE",
"187 36 CURVE SMOOTH",
"187 643 LINE SMOOTH",
"187 667 OFFCURVE",
"177 680 OFFCURVE",
"149 680 CURVE SMOOTH",
"96 680 LINE SMOOTH",
"69 680 OFFCURVE",
"59 667 OFFCURVE",
"59 643 CURVE SMOOTH",
"59 36 LINE SMOOTH",
"59 12 OFFCURVE",
"69 0 OFFCURVE",
"96 0 CURVE SMOOTH"
);
},
{
closed = 1;
nodes = (
"135 -184 LINE SMOOTH",
"164 -184 OFFCURVE",
"182 -161 OFFCURVE",
"182 -134 CURVE SMOOTH",
"182 -115 LINE SMOOTH",
"182 -88 OFFCURVE",
"163 -66 OFFCURVE",
"135 -66 CURVE SMOOTH",
"115 -66 LINE SMOOTH",
"88 -66 OFFCURVE",
"68 -88 OFFCURVE",
"68 -115 CURVE SMOOTH",
"68 -134 LINE SMOOTH",
"68 -161 OFFCURVE",
"88 -184 OFFCURVE",
"115 -184 CURVE SMOOTH"
);
}
);
width = 246;
}
);
note = Idotbelow;
unicode = 1ECA;
},
{
glyphname = Igrave;
lastChange = "2015-07-18 10:50:33 +0000";
layers = (
{
layerId = "082782A7-7ED4-4E0F-8549-8BA7EDA0D1AE";
name = Regular;
paths = (
{
closed = 1;
nodes = (
"146 0 LINE SMOOTH",
"174 0 OFFCURVE",
"184 12 OFFCURVE",
"184 36 CURVE SMOOTH",
"184 643 LINE SMOOTH",
"184 667 OFFCURVE",
"174 680 OFFCURVE",
"146 680 CURVE SMOOTH",
"93 680 LINE SMOOTH",
"66 680 OFFCURVE",
"56 667 OFFCURVE",
"56 643 CURVE SMOOTH",
"56 36 LINE SMOOTH",
"56 12 OFFCURVE",
"66 0 OFFCURVE",
"93 0 CURVE SMOOTH"
);
},
{
closed = 1;
nodes = (
"152 753 LINE SMOOTH",
"173 753 OFFCURVE",
"178 764 OFFCURVE",
"172 781 CURVE SMOOTH",
"124 912 LINE SMOOTH",
"118 930 OFFCURVE",
"113 936 OFFCURVE",
"87 936 CURVE SMOOTH",
"14 936 LINE SMOOTH",
"-8 936 OFFCURVE",
"-18 925 OFFCURVE",
"-7 904 CURVE SMOOTH",
"59 775 LINE SMOOTH",
"68 758 OFFCURVE",
"75 753 OFFCURVE",
"100 753 CURVE SMOOTH"
);
}
);
width = 240;
}
);
note = Igrave;
unicode = 00CC;
},
{
glyphname = Ihookabove;
lastChange = "2015-07-18 10:50:34 +0000";
layers = (
{
layerId = "082782A7-7ED4-4E0F-8549-8BA7EDA0D1AE";
name = Regular;
paths = (
{
closed = 1;
nodes = (
"145 0 LINE SMOOTH",
"173 0 OFFCURVE",
"183 12 OFFCURVE",
"183 36 CURVE SMOOTH",
"183 643 LINE SMOOTH",
"183 667 OFFCURVE",
"173 680 OFFCURVE",
"145 680 CURVE SMOOTH",
"92 680 LINE SMOOTH",
"65 680 OFFCURVE",
"55 667 OFFCURVE",
"55 643 CURVE SMOOTH",
"55 36 LINE SMOOTH",
"55 12 OFFCURVE",
"65 0 OFFCURVE",
"92 0 CURVE SMOOTH"
);
},
{
closed = 1;
nodes = (
"131 731 LINE SMOOTH",
"147 731 OFFCURVE",
"154 739 OFFCURVE",
"154 754 CURVE SMOOTH",
"154 776 LINE",
"205 776 OFFCURVE",
"252 811 OFFCURVE",
"252 872 CURVE SMOOTH",
"252 933 OFFCURVE",
"209 970 OFFCURVE",
"120 970 CURVE SMOOTH",
"80 970 OFFCURVE",
"34 960 OFFCURVE",
"7 942 CURVE SMOOTH",
"1 938 OFFCURVE",
"1 936 OFFCURVE",
"3 930 CURVE",
"24 884 LINE",
"26 880 OFFCURVE",
"29 880 OFFCURVE",
"34 882 CURVE",
"58 894 OFFCURVE",
"80 901 OFFCURVE",
"109 901 CURVE SMOOTH",
"147 901 OFFCURVE",
"161 891 OFFCURVE",
"161 868 CURVE SMOOTH",
"161 841 OFFCURVE",
"149 830 OFFCURVE",
"101 830 CURVE SMOOTH",
"75 830 OFFCURVE",
"66 820 OFFCURVE",
"66 799 CURVE SMOOTH",
"66 754 LINE SMOOTH",
"66 739 OFFCURVE",
"73 731 OFFCURVE",
"89 731 CURVE SMOOTH"
);
}
);
width = 236;
}
);
note = Ihookabove;
unicode = 1EC8;
},
{
glyphname = Imacron;
lastChange = "2015-07-18 10:50:32 +0000";
layers = (
{
layerId = "082782A7-7ED4-4E0F-8549-8BA7EDA0D1AE";
name = Regular;
paths = (
{
closed = 1;
nodes = (
"146 0 LINE SMOOTH",
"174 0 OFFCURVE",
"184 12 OFFCURVE",
"184 36 CURVE SMOOTH",
"184 643 LINE SMOOTH",
"184 667 OFFCURVE",
"174 680 OFFCURVE",
"146 680 CURVE SMOOTH",
"94 680 LINE SMOOTH",
"66 680 OFFCURVE",
"56 667 OFFCURVE",
"56 643 CURVE SMOOTH",
"56 36 LINE SMOOTH",
"56 12 OFFCURVE",
"66 0 OFFCURVE",
"94 0 CURVE SMOOTH"
);
},
{
closed = 1;
nodes = (
"256 757 LINE SMOOTH",
"283 757 OFFCURVE",
"292 767 OFFCURVE",
"292 792 CURVE SMOOTH",
"292 819 LINE SMOOTH",
"292 843 OFFCURVE",
"283 855 OFFCURVE",
"256 855 CURVE SMOOTH",
"-17 855 LINE SMOOTH",
"-44 855 OFFCURVE",
"-52 843 OFFCURVE",
"-52 819 CURVE SMOOTH",
"-52 792 LINE SMOOTH",
"-52 767 OFFCURVE",
"-44 757 OFFCURVE",
"-17 757 CURVE SMOOTH"
);
}
);
width = 240;
}
);
note = Imacron;
unicode = 012A;
},
{
glyphname = Iogonek;
lastChange = "2015-07-18 10:50:34 +0000";
layers = (
{
layerId = "082782A7-7ED4-4E0F-8549-8BA7EDA0D1AE";
name = Regular;
paths = (
{
closed = 1;
nodes = (
"154 0 LINE SMOOTH",
"182 0 OFFCURVE",
"192 12 OFFCURVE",
"192 36 CURVE SMOOTH",
"192 643 LINE SMOOTH",
"192 667 OFFCURVE",
"182 680 OFFCURVE",
"154 680 CURVE SMOOTH",
"101 680 LINE SMOOTH",
"74 680 OFFCURVE",
"64 667 OFFCURVE",
"64 643 CURVE SMOOTH",
"64 36 LINE SMOOTH",
"64 12 OFFCURVE",
"74 0 OFFCURVE",
"101 0 CURVE SMOOTH"
);
},
{
closed = 1;
nodes = (
"128 -202 OFFCURVE",
"153 -199 OFFCURVE",
"171 -190 CURVE SMOOTH",
"184 -184 OFFCURVE",
"184 -180 OFFCURVE",
"181 -173 CURVE SMOOTH",
"166 -140 LINE",
"162 -132 OFFCURVE",
"159 -132 OFFCURVE",
"152 -135 CURVE",
"146 -138 OFFCURVE",
"139 -139 OFFCURVE",
"130 -139 CURVE SMOOTH",
"114 -139 OFFCURVE",
"106 -130 OFFCURVE",
"106 -112 CURVE SMOOTH",
"106 -83 OFFCURVE",
"118 -60 OFFCURVE",
"165 -4 CURVE SMOOTH",
"172 4 OFFCURVE",
"167 12 OFFCURVE",
"155 12 CURVE SMOOTH",
"96 12 LINE SMOOTH",
"83 12 OFFCURVE",
"79 8 OFFCURVE",
"71 -1 CURVE SMOOTH",
"27 -51 OFFCURVE",
"10 -88 OFFCURVE",
"10 -124 CURVE SMOOTH",
"10 -166 OFFCURVE",
"37 -202 OFFCURVE",
"97 -202 CURVE SMOOTH"
);
}
);
width = 247;
}
);
note = Iogonek;
unicode = 012E;
},
{
glyphname = Itilde;
lastChange = "2015-07-18 10:50:34 +0000";
layers = (
{
layerId = "082782A7-7ED4-4E0F-8549-8BA7EDA0D1AE";
name = Regular;
paths = (
{
closed = 1;
nodes = (
"145 0 LINE SMOOTH",
"173 0 OFFCURVE",
"183 12 OFFCURVE",
"183 36 CURVE SMOOTH",
"183 643 LINE SMOOTH",
"183 667 OFFCURVE",
"173 680 OFFCURVE",
"145 680 CURVE SMOOTH",
"92 680 LINE SMOOTH",
"65 680 OFFCURVE",
"55 667 OFFCURVE",
"55 643 CURVE SMOOTH",
"55 36 LINE SMOOTH",
"55 12 OFFCURVE",
"65 0 OFFCURVE",
"92 0 CURVE SMOOTH"
);
},
{
closed = 1;
nodes = (
"275 742 OFFCURVE",
"306 765 OFFCURVE",
"338 813 CURVE",
"354 835 OFFCURVE",
"352 848 OFFCURVE",
"326 868 CURVE SMOOTH",
"301 888 OFFCURVE",
"285 890 OFFCURVE",
"272 873 CURVE SMOOTH",
"251 845 OFFCURVE",
"237 836 OFFCURVE",
"210 836 CURVE SMOOTH",
"153 836 OFFCURVE",
"112 888 OFFCURVE",
"31 888 CURVE SMOOTH",
"-19 888 OFFCURVE",
"-49 860 OFFCURVE",
"-77 825 CURVE SMOOTH",
"-93 804 OFFCURVE",
"-92 791 OFFCURVE",
"-70 772 CURVE SMOOTH",
"-46 751 OFFCURVE",
"-30 747 OFFCURVE",
"-17 763 CURVE",
"3 785 OFFCURVE",
"14 795 OFFCURVE",
"42 795 CURVE SMOOTH",
"95 795 OFFCURVE",
"150 742 OFFCURVE",
"217 742 CURVE SMOOTH"
);
}
);
width = 241;
}
);
note = Itilde;
unicode = 0128;
},
{
glyphname = J;
lastChange = "2015-07-18 10:50:28 +0000";
layers = (
{
layerId = "082782A7-7ED4-4E0F-8549-8BA7EDA0D1AE";
name = Regular;
paths = (
{
closed = 1;
nodes = (
"366 -15 OFFCURVE",
"433 70 OFFCURVE",
"433 190 CURVE SMOOTH",
"433 643 LINE SMOOTH",
"433 667 OFFCURVE",
"423 680 OFFCURVE",
"395 680 CURVE SMOOTH",
"343 680 LINE SMOOTH",
"315 680 OFFCURVE",
"305 667 OFFCURVE",
"305 643 CURVE SMOOTH",
"305 190 LINE SMOOTH",
"305 117 OFFCURVE",
"275 79 OFFCURVE",
"204 79 CURVE SMOOTH",
"152 79 OFFCURVE",
"107 94 OFFCURVE",
"78 114 CURVE SMOOTH",
"67 122 OFFCURVE",
"60 122 OFFCURVE",
"53 110 CURVE SMOOTH",
"24 61 LINE SMOOTH",
"17 49 OFFCURVE",
"18 40 OFFCURVE",
"28 34 CURVE SMOOTH",
"78 3 OFFCURVE",
"140 -15 OFFCURVE",
"217 -15 CURVE SMOOTH"
);
}
);
width = 487;
}
);
note = J;
unicode = 004A;
},
{
glyphname = Jcircumflex;
lastChange = "2015-07-18 10:50:33 +0000";
layers = (
{
layerId = "082782A7-7ED4-4E0F-8549-8BA7EDA0D1AE";
name = Regular;
paths = (
{
closed = 1;
nodes = (
"366 -15 OFFCURVE",
"433 70 OFFCURVE",
"433 190 CURVE SMOOTH",
"433 643 LINE SMOOTH",
"433 667 OFFCURVE",
"423 680 OFFCURVE",
"395 680 CURVE SMOOTH",
"343 680 LINE SMOOTH",
"315 680 OFFCURVE",
"305 667 OFFCURVE",
"305 643 CURVE SMOOTH",
"305 190 LINE SMOOTH",
"305 117 OFFCURVE",
"275 79 OFFCURVE",
"204 79 CURVE SMOOTH",
"152 79 OFFCURVE",
"107 94 OFFCURVE",
"78 114 CURVE SMOOTH",
"67 122 OFFCURVE",
"60 122 OFFCURVE",
"53 110 CURVE SMOOTH",
"24 61 LINE SMOOTH",
"17 49 OFFCURVE",
"18 40 OFFCURVE",
"28 34 CURVE SMOOTH",
"78 3 OFFCURVE",
"140 -15 OFFCURVE",
"217 -15 CURVE SMOOTH"
);
},
{
closed = 1;
nodes = (
"264 750 LINE SMOOTH",
"288 750 OFFCURVE",
"295 757 OFFCURVE",
"304 771 CURVE SMOOTH",
"372 871 LINE",
"439 771 LINE SMOOTH",
"449 757 OFFCURVE",
"455 750 OFFCURVE",
"480 750 CURVE SMOOTH",
"527 750 LINE SMOOTH",
"547 750 OFFCURVE",
"556 763 OFFCURVE",
"542 782 CURVE SMOOTH",
"438 923 LINE SMOOTH",
"427 938 OFFCURVE",
"423 945 OFFCURVE",
"400 945 CURVE SMOOTH",
"343 945 LINE SMOOTH",
"320 945 OFFCURVE",
"317 938 OFFCURVE",
"305 923 CURVE",
"201 782 LINE SMOOTH",
"187 763 OFFCURVE",
"196 750 OFFCURVE",
"217 750 CURVE SMOOTH"
);
}
);
width = 559;
}
);
note = Jcircumflex;
unicode = 0134;
},
{
glyphname = K;
lastChange = "2015-07-18 10:50:34 +0000";
layers = (
{
layerId = "082782A7-7ED4-4E0F-8549-8BA7EDA0D1AE";
name = Regular;
paths = (
{
closed = 1;
nodes = (
"582 0 LINE SMOOTH",
"597 0 OFFCURVE",
"601 16 OFFCURVE",
"591 28 CURVE SMOOTH",
"326 341 LINE",
"585 652 LINE SMOOTH",
"595 664 OFFCURVE",
"591 680 OFFCURVE",
"576 680 CURVE SMOOTH",
"484 680 LINE SMOOTH",
"466 680 OFFCURVE",
"461 678 OFFCURVE",
"453 668 CURVE SMOOTH",
"218 381 LINE SMOOTH",
"208 368 OFFCURVE",
"201 360 OFFCURVE",
"201 341 CURVE SMOOTH",
"201 322 OFFCURVE",
"208 313 OFFCURVE",
"218 301 CURVE SMOOTH",
"459 11 LINE SMOOTH",
"467 2 OFFCURVE",
"473 0 OFFCURVE",
"487 0 CURVE SMOOTH"
);
},
{
closed = 1;
nodes = (
"149 0 LINE SMOOTH",
"177 0 OFFCURVE",
"187 12 OFFCURVE",
"187 36 CURVE SMOOTH",
"187 643 LINE SMOOTH",
"187 667 OFFCURVE",
"177 680 OFFCURVE",
"149 680 CURVE SMOOTH",
"96 680 LINE SMOOTH",
"69 680 OFFCURVE",
"59 667 OFFCURVE",
"59 643 CURVE SMOOTH",
"59 36 LINE SMOOTH",
"59 12 OFFCURVE",
"69 0 OFFCURVE",
"96 0 CURVE SMOOTH"
);
}
);
width = 634;
}
);
note = K;
unicode = 004B;
},
{
glyphname = Kcommaaccent;
lastChange = "2015-07-18 10:50:34 +0000";
layers = (
{
layerId = "082782A7-7ED4-4E0F-8549-8BA7EDA0D1AE";
name = Regular;
paths = (
{
closed = 1;
nodes = (
"582 0 LINE SMOOTH",
"597 0 OFFCURVE",
"601 16 OFFCURVE",
"591 28 CURVE SMOOTH",
"326 341 LINE",
"585 652 LINE SMOOTH",
"595 664 OFFCURVE",
"591 680 OFFCURVE",
"576 680 CURVE SMOOTH",
"484 680 LINE SMOOTH",
"466 680 OFFCURVE",
"461 678 OFFCURVE",
"453 668 CURVE SMOOTH",
"218 381 LINE SMOOTH",
"208 368 OFFCURVE",
"201 360 OFFCURVE",
"201 341 CURVE SMOOTH",
"201 322 OFFCURVE",
"208 313 OFFCURVE",
"218 301 CURVE SMOOTH",
"459 11 LINE SMOOTH",
"467 2 OFFCURVE",
"473 0 OFFCURVE",
"487 0 CURVE SMOOTH"
);
},
{
closed = 1;
nodes = (
"255 -238 LINE SMOOTH",
"272 -238 OFFCURVE",
"280 -232 OFFCURVE",
"284 -221 CURVE",
"349 -69 LINE SMOOTH",
"359 -46 OFFCURVE",
"355 -36 OFFCURVE",
"329 -36 CURVE SMOOTH",
"277 -36 LINE SMOOTH",
"255 -36 OFFCURVE",
"247 -41 OFFCURVE",
"241 -62 CURVE SMOOTH",
"195 -213 LINE SMOOTH",
"190 -228 OFFCURVE",
"193 -238 OFFCURVE",
"211 -238 CURVE SMOOTH"
);
},
{
closed = 1;
nodes = (
"149 0 LINE SMOOTH",
"177 0 OFFCURVE",
"187 12 OFFCURVE",
"187 36 CURVE SMOOTH",
"187 643 LINE SMOOTH",
"187 667 OFFCURVE",
"177 680 OFFCURVE",
"149 680 CURVE SMOOTH",
"96 680 LINE SMOOTH",
"69 680 OFFCURVE",
"59 667 OFFCURVE",
"59 643 CURVE SMOOTH",
"59 36 LINE SMOOTH",
"59 12 OFFCURVE",
"69 0 OFFCURVE",
"96 0 CURVE SMOOTH"
);
}
);
width = 634;
}
);
note = Kcommaaccent;
unicode = 0136;
},
{
glyphname = L;
lastChange = "2015-07-18 10:50:28 +0000";
layers = (
{
layerId = "082782A7-7ED4-4E0F-8549-8BA7EDA0D1AE";
name = Regular;
paths = (
{
closed = 1;
nodes = (
"493 0 LINE SMOOTH",
"520 0 OFFCURVE",
"529 10 OFFCURVE",
"529 34 CURVE SMOOTH",
"529 61 LINE SMOOTH",
"529 86 OFFCURVE",
"520 97 OFFCURVE",
"493 97 CURVE SMOOTH",
"187 97 LINE",
"187 643 LINE SMOOTH",
"187 667 OFFCURVE",
"177 680 OFFCURVE",
"149 680 CURVE SMOOTH",
"96 680 LINE SMOOTH",
"69 680 OFFCURVE",
"59 667 OFFCURVE",
"59 643 CURVE SMOOTH",
"59 36 LINE SMOOTH",
"59 12 OFFCURVE",
"69 0 OFFCURVE",
"96 0 CURVE SMOOTH"
);
}
);
width = 548;
}
);
note = L;
unicode = 004C;
},
{
glyphname = Lacute;
lastChange = "2015-07-18 10:50:32 +0000";
layers = (
{
layerId = "082782A7-7ED4-4E0F-8549-8BA7EDA0D1AE";
name = Regular;
paths = (
{
closed = 1;
nodes = (
"493 0 LINE SMOOTH",
"520 0 OFFCURVE",
"529 10 OFFCURVE",
"529 34 CURVE SMOOTH",
"529 61 LINE SMOOTH",
"529 86 OFFCURVE",
"520 97 OFFCURVE",
"493 97 CURVE SMOOTH",
"187 97 LINE",
"187 643 LINE SMOOTH",
"187 667 OFFCURVE",
"177 680 OFFCURVE",
"149 680 CURVE SMOOTH",
"96 680 LINE SMOOTH",
"69 680 OFFCURVE",
"59 667 OFFCURVE",
"59 643 CURVE SMOOTH",
"59 36 LINE SMOOTH",
"59 12 OFFCURVE",
"69 0 OFFCURVE",
"96 0 CURVE SMOOTH"
);
},
{
closed = 1;
nodes = (
"154 729 LINE SMOOTH",
"180 729 OFFCURVE",
"187 734 OFFCURVE",
"196 751 CURVE SMOOTH",
"262 880 LINE SMOOTH",
"273 901 OFFCURVE",
"263 912 OFFCURVE",
"241 912 CURVE SMOOTH",
"167 912 LINE SMOOTH",
"142 912 OFFCURVE",
"137 905 OFFCURVE",
"130 888 CURVE",
"83 757 LINE SMOOTH",
"77 740 OFFCURVE",
"82 729 OFFCURVE",
"102 729 CURVE SMOOTH"
);
}
);
width = 548;
}
);
note = Lacute;
unicode = 0139;
},
{
glyphname = Lcaron;
lastChange = "2015-07-18 10:50:33 +0000";
layers = (
{
layerId = "082782A7-7ED4-4E0F-8549-8BA7EDA0D1AE";
name = Regular;
paths = (
{
closed = 1;
nodes = (
"493 0 LINE SMOOTH",
"520 0 OFFCURVE",
"529 10 OFFCURVE",
"529 34 CURVE SMOOTH",
"529 61 LINE SMOOTH",
"529 86 OFFCURVE",
"520 97 OFFCURVE",
"493 97 CURVE SMOOTH",
"187 97 LINE",
"187 643 LINE SMOOTH",
"187 667 OFFCURVE",
"177 680 OFFCURVE",
"149 680 CURVE SMOOTH",
"96 680 LINE SMOOTH",
"69 680 OFFCURVE",
"59 667 OFFCURVE",
"59 643 CURVE SMOOTH",
"59 36 LINE SMOOTH",
"59 12 OFFCURVE",
"69 0 OFFCURVE",
"96 0 CURVE SMOOTH"
);
},
{
closed = 1;
nodes = (
"391 525 LINE SMOOTH",
"408 525 OFFCURVE",
"416 531 OFFCURVE",
"420 542 CURVE",
"485 694 LINE SMOOTH",
"495 717 OFFCURVE",
"491 727 OFFCURVE",
"465 727 CURVE SMOOTH",
"413 727 LINE SMOOTH",
"391 727 OFFCURVE",
"383 722 OFFCURVE",
"377 701 CURVE SMOOTH",
"331 550 LINE SMOOTH",
"326 535 OFFCURVE",
"329 525 OFFCURVE",
"347 525 CURVE SMOOTH"
);
}
);
width = 564;
}
);
note = Lcaron;
unicode = 013D;
},
{
glyphname = Lcommaaccent;
lastChange = "2015-07-18 10:50:34 +0000";
layers = (
{
layerId = "082782A7-7ED4-4E0F-8549-8BA7EDA0D1AE";
name = Regular;
paths = (
{
closed = 1;
nodes = (
"493 0 LINE SMOOTH",
"520 0 OFFCURVE",
"529 10 OFFCURVE",
"529 34 CURVE SMOOTH",
"529 61 LINE SMOOTH",
"529 86 OFFCURVE",
"520 97 OFFCURVE",
"493 97 CURVE SMOOTH",
"187 97 LINE",
"187 643 LINE SMOOTH",
"187 667 OFFCURVE",
"177 680 OFFCURVE",
"149 680 CURVE SMOOTH",
"96 680 LINE SMOOTH",
"69 680 OFFCURVE",
"59 667 OFFCURVE",
"59 643 CURVE SMOOTH",
"59 36 LINE SMOOTH",
"59 12 OFFCURVE",
"69 0 OFFCURVE",
"96 0 CURVE SMOOTH"
);
},
{
closed = 1;
nodes = (
"256 -238 LINE SMOOTH",
"273 -238 OFFCURVE",
"281 -232 OFFCURVE",
"285 -221 CURVE",
"350 -69 LINE SMOOTH",
"360 -46 OFFCURVE",
"356 -36 OFFCURVE",
"330 -36 CURVE SMOOTH",
"278 -36 LINE SMOOTH",
"256 -36 OFFCURVE",
"248 -41 OFFCURVE",
"242 -62 CURVE SMOOTH",
"196 -213 LINE SMOOTH",
"191 -228 OFFCURVE",
"194 -238 OFFCURVE",
"212 -238 CURVE SMOOTH"
);
}
);
width = 548;
}
);
note = Lcommaaccent;
unicode = 013B;
},
{
glyphname = Ldot;
lastChange = "2015-07-18 10:50:32 +0000";
layers = (
{
layerId = "082782A7-7ED4-4E0F-8549-8BA7EDA0D1AE";
name = Regular;
paths = (
{
closed = 1;
nodes = (
"493 0 LINE SMOOTH",
"520 0 OFFCURVE",
"529 10 OFFCURVE",
"529 34 CURVE SMOOTH",
"529 61 LINE SMOOTH",
"529 86 OFFCURVE",
"520 97 OFFCURVE",
"493 97 CURVE SMOOTH",
"187 97 LINE",
"187 643 LINE SMOOTH",
"187 667 OFFCURVE",
"177 680 OFFCURVE",
"149 680 CURVE SMOOTH",
"96 680 LINE SMOOTH",
"69 680 OFFCURVE",
"59 667 OFFCURVE",
"59 643 CURVE SMOOTH",
"59 36 LINE SMOOTH",
"59 12 OFFCURVE",
"69 0 OFFCURVE",
"96 0 CURVE SMOOTH"
);
},
{
closed = 1;
nodes = (
"370 279 LINE SMOOTH",
"398 279 OFFCURVE",
"417 302 OFFCURVE",
"417 329 CURVE SMOOTH",
"417 348 LINE SMOOTH",
"417 375 OFFCURVE",
"397 397 OFFCURVE",
"370 397 CURVE SMOOTH",
"350 397 LINE SMOOTH",
"322 397 OFFCURVE",
"303 375 OFFCURVE",
"303 348 CURVE SMOOTH",
"303 329 LINE SMOOTH",
"303 302 OFFCURVE",
"322 279 OFFCURVE",
"350 279 CURVE SMOOTH"
);
}
);
width = 548;
}
);
note = Ldot;
unicode = 013F;
},
{
glyphname = Ldotbelow;
lastChange = "2015-07-18 10:50:34 +0000";
layers = (
{
layerId = "082782A7-7ED4-4E0F-8549-8BA7EDA0D1AE";
name = Regular;
paths = (
{
closed = 1;
nodes = (
"493 0 LINE SMOOTH",
"520 0 OFFCURVE",
"529 10 OFFCURVE",
"529 34 CURVE SMOOTH",
"529 61 LINE SMOOTH",
"529 86 OFFCURVE",
"520 97 OFFCURVE",
"493 97 CURVE SMOOTH",
"187 97 LINE",
"187 643 LINE SMOOTH",
"187 667 OFFCURVE",
"177 680 OFFCURVE",
"149 680 CURVE SMOOTH",
"96 680 LINE SMOOTH",
"69 680 OFFCURVE",
"59 667 OFFCURVE",
"59 643 CURVE SMOOTH",
"59 36 LINE SMOOTH",
"59 12 OFFCURVE",
"69 0 OFFCURVE",
"96 0 CURVE SMOOTH"
);
},
{
closed = 1;
nodes = (
"310 -184 LINE SMOOTH",
"339 -184 OFFCURVE",
"357 -161 OFFCURVE",
"357 -134 CURVE SMOOTH",
"357 -115 LINE SMOOTH",
"357 -88 OFFCURVE",
"338 -66 OFFCURVE",
"310 -66 CURVE SMOOTH",
"290 -66 LINE SMOOTH",
"263 -66 OFFCURVE",
"243 -88 OFFCURVE",
"243 -115 CURVE SMOOTH",
"243 -134 LINE SMOOTH",
"243 -161 OFFCURVE",
"263 -184 OFFCURVE",
"290 -184 CURVE SMOOTH"
);
}
);
width = 548;
}
);
note = Ldotbelow;
unicode = 1E36;
},
{
glyphname = Ldotbelowmacron;
lastChange = "2015-07-18 10:50:32 +0000";
layers = (
{
layerId = "082782A7-7ED4-4E0F-8549-8BA7EDA0D1AE";
name = Regular;
paths = (
{
closed = 1;
nodes = (
"501 0 LINE SMOOTH",
"528 0 OFFCURVE",
"537 10 OFFCURVE",
"537 34 CURVE SMOOTH",
"537 61 LINE SMOOTH",
"537 86 OFFCURVE",
"528 97 OFFCURVE",
"501 97 CURVE SMOOTH",
"195 97 LINE",
"195 643 LINE SMOOTH",
"195 667 OFFCURVE",
"185 680 OFFCURVE",
"157 680 CURVE SMOOTH",
"104 680 LINE SMOOTH",
"77 680 OFFCURVE",
"67 667 OFFCURVE",
"67 643 CURVE SMOOTH",
"67 36 LINE SMOOTH",
"67 12 OFFCURVE",
"77 0 OFFCURVE",
"104 0 CURVE SMOOTH"
);
},
{
closed = 1;
nodes = (
"319 -184 LINE SMOOTH",
"348 -184 OFFCURVE",
"366 -161 OFFCURVE",
"366 -134 CURVE SMOOTH",
"366 -115 LINE SMOOTH",
"366 -88 OFFCURVE",
"347 -66 OFFCURVE",
"319 -66 CURVE SMOOTH",
"299 -66 LINE SMOOTH",
"272 -66 OFFCURVE",
"252 -88 OFFCURVE",
"252 -115 CURVE SMOOTH",
"252 -134 LINE SMOOTH",
"252 -161 OFFCURVE",
"272 -184 OFFCURVE",
"299 -184 CURVE SMOOTH"
);
},
{
closed = 1;
nodes = (
"267 765 LINE SMOOTH",
"294 765 OFFCURVE",
"303 775 OFFCURVE",
"303 800 CURVE SMOOTH",
"303 826 LINE SMOOTH",
"303 851 OFFCURVE",
"294 862 OFFCURVE",
"267 862 CURVE SMOOTH",
"-6 862 LINE SMOOTH",
"-33 862 OFFCURVE",
"-42 851 OFFCURVE",
"-42 826 CURVE SMOOTH",
"-42 800 LINE SMOOTH",
"-42 775 OFFCURVE",
"-33 765 OFFCURVE",
"-6 765 CURVE SMOOTH"
);
}
);
width = 556;
}
);
note = Ldotbelowmacron;
unicode = 1E38;
},
{
glyphname = Llinebelow;
lastChange = "2015-07-18 10:50:33 +0000";
layers = (
{
layerId = "082782A7-7ED4-4E0F-8549-8BA7EDA0D1AE";
name = Regular;
paths = (
{
closed = 1;
nodes = (
"493 0 LINE SMOOTH",
"520 0 OFFCURVE",
"529 10 OFFCURVE",
"529 34 CURVE SMOOTH",
"529 61 LINE SMOOTH",
"529 86 OFFCURVE",
"520 97 OFFCURVE",
"493 97 CURVE SMOOTH",
"187 97 LINE",
"187 643 LINE SMOOTH",
"187 667 OFFCURVE",
"177 680 OFFCURVE",
"149 680 CURVE SMOOTH",
"96 680 LINE SMOOTH",
"69 680 OFFCURVE",
"59 667 OFFCURVE",
"59 643 CURVE SMOOTH",
"59 36 LINE SMOOTH",
"59 12 OFFCURVE",
"69 0 OFFCURVE",
"96 0 CURVE SMOOTH"
);
},
{
closed = 1;
nodes = (
"409 -161 LINE SMOOTH",
"436 -161 OFFCURVE",
"445 -151 OFFCURVE",
"445 -126 CURVE SMOOTH",
"445 -107 LINE SMOOTH",
"445 -83 OFFCURVE",
"436 -71 OFFCURVE",
"409 -71 CURVE SMOOTH",
"149 -71 LINE SMOOTH",
"122 -71 OFFCURVE",
"113 -83 OFFCURVE",
"113 -107 CURVE SMOOTH",
"113 -126 LINE SMOOTH",
"113 -151 OFFCURVE",
"122 -161 OFFCURVE",
"149 -161 CURVE SMOOTH"
);
}
);
width = 548;
}
);
note = Llinebelow;
unicode = 1E3A;
},
{
glyphname = Lslash;
lastChange = "2015-07-18 10:50:32 +0000";
layers = (
{
layerId = "082782A7-7ED4-4E0F-8549-8BA7EDA0D1AE";
name = Regular;
paths = (
{
closed = 1;
nodes = (
"573 0 LINE SMOOTH",
"600 0 OFFCURVE",
"609 10 OFFCURVE",
"609 34 CURVE SMOOTH",
"609 61 LINE SMOOTH",
"609 86 OFFCURVE",
"600 97 OFFCURVE",
"573 97 CURVE SMOOTH",
"267 97 LINE",
"267 643 LINE SMOOTH",
"267 667 OFFCURVE",
"257 680 OFFCURVE",
"229 680 CURVE SMOOTH",
"177 680 LINE SMOOTH",
"149 680 OFFCURVE",
"139 667 OFFCURVE",
"139 643 CURVE SMOOTH",
"139 36 LINE SMOOTH",
"139 12 OFFCURVE",
"149 0 OFFCURVE",
"177 0 CURVE SMOOTH"
);
},
{
closed = 1;
nodes = (
"391 390 LINE SMOOTH",
"404 397 OFFCURVE",
"409 405 OFFCURVE",
"401 418 CURVE SMOOTH",
"375 461 LINE SMOOTH",
"366 475 OFFCURVE",
"358 477 OFFCURVE",
"345 469 CURVE SMOOTH",
"22 285 LINE SMOOTH",
"9 278 OFFCURVE",
"5 269 OFFCURVE",
"14 255 CURVE",
"39 212 LINE SMOOTH",
"47 198 OFFCURVE",
"56 198 OFFCURVE",
"69 206 CURVE SMOOTH"
);
}
);
width = 628;
}
);
note = Lslash;
unicode = 0141;
},
{
glyphname = M;
lastChange = "2015-07-18 10:50:28 +0000";
layers = (
{
layerId = "082782A7-7ED4-4E0F-8549-8BA7EDA0D1AE";
name = Regular;
paths = (
{
closed = 1;
nodes = (
"140 0 LINE SMOOTH",
"168 0 OFFCURVE",
"178 12 OFFCURVE",
"178 36 CURVE SMOOTH",
"178 467 LINE",
"349 86 LINE SMOOTH",
"357 67 OFFCURVE",
"366 56 OFFCURVE",
"391 56 CURVE SMOOTH",
"417 56 OFFCURVE",
"424 67 OFFCURVE",
"433 86 CURVE SMOOTH",
"604 467 LINE",
"604 36 LINE SMOOTH",
"604 12 OFFCURVE",
"614 0 OFFCURVE",
"642 0 CURVE SMOOTH",
"686 0 LINE SMOOTH",
"713 0 OFFCURVE",
"723 12 OFFCURVE",
"723 36 CURVE SMOOTH",
"723 643 LINE SMOOTH",
"723 668 OFFCURVE",
"713 680 OFFCURVE",
"685 680 CURVE SMOOTH",
"631 680 LINE SMOOTH",
"612 680 OFFCURVE",
"600 677 OFFCURVE",
"593 660 CURVE SMOOTH",
"391 195 LINE",
"189 660 LINE SMOOTH",
"182 677 OFFCURVE",
"170 680 OFFCURVE",
"151 680 CURVE SMOOTH",
"97 680 LINE SMOOTH",
"69 680 OFFCURVE",
"59 668 OFFCURVE",
"59 643 CURVE SMOOTH",
"59 36 LINE SMOOTH",
"59 12 OFFCURVE",
"69 0 OFFCURVE",
"96 0 CURVE SMOOTH"
);
}
);
width = 782;
}
);
note = M;
unicode = 004D;
},
{
glyphname = Mdotbelow;
lastChange = "2015-07-18 10:50:34 +0000";
layers = (
{
layerId = "082782A7-7ED4-4E0F-8549-8BA7EDA0D1AE";
name = Regular;
paths = (
{
closed = 1;
nodes = (
"140 0 LINE SMOOTH",
"168 0 OFFCURVE",
"178 12 OFFCURVE",
"178 36 CURVE SMOOTH",
"178 467 LINE",
"349 86 LINE SMOOTH",
"357 67 OFFCURVE",
"366 56 OFFCURVE",
"391 56 CURVE SMOOTH",
"417 56 OFFCURVE",
"424 67 OFFCURVE",
"433 86 CURVE SMOOTH",
"604 467 LINE",
"604 36 LINE SMOOTH",
"604 12 OFFCURVE",
"614 0 OFFCURVE",
"642 0 CURVE SMOOTH",
"686 0 LINE SMOOTH",
"713 0 OFFCURVE",
"723 12 OFFCURVE",
"723 36 CURVE SMOOTH",
"723 643 LINE SMOOTH",
"723 668 OFFCURVE",
"713 680 OFFCURVE",
"685 680 CURVE SMOOTH",
"631 680 LINE SMOOTH",
"612 680 OFFCURVE",
"600 677 OFFCURVE",
"593 660 CURVE SMOOTH",
"391 195 LINE",
"189 660 LINE SMOOTH",
"182 677 OFFCURVE",
"170 680 OFFCURVE",
"151 680 CURVE SMOOTH",
"97 680 LINE SMOOTH",
"69 680 OFFCURVE",
"59 668 OFFCURVE",
"59 643 CURVE SMOOTH",
"59 36 LINE SMOOTH",
"59 12 OFFCURVE",
"69 0 OFFCURVE",
"96 0 CURVE SMOOTH"
);
},
{
closed = 1;
nodes = (
"404 -184 LINE SMOOTH",
"433 -184 OFFCURVE",
"451 -161 OFFCURVE",
"451 -134 CURVE SMOOTH",
"451 -115 LINE SMOOTH",
"451 -88 OFFCURVE",
"432 -66 OFFCURVE",
"404 -66 CURVE SMOOTH",
"384 -66 LINE SMOOTH",
"357 -66 OFFCURVE",
"337 -88 OFFCURVE",
"337 -115 CURVE SMOOTH",
"337 -134 LINE SMOOTH",
"337 -161 OFFCURVE",
"357 -184 OFFCURVE",
"384 -184 CURVE SMOOTH"
);
}
);
width = 782;
}
);
note = Mdotbelow;
unicode = 1E42;
},
{
glyphname = N;
lastChange = "2015-07-18 10:50:28 +0000";
layers = (
{
layerId = "082782A7-7ED4-4E0F-8549-8BA7EDA0D1AE";
name = Regular;
paths = (
{
closed = 1;
nodes = (
"149 0 LINE SMOOTH",
"177 0 OFFCURVE",
"187 12 OFFCURVE",
"187 36 CURVE SMOOTH",
"187 476 LINE",
"517 19 LINE SMOOTH",
"529 3 OFFCURVE",
"536 0 OFFCURVE",
"554 0 CURVE SMOOTH",
"601 0 LINE SMOOTH",
"629 0 OFFCURVE",
"639 12 OFFCURVE",
"639 36 CURVE SMOOTH",
"639 643 LINE SMOOTH",
"639 667 OFFCURVE",
"629 680 OFFCURVE",
"601 680 CURVE SMOOTH",
"548 680 LINE SMOOTH",
"521 680 OFFCURVE",
"511 667 OFFCURVE",
"511 643 CURVE SMOOTH",
"511 202 LINE",
"181 660 LINE SMOOTH",
"170 676 OFFCURVE",
"162 680 OFFCURVE",
"143 680 CURVE SMOOTH",
"97 680 LINE SMOOTH",
"69 680 OFFCURVE",
"59 668 OFFCURVE",
"59 643 CURVE SMOOTH",
"59 36 LINE SMOOTH",
"59 12 OFFCURVE",
"69 0 OFFCURVE",
"96 0 CURVE SMOOTH"
);
}
);
width = 698;
}
);
note = N;
unicode = 004E;
},
{
glyphname = Nacute;
lastChange = "2015-07-18 10:50:34 +0000";
layers = (
{
layerId = "082782A7-7ED4-4E0F-8549-8BA7EDA0D1AE";
name = Regular;
paths = (
{
closed = 1;
nodes = (
"149 0 LINE SMOOTH",
"177 0 OFFCURVE",
"187 12 OFFCURVE",
"187 36 CURVE SMOOTH",
"187 476 LINE",
"517 19 LINE SMOOTH",
"529 3 OFFCURVE",
"536 0 OFFCURVE",
"554 0 CURVE SMOOTH",
"601 0 LINE SMOOTH",
"629 0 OFFCURVE",
"639 12 OFFCURVE",
"639 36 CURVE SMOOTH",
"639 643 LINE SMOOTH",
"639 667 OFFCURVE",
"629 680 OFFCURVE",
"601 680 CURVE SMOOTH",
"548 680 LINE SMOOTH",
"521 680 OFFCURVE",
"511 667 OFFCURVE",
"511 643 CURVE SMOOTH",
"511 202 LINE",
"181 660 LINE SMOOTH",
"170 676 OFFCURVE",
"162 680 OFFCURVE",
"143 680 CURVE SMOOTH",
"97 680 LINE SMOOTH",
"69 680 OFFCURVE",
"59 668 OFFCURVE",
"59 643 CURVE SMOOTH",
"59 36 LINE SMOOTH",
"59 12 OFFCURVE",
"69 0 OFFCURVE",
"96 0 CURVE SMOOTH"
);
},
{
closed = 1;
nodes = (
"363 741 LINE SMOOTH",
"389 741 OFFCURVE",
"396 746 OFFCURVE",
"405 763 CURVE SMOOTH",
"471 892 LINE SMOOTH",
"482 913 OFFCURVE",
"472 924 OFFCURVE",
"450 924 CURVE SMOOTH",
"376 924 LINE SMOOTH",
"351 924 OFFCURVE",
"346 917 OFFCURVE",
"339 900 CURVE",
"292 769 LINE SMOOTH",
"286 752 OFFCURVE",
"291 741 OFFCURVE",
"311 741 CURVE SMOOTH"
);
}
);
width = 698;
}
);
note = Nacute;
unicode = 0143;
},
{
glyphname = Ncaron;
lastChange = "2015-07-18 10:50:32 +0000";
layers = (
{
layerId = "082782A7-7ED4-4E0F-8549-8BA7EDA0D1AE";
name = Regular;
paths = (
{
closed = 1;
nodes = (
"149 0 LINE SMOOTH",
"177 0 OFFCURVE",
"187 12 OFFCURVE",
"187 36 CURVE SMOOTH",
"187 476 LINE",
"517 19 LINE SMOOTH",
"529 3 OFFCURVE",
"536 0 OFFCURVE",
"554 0 CURVE SMOOTH",
"601 0 LINE SMOOTH",
"629 0 OFFCURVE",
"639 12 OFFCURVE",
"639 36 CURVE SMOOTH",
"639 643 LINE SMOOTH",
"639 667 OFFCURVE",
"629 680 OFFCURVE",
"601 680 CURVE SMOOTH",
"548 680 LINE SMOOTH",
"521 680 OFFCURVE",
"511 667 OFFCURVE",
"511 643 CURVE SMOOTH",
"511 202 LINE",
"181 660 LINE SMOOTH",
"170 676 OFFCURVE",
"162 680 OFFCURVE",
"143 680 CURVE SMOOTH",
"97 680 LINE SMOOTH",
"69 680 OFFCURVE",
"59 668 OFFCURVE",
"59 643 CURVE SMOOTH",
"59 36 LINE SMOOTH",
"59 12 OFFCURVE",
"69 0 OFFCURVE",
"96 0 CURVE SMOOTH"
);
},
{
closed = 1;
nodes = (
"377 742 LINE SMOOTH",
"400 742 OFFCURVE",
"404 748 OFFCURVE",
"415 763 CURVE SMOOTH",
"519 904 LINE SMOOTH",
"533 922 OFFCURVE",
"529 936 OFFCURVE",
"508 936 CURVE SMOOTH",
"456 936 LINE SMOOTH",
"431 936 OFFCURVE",
"426 932 OFFCURVE",
"417 917 CURVE",
"349 816 LINE",
"280 917 LINE SMOOTH",
"270 932 OFFCURVE",
"265 936 OFFCURVE",
"241 936 CURVE SMOOTH",
"188 936 LINE SMOOTH",
"168 936 OFFCURVE",
"164 923 OFFCURVE",
"178 904 CURVE SMOOTH",
"282 763 LINE",
"294 748 OFFCURVE",
"297 742 OFFCURVE",
"320 742 CURVE SMOOTH"
);
}
);
width = 698;
}
);
note = Ncaron;
unicode = 0147;
},
{
glyphname = Ncommaaccent;
lastChange = "2015-07-18 10:50:33 +0000";
layers = (
{
layerId = "082782A7-7ED4-4E0F-8549-8BA7EDA0D1AE";
name = Regular;
paths = (
{
closed = 1;
nodes = (
"149 0 LINE SMOOTH",
"177 0 OFFCURVE",
"187 12 OFFCURVE",
"187 36 CURVE SMOOTH",
"187 476 LINE",
"517 19 LINE SMOOTH",
"529 3 OFFCURVE",
"536 0 OFFCURVE",
"554 0 CURVE SMOOTH",
"601 0 LINE SMOOTH",
"629 0 OFFCURVE",
"639 12 OFFCURVE",
"639 36 CURVE SMOOTH",
"639 643 LINE SMOOTH",
"639 667 OFFCURVE",
"629 680 OFFCURVE",
"601 680 CURVE SMOOTH",
"548 680 LINE SMOOTH",
"521 680 OFFCURVE",
"511 667 OFFCURVE",
"511 643 CURVE SMOOTH",
"511 202 LINE",
"181 660 LINE SMOOTH",
"170 676 OFFCURVE",
"162 680 OFFCURVE",
"143 680 CURVE SMOOTH",
"97 680 LINE SMOOTH",
"69 680 OFFCURVE",
"59 668 OFFCURVE",
"59 643 CURVE SMOOTH",
"59 36 LINE SMOOTH",
"59 12 OFFCURVE",
"69 0 OFFCURVE",
"96 0 CURVE SMOOTH"
);
},
{
closed = 1;
nodes = (
"322 -238 LINE SMOOTH",
"339 -238 OFFCURVE",
"347 -232 OFFCURVE",
"351 -221 CURVE",
"416 -69 LINE SMOOTH",
"426 -46 OFFCURVE",
"422 -36 OFFCURVE",
"396 -36 CURVE SMOOTH",
"344 -36 LINE SMOOTH",
"322 -36 OFFCURVE",
"314 -41 OFFCURVE",
"308 -62 CURVE SMOOTH",
"262 -213 LINE SMOOTH",
"257 -228 OFFCURVE",
"260 -238 OFFCURVE",
"278 -238 CURVE SMOOTH"
);
}
);
width = 698;
}
);
note = Ncommaaccent;
unicode = 0145;
},
{
glyphname = Ndotaccent;
lastChange = "2015-07-18 10:50:34 +0000";
layers = (
{
layerId = "082782A7-7ED4-4E0F-8549-8BA7EDA0D1AE";
name = Regular;
paths = (
{
closed = 1;
nodes = (
"149 0 LINE SMOOTH",
"177 0 OFFCURVE",
"187 12 OFFCURVE",
"187 36 CURVE SMOOTH",
"187 476 LINE",
"517 19 LINE SMOOTH",
"529 3 OFFCURVE",
"536 0 OFFCURVE",
"554 0 CURVE SMOOTH",
"601 0 LINE SMOOTH",
"629 0 OFFCURVE",
"639 12 OFFCURVE",
"639 36 CURVE SMOOTH",
"639 643 LINE SMOOTH",
"639 667 OFFCURVE",
"629 680 OFFCURVE",
"601 680 CURVE SMOOTH",
"548 680 LINE SMOOTH",
"521 680 OFFCURVE",
"511 667 OFFCURVE",
"511 643 CURVE SMOOTH",
"511 202 LINE",
"181 660 LINE SMOOTH",
"170 676 OFFCURVE",
"162 680 OFFCURVE",
"143 680 CURVE SMOOTH",
"97 680 LINE SMOOTH",
"69 680 OFFCURVE",
"59 668 OFFCURVE",
"59 643 CURVE SMOOTH",
"59 36 LINE SMOOTH",
"59 12 OFFCURVE",
"69 0 OFFCURVE",
"96 0 CURVE SMOOTH"
);
},
{
closed = 1;
nodes = (
"366 759 LINE SMOOTH",
"394 759 OFFCURVE",
"413 782 OFFCURVE",
"413 809 CURVE SMOOTH",
"413 828 LINE SMOOTH",
"413 855 OFFCURVE",
"393 877 OFFCURVE",
"366 877 CURVE SMOOTH",
"345 877 LINE SMOOTH",
"318 877 OFFCURVE",
"298 855 OFFCURVE",
"298 828 CURVE SMOOTH",
"298 809 LINE SMOOTH",
"298 782 OFFCURVE",
"318 759 OFFCURVE",
"345 759 CURVE SMOOTH"
);
}
);
width = 698;
}
);
note = Ndotaccent;
unicode = 1E44;
},
{
glyphname = Ndotbelow;
lastChange = "2015-07-18 10:50:32 +0000";
layers = (
{
layerId = "082782A7-7ED4-4E0F-8549-8BA7EDA0D1AE";
name = Regular;
paths = (
{
closed = 1;
nodes = (
"149 0 LINE SMOOTH",
"177 0 OFFCURVE",
"187 12 OFFCURVE",
"187 36 CURVE SMOOTH",
"187 476 LINE",
"517 19 LINE SMOOTH",
"529 3 OFFCURVE",
"536 0 OFFCURVE",
"554 0 CURVE SMOOTH",
"601 0 LINE SMOOTH",
"629 0 OFFCURVE",
"639 12 OFFCURVE",
"639 36 CURVE SMOOTH",
"639 643 LINE SMOOTH",
"639 667 OFFCURVE",
"629 680 OFFCURVE",
"601 680 CURVE SMOOTH",
"548 680 LINE SMOOTH",
"521 680 OFFCURVE",
"511 667 OFFCURVE",
"511 643 CURVE SMOOTH",
"511 202 LINE",
"181 660 LINE SMOOTH",
"170 676 OFFCURVE",
"162 680 OFFCURVE",
"143 680 CURVE SMOOTH",
"97 680 LINE SMOOTH",
"69 680 OFFCURVE",
"59 668 OFFCURVE",
"59 643 CURVE SMOOTH",
"59 36 LINE SMOOTH",
"59 12 OFFCURVE",
"69 0 OFFCURVE",
"96 0 CURVE SMOOTH"
);
},
{
closed = 1;
nodes = (
"367 -184 LINE SMOOTH",
"396 -184 OFFCURVE",
"414 -161 OFFCURVE",
"414 -134 CURVE SMOOTH",
"414 -115 LINE SMOOTH",
"414 -88 OFFCURVE",
"395 -66 OFFCURVE",
"367 -66 CURVE SMOOTH",
"347 -66 LINE SMOOTH",
"320 -66 OFFCURVE",
"300 -88 OFFCURVE",
"300 -115 CURVE SMOOTH",
"300 -134 LINE SMOOTH",
"300 -161 OFFCURVE",
"320 -184 OFFCURVE",
"347 -184 CURVE SMOOTH"
);
}
);
width = 698;
}
);
note = Ndotbelow;
unicode = 1E46;
},
{
glyphname = Eng;
lastChange = "2015-07-18 10:50:28 +0000";
layers = (
{
layerId = "082782A7-7ED4-4E0F-8549-8BA7EDA0D1AE";
name = Regular;
paths = (
{
closed = 1;
nodes = (
"572 -249 OFFCURVE",
"639 -164 OFFCURVE",
"639 -44 CURVE SMOOTH",
"639 643 LINE SMOOTH",
"639 667 OFFCURVE",
"629 680 OFFCURVE",
"601 680 CURVE SMOOTH",
"548 680 LINE SMOOTH",
"521 680 OFFCURVE",
"511 667 OFFCURVE",
"511 643 CURVE SMOOTH",
"511 202 LINE",
"181 660 LINE SMOOTH",
"170 676 OFFCURVE",
"162 680 OFFCURVE",
"143 680 CURVE SMOOTH",
"97 680 LINE SMOOTH",
"69 680 OFFCURVE",
"59 668 OFFCURVE",
"59 643 CURVE SMOOTH",
"59 36 LINE SMOOTH",
"59 12 OFFCURVE",
"69 0 OFFCURVE",
"96 0 CURVE SMOOTH",
"149 0 LINE SMOOTH",
"177 0 OFFCURVE",
"187 12 OFFCURVE",
"187 36 CURVE SMOOTH",
"187 476 LINE",
"511 28 LINE",
"511 -44 LINE SMOOTH",
"511 -117 OFFCURVE",
"481 -155 OFFCURVE",
"410 -155 CURVE SMOOTH",
"360 -155 OFFCURVE",
"314 -140 OFFCURVE",
"284 -121 CURVE SMOOTH",
"272 -113 OFFCURVE",
"266 -113 OFFCURVE",
"258 -126 CURVE SMOOTH",
"229 -174 LINE SMOOTH",
"222 -186 OFFCURVE",
"224 -195 OFFCURVE",
"234 -201 CURVE SMOOTH",
"284 -232 OFFCURVE",
"346 -249 OFFCURVE",
"423 -249 CURVE SMOOTH"
);
}
);
width = 698;
}
);
note = Eng;
unicode = 014A;
},
{
glyphname = Nlinebelow;
lastChange = "2015-07-18 10:50:33 +0000";
layers = (
{
layerId = "082782A7-7ED4-4E0F-8549-8BA7EDA0D1AE";
name = Regular;
paths = (
{
closed = 1;
nodes = (
"149 0 LINE SMOOTH",
"177 0 OFFCURVE",
"187 12 OFFCURVE",
"187 36 CURVE SMOOTH",
"187 476 LINE",
"517 19 LINE SMOOTH",
"529 3 OFFCURVE",
"536 0 OFFCURVE",
"554 0 CURVE SMOOTH",
"601 0 LINE SMOOTH",
"629 0 OFFCURVE",
"639 12 OFFCURVE",
"639 36 CURVE SMOOTH",
"639 643 LINE SMOOTH",
"639 667 OFFCURVE",
"629 680 OFFCURVE",
"601 680 CURVE SMOOTH",
"548 680 LINE SMOOTH",
"521 680 OFFCURVE",
"511 667 OFFCURVE",
"511 643 CURVE SMOOTH",
"511 202 LINE",
"181 660 LINE SMOOTH",
"170 676 OFFCURVE",
"162 680 OFFCURVE",
"143 680 CURVE SMOOTH",
"97 680 LINE SMOOTH",
"69 680 OFFCURVE",
"59 668 OFFCURVE",
"59 643 CURVE SMOOTH",
"59 36 LINE SMOOTH",
"59 12 OFFCURVE",
"69 0 OFFCURVE",
"96 0 CURVE SMOOTH"
);
},
{
closed = 1;
nodes = (
"479 -161 LINE SMOOTH",
"506 -161 OFFCURVE",
"515 -151 OFFCURVE",
"515 -126 CURVE SMOOTH",
"515 -107 LINE SMOOTH",
"515 -83 OFFCURVE",
"506 -71 OFFCURVE",
"479 -71 CURVE SMOOTH",
"219 -71 LINE SMOOTH",
"192 -71 OFFCURVE",
"183 -83 OFFCURVE",
"183 -107 CURVE SMOOTH",
"183 -126 LINE SMOOTH",
"183 -151 OFFCURVE",
"192 -161 OFFCURVE",
"219 -161 CURVE SMOOTH"
);
}
);
width = 698;
}
);
note = Nlinebelow;
unicode = 1E48;
},
{
glyphname = Ntilde;
lastChange = "2015-07-18 10:50:32 +0000";
layers = (
{
layerId = "082782A7-7ED4-4E0F-8549-8BA7EDA0D1AE";
name = Regular;
paths = (
{
closed = 1;
nodes = (
"149 0 LINE SMOOTH",
"177 0 OFFCURVE",
"187 12 OFFCURVE",
"187 36 CURVE SMOOTH",
"187 476 LINE",
"517 19 LINE SMOOTH",
"529 3 OFFCURVE",
"536 0 OFFCURVE",
"554 0 CURVE SMOOTH",
"601 0 LINE SMOOTH",
"629 0 OFFCURVE",
"639 12 OFFCURVE",
"639 36 CURVE SMOOTH",
"639 643 LINE SMOOTH",
"639 667 OFFCURVE",
"629 680 OFFCURVE",
"601 680 CURVE SMOOTH",
"548 680 LINE SMOOTH",
"521 680 OFFCURVE",
"511 667 OFFCURVE",
"511 643 CURVE SMOOTH",
"511 202 LINE",
"181 660 LINE SMOOTH",
"170 676 OFFCURVE",
"162 680 OFFCURVE",
"143 680 CURVE SMOOTH",
"97 680 LINE SMOOTH",
"69 680 OFFCURVE",
"59 668 OFFCURVE",
"59 643 CURVE SMOOTH",
"59 36 LINE SMOOTH",
"59 12 OFFCURVE",
"69 0 OFFCURVE",
"96 0 CURVE SMOOTH"
);
},
{
closed = 1;
nodes = (
"502 766 OFFCURVE",
"533 789 OFFCURVE",
"565 837 CURVE",
"581 859 OFFCURVE",
"579 872 OFFCURVE",
"553 892 CURVE SMOOTH",
"528 912 OFFCURVE",
"512 914 OFFCURVE",
"499 897 CURVE SMOOTH",
"478 869 OFFCURVE",
"464 860 OFFCURVE",
"437 860 CURVE SMOOTH",
"380 860 OFFCURVE",
"339 912 OFFCURVE",
"258 912 CURVE SMOOTH",
"208 912 OFFCURVE",
"178 884 OFFCURVE",
"150 849 CURVE SMOOTH",
"134 828 OFFCURVE",
"135 815 OFFCURVE",
"157 796 CURVE SMOOTH",
"181 775 OFFCURVE",
"197 771 OFFCURVE",
"210 787 CURVE",
"230 809 OFFCURVE",
"241 819 OFFCURVE",
"269 819 CURVE SMOOTH",
"322 819 OFFCURVE",
"377 766 OFFCURVE",
"444 766 CURVE SMOOTH"
);
}
);
width = 698;
}
);
note = Ntilde;
unicode = 00D1;
},
{
glyphname = O;
lastChange = "2015-07-18 10:50:33 +0000";
layers = (
{
layerId = "082782A7-7ED4-4E0F-8549-8BA7EDA0D1AE";
name = Regular;
paths = (
{
closed = 1;
nodes = (
"601 -15 OFFCURVE",
"723 116 OFFCURVE",
"723 340 CURVE SMOOTH",
"723 564 OFFCURVE",
"601 695 OFFCURVE",
"381 695 CURVE SMOOTH",
"160 695 OFFCURVE",
"39 564 OFFCURVE",
"39 340 CURVE SMOOTH",
"39 116 OFFCURVE",
"160 -15 OFFCURVE",
"381 -15 CURVE SMOOTH"
);
},
{
closed = 1;
nodes = (
"242 79 OFFCURVE",
"165 169 OFFCURVE",
"165 340 CURVE SMOOTH",
"165 511 OFFCURVE",
"242 600 OFFCURVE",
"381 600 CURVE SMOOTH",
"520 600 OFFCURVE",
"596 511 OFFCURVE",
"596 340 CURVE SMOOTH",
"596 169 OFFCURVE",
"520 79 OFFCURVE",
"381 79 CURVE SMOOTH"
);
}
);
width = 762;
}
);
note = O;
unicode = 004F;
},
{
glyphname = Oacute;
lastChange = "2015-07-18 10:50:34 +0000";
layers = (
{
layerId = "082782A7-7ED4-4E0F-8549-8BA7EDA0D1AE";
name = Regular;
paths = (
{
closed = 1;
nodes = (
"601 -15 OFFCURVE",
"723 116 OFFCURVE",
"723 340 CURVE SMOOTH",
"723 564 OFFCURVE",
"601 695 OFFCURVE",
"381 695 CURVE SMOOTH",
"160 695 OFFCURVE",
"39 564 OFFCURVE",
"39 340 CURVE SMOOTH",
"39 116 OFFCURVE",
"160 -15 OFFCURVE",
"381 -15 CURVE SMOOTH"
);
},
{
closed = 1;
nodes = (
"242 79 OFFCURVE",
"165 169 OFFCURVE",
"165 340 CURVE SMOOTH",
"165 511 OFFCURVE",
"242 600 OFFCURVE",
"381 600 CURVE SMOOTH",
"520 600 OFFCURVE",
"596 511 OFFCURVE",
"596 340 CURVE SMOOTH",
"596 169 OFFCURVE",
"520 79 OFFCURVE",
"381 79 CURVE SMOOTH"
);
},
{
closed = 1;
nodes = (
"388 753 LINE SMOOTH",
"414 753 OFFCURVE",
"421 758 OFFCURVE",
"430 775 CURVE SMOOTH",
"496 904 LINE SMOOTH",
"507 925 OFFCURVE",
"497 936 OFFCURVE",
"475 936 CURVE SMOOTH",
"401 936 LINE SMOOTH",
"376 936 OFFCURVE",
"371 929 OFFCURVE",
"364 912 CURVE",
"317 781 LINE SMOOTH",
"311 764 OFFCURVE",
"316 753 OFFCURVE",
"336 753 CURVE SMOOTH"
);
}
);
width = 762;
}
);
note = Oacute;
unicode = 00D3;
},
{
glyphname = Obreve;
lastChange = "2015-07-18 10:50:34 +0000";
layers = (
{
layerId = "082782A7-7ED4-4E0F-8549-8BA7EDA0D1AE";
name = Regular;
paths = (
{
closed = 1;
nodes = (
"601 -15 OFFCURVE",
"723 116 OFFCURVE",
"723 340 CURVE SMOOTH",
"723 564 OFFCURVE",
"601 695 OFFCURVE",
"381 695 CURVE SMOOTH",
"160 695 OFFCURVE",
"39 564 OFFCURVE",
"39 340 CURVE SMOOTH",
"39 116 OFFCURVE",
"160 -15 OFFCURVE",
"381 -15 CURVE SMOOTH"
);
},
{
closed = 1;
nodes = (
"242 79 OFFCURVE",
"165 169 OFFCURVE",
"165 340 CURVE SMOOTH",
"165 511 OFFCURVE",
"242 600 OFFCURVE",
"381 600 CURVE SMOOTH",
"520 600 OFFCURVE",
"596 511 OFFCURVE",
"596 340 CURVE SMOOTH",
"596 169 OFFCURVE",
"520 79 OFFCURVE",
"381 79 CURVE SMOOTH"
);
},
{
closed = 1;
nodes = (
"483 744 OFFCURVE",
"537 813 OFFCURVE",
"537 907 CURVE SMOOTH",
"537 918 OFFCURVE",
"531 925 OFFCURVE",
"521 925 CURVE SMOOTH",
"455 925 LINE SMOOTH",
"441 925 OFFCURVE",
"438 918 OFFCURVE",
"438 906 CURVE SMOOTH",
"438 862 OFFCURVE",
"423 831 OFFCURVE",
"372 831 CURVE SMOOTH",
"320 831 OFFCURVE",
"306 862 OFFCURVE",
"306 906 CURVE SMOOTH",
"306 918 OFFCURVE",
"303 925 OFFCURVE",
"289 925 CURVE SMOOTH",
"223 925 LINE SMOOTH",
"213 925 OFFCURVE",
"207 918 OFFCURVE",
"207 907 CURVE SMOOTH",
"207 813 OFFCURVE",
"259 744 OFFCURVE",
"372 744 CURVE SMOOTH"
);
}
);
width = 762;
}
);
note = Obreve;
unicode = 014E;
},
{
glyphname = Ocaron;
lastChange = "2015-07-18 10:50:33 +0000";
layers = (
{
layerId = "082782A7-7ED4-4E0F-8549-8BA7EDA0D1AE";
name = Regular;
paths = (
{
closed = 1;
nodes = (
"601 -15 OFFCURVE",
"723 116 OFFCURVE",
"723 340 CURVE SMOOTH",
"723 564 OFFCURVE",
"601 695 OFFCURVE",
"381 695 CURVE SMOOTH",
"160 695 OFFCURVE",
"39 564 OFFCURVE",
"39 340 CURVE SMOOTH",
"39 116 OFFCURVE",
"160 -15 OFFCURVE",
"381 -15 CURVE SMOOTH"
);
},
{
closed = 1;
nodes = (
"242 79 OFFCURVE",
"165 169 OFFCURVE",
"165 340 CURVE SMOOTH",
"165 511 OFFCURVE",
"242 600 OFFCURVE",
"381 600 CURVE SMOOTH",
"520 600 OFFCURVE",
"596 511 OFFCURVE",
"596 340 CURVE SMOOTH",
"596 169 OFFCURVE",
"520 79 OFFCURVE",
"381 79 CURVE SMOOTH"
);
},
{
closed = 1;
nodes = (
"399 742 LINE SMOOTH",
"422 742 OFFCURVE",
"426 748 OFFCURVE",
"437 763 CURVE SMOOTH",
"541 904 LINE SMOOTH",
"555 922 OFFCURVE",
"551 936 OFFCURVE",
"530 936 CURVE SMOOTH",
"478 936 LINE SMOOTH",
"453 936 OFFCURVE",
"448 932 OFFCURVE",
"439 917 CURVE",
"371 816 LINE",
"302 917 LINE SMOOTH",
"292 932 OFFCURVE",
"287 936 OFFCURVE",
"263 936 CURVE SMOOTH",
"210 936 LINE SMOOTH",
"190 936 OFFCURVE",
"186 923 OFFCURVE",
"200 904 CURVE SMOOTH",
"304 763 LINE",
"316 748 OFFCURVE",
"319 742 OFFCURVE",
"342 742 CURVE SMOOTH"
);
}
);
width = 762;
}
);
note = Ocaron;
unicode = 01D1;
},
{
glyphname = Ocircumflex;
lastChange = "2015-07-18 10:50:34 +0000";
layers = (
{
layerId = "082782A7-7ED4-4E0F-8549-8BA7EDA0D1AE";
name = Regular;
paths = (
{
closed = 1;
nodes = (
"601 -15 OFFCURVE",
"723 116 OFFCURVE",
"723 340 CURVE SMOOTH",
"723 564 OFFCURVE",
"601 695 OFFCURVE",
"381 695 CURVE SMOOTH",
"160 695 OFFCURVE",
"39 564 OFFCURVE",
"39 340 CURVE SMOOTH",
"39 116 OFFCURVE",
"160 -15 OFFCURVE",
"381 -15 CURVE SMOOTH"
);
},
{
closed = 1;
nodes = (
"242 79 OFFCURVE",
"165 169 OFFCURVE",
"165 340 CURVE SMOOTH",
"165 511 OFFCURVE",
"242 600 OFFCURVE",
"381 600 CURVE SMOOTH",
"520 600 OFFCURVE",
"596 511 OFFCURVE",
"596 340 CURVE SMOOTH",
"596 169 OFFCURVE",
"520 79 OFFCURVE",
"381 79 CURVE SMOOTH"
);
},
{
closed = 1;
nodes = (
"273 750 LINE SMOOTH",
"297 750 OFFCURVE",
"304 757 OFFCURVE",
"313 771 CURVE SMOOTH",
"381 871 LINE",
"448 771 LINE SMOOTH",
"458 757 OFFCURVE",
"464 750 OFFCURVE",
"489 750 CURVE SMOOTH",
"536 750 LINE SMOOTH",
"556 750 OFFCURVE",
"565 763 OFFCURVE",
"551 782 CURVE SMOOTH",
"447 923 LINE SMOOTH",
"436 938 OFFCURVE",
"432 945 OFFCURVE",
"409 945 CURVE SMOOTH",
"352 945 LINE SMOOTH",
"329 945 OFFCURVE",
"326 938 OFFCURVE",
"314 923 CURVE",
"210 782 LINE SMOOTH",
"196 763 OFFCURVE",
"205 750 OFFCURVE",
"226 750 CURVE SMOOTH"
);
}
);
width = 762;
}
);
note = Ocircumflex;
unicode = 00D4;
},
{
glyphname = Ocircumflexacute;
lastChange = "2015-07-18 10:50:33 +0000";
layers = (
{
layerId = "082782A7-7ED4-4E0F-8549-8BA7EDA0D1AE";
name = Regular;
paths = (
{
closed = 1;
nodes = (
"601 -15 OFFCURVE",
"723 116 OFFCURVE",
"723 340 CURVE SMOOTH",
"723 564 OFFCURVE",
"601 695 OFFCURVE",
"381 695 CURVE SMOOTH",
"160 695 OFFCURVE",
"39 564 OFFCURVE",
"39 340 CURVE SMOOTH",
"39 116 OFFCURVE",
"160 -15 OFFCURVE",
"381 -15 CURVE SMOOTH"
);
},
{
closed = 1;
nodes = (
"242 79 OFFCURVE",
"165 169 OFFCURVE",
"165 340 CURVE SMOOTH",
"165 511 OFFCURVE",
"242 600 OFFCURVE",
"381 600 CURVE SMOOTH",
"520 600 OFFCURVE",
"596 511 OFFCURVE",
"596 340 CURVE SMOOTH",
"596 169 OFFCURVE",
"520 79 OFFCURVE",
"381 79 CURVE SMOOTH"
);
},
{
closed = 1;
nodes = (
"276 747 LINE SMOOTH",
"298 747 OFFCURVE",
"305 750 OFFCURVE",
"315 765 CURVE",
"381 848 LINE",
"446 765 LINE SMOOTH",
"457 751 OFFCURVE",
"463 747 OFFCURVE",
"485 747 CURVE SMOOTH",
"530 747 LINE SMOOTH",
"551 747 OFFCURVE",
"559 761 OFFCURVE",
"544 779 CURVE SMOOTH",
"443 902 LINE",
"432 917 OFFCURVE",
"426 924 OFFCURVE",
"403 924 CURVE SMOOTH",
"358 924 LINE SMOOTH",
"335 924 OFFCURVE",
"330 917 OFFCURVE",
"318 902 CURVE SMOOTH",
"217 779 LINE SMOOTH",
"202 761 OFFCURVE",
"210 747 OFFCURVE",
"231 747 CURVE SMOOTH"
);
},
{
closed = 1;
nodes = (
"533 877 LINE SMOOTH",
"556 877 OFFCURVE",
"562 881 OFFCURVE",
"572 899 CURVE SMOOTH",
"621 992 LINE",
"632 1011 OFFCURVE",
"626 1023 OFFCURVE",
"605 1023 CURVE SMOOTH",
"555 1023 LINE SMOOTH",
"532 1023 OFFCURVE",
"527 1017 OFFCURVE",
"521 999 CURVE SMOOTH",
"486 902 LINE SMOOTH",
"481 888 OFFCURVE",
"486 877 OFFCURVE",
"503 877 CURVE SMOOTH"
);
}
);
width = 762;
}
);
note = Ocircumflexacute;
unicode = 1ED0;
},
{
glyphname = Ocircumflexdotbelow;
lastChange = "2015-07-18 10:50:32 +0000";
layers = (
{
layerId = "082782A7-7ED4-4E0F-8549-8BA7EDA0D1AE";
name = Regular;
paths = (
{
closed = 1;
nodes = (
"601 -15 OFFCURVE",
"723 116 OFFCURVE",
"723 340 CURVE SMOOTH",
"723 564 OFFCURVE",
"601 695 OFFCURVE",
"381 695 CURVE SMOOTH",
"160 695 OFFCURVE",
"39 564 OFFCURVE",
"39 340 CURVE SMOOTH",
"39 116 OFFCURVE",
"160 -15 OFFCURVE",
"381 -15 CURVE SMOOTH"
);
},
{
closed = 1;
nodes = (
"379 -184 LINE SMOOTH",
"408 -184 OFFCURVE",
"426 -161 OFFCURVE",
"426 -134 CURVE SMOOTH",
"426 -115 LINE SMOOTH",
"426 -88 OFFCURVE",
"407 -66 OFFCURVE",
"379 -66 CURVE SMOOTH",
"359 -66 LINE SMOOTH",
"332 -66 OFFCURVE",
"312 -88 OFFCURVE",
"312 -115 CURVE SMOOTH",
"312 -134 LINE SMOOTH",
"312 -161 OFFCURVE",
"332 -184 OFFCURVE",
"359 -184 CURVE SMOOTH"
);
},
{
closed = 1;
nodes = (
"242 79 OFFCURVE",
"165 169 OFFCURVE",
"165 340 CURVE SMOOTH",
"165 511 OFFCURVE",
"242 600 OFFCURVE",
"381 600 CURVE SMOOTH",
"520 600 OFFCURVE",
"596 511 OFFCURVE",
"596 340 CURVE SMOOTH",
"596 169 OFFCURVE",
"520 79 OFFCURVE",
"381 79 CURVE SMOOTH"
);
},
{
closed = 1;
nodes = (
"273 742 LINE SMOOTH",
"297 742 OFFCURVE",
"304 749 OFFCURVE",
"313 763 CURVE SMOOTH",
"381 863 LINE",
"448 763 LINE SMOOTH",
"458 749 OFFCURVE",
"464 742 OFFCURVE",
"489 742 CURVE SMOOTH",
"536 742 LINE SMOOTH",
"556 742 OFFCURVE",
"565 755 OFFCURVE",
"551 774 CURVE SMOOTH",
"447 915 LINE SMOOTH",
"436 930 OFFCURVE",
"432 937 OFFCURVE",
"409 937 CURVE SMOOTH",
"352 937 LINE SMOOTH",
"329 937 OFFCURVE",
"326 930 OFFCURVE",
"314 915 CURVE",
"210 774 LINE SMOOTH",
"196 755 OFFCURVE",
"205 742 OFFCURVE",
"226 742 CURVE SMOOTH"
);
}
);
width = 762;
}
);
note = Ocircumflexdotbelow;
unicode = 1ED8;
},
{
glyphname = Ocircumflexgrave;
lastChange = "2015-07-18 10:50:32 +0000";
layers = (
{
layerId = "082782A7-7ED4-4E0F-8549-8BA7EDA0D1AE";
name = Regular;
paths = (
{
closed = 1;
nodes = (
"601 -15 OFFCURVE",
"723 116 OFFCURVE",
"723 340 CURVE SMOOTH",
"723 564 OFFCURVE",
"601 695 OFFCURVE",
"381 695 CURVE SMOOTH",
"160 695 OFFCURVE",
"39 564 OFFCURVE",
"39 340 CURVE SMOOTH",
"39 116 OFFCURVE",
"160 -15 OFFCURVE",
"381 -15 CURVE SMOOTH"
);
},
{
closed = 1;
nodes = (
"242 79 OFFCURVE",
"165 169 OFFCURVE",
"165 340 CURVE SMOOTH",
"165 511 OFFCURVE",
"242 600 OFFCURVE",
"381 600 CURVE SMOOTH",
"520 600 OFFCURVE",
"596 511 OFFCURVE",
"596 340 CURVE SMOOTH",
"596 169 OFFCURVE",
"520 79 OFFCURVE",
"381 79 CURVE SMOOTH"
);
},
{
closed = 1;
nodes = (
"259 876 LINE SMOOTH",
"276 876 OFFCURVE",
"281 887 OFFCURVE",
"276 901 CURVE SMOOTH",
"241 998 LINE SMOOTH",
"235 1016 OFFCURVE",
"230 1022 OFFCURVE",
"207 1022 CURVE SMOOTH",
"157 1022 LINE SMOOTH",
"136 1022 OFFCURVE",
"131 1010 OFFCURVE",
"141 991 CURVE SMOOTH",
"190 898 LINE SMOOTH",
"200 880 OFFCURVE",
"206 876 OFFCURVE",
"229 876 CURVE SMOOTH"
);
},
{
closed = 1;
nodes = (
"277 746 LINE SMOOTH",
"299 746 OFFCURVE",
"305 750 OFFCURVE",
"316 764 CURVE SMOOTH",
"381 847 LINE",
"447 764 LINE SMOOTH",
"458 750 OFFCURVE",
"464 746 OFFCURVE",
"486 746 CURVE SMOOTH",
"531 746 LINE SMOOTH",
"552 746 OFFCURVE",
"560 760 OFFCURVE",
"545 778 CURVE SMOOTH",
"444 901 LINE SMOOTH",
"432 916 OFFCURVE",
"427 923 OFFCURVE",
"404 923 CURVE SMOOTH",
"359 923 LINE SMOOTH",
"336 923 OFFCURVE",
"331 915 OFFCURVE",
"319 901 CURVE SMOOTH",
"218 778 LINE SMOOTH",
"203 760 OFFCURVE",
"211 746 OFFCURVE",
"232 746 CURVE SMOOTH"
);
}
);
width = 762;
}
);
note = Ocircumflexgrave;
unicode = 1ED2;
},
{
glyphname = Ocircumflexhookabove;
lastChange = "2015-07-18 10:50:33 +0000";
layers = (
{
layerId = "082782A7-7ED4-4E0F-8549-8BA7EDA0D1AE";
name = Regular;
paths = (
{
closed = 1;
nodes = (
"601 -15 OFFCURVE",
"723 116 OFFCURVE",
"723 340 CURVE SMOOTH",
"723 564 OFFCURVE",
"601 695 OFFCURVE",
"381 695 CURVE SMOOTH",
"160 695 OFFCURVE",
"39 564 OFFCURVE",
"39 340 CURVE SMOOTH",
"39 116 OFFCURVE",
"160 -15 OFFCURVE",
"381 -15 CURVE SMOOTH"
);
},
{
closed = 1;
nodes = (
"242 79 OFFCURVE",
"165 169 OFFCURVE",
"165 340 CURVE SMOOTH",
"165 511 OFFCURVE",
"242 600 OFFCURVE",
"381 600 CURVE SMOOTH",
"520 600 OFFCURVE",
"596 511 OFFCURVE",
"596 340 CURVE SMOOTH",
"596 169 OFFCURVE",
"520 79 OFFCURVE",
"381 79 CURVE SMOOTH"
);
},
{
closed = 1;
nodes = (
"286 747 LINE SMOOTH",
"299 747 OFFCURVE",
"302 749 OFFCURVE",
"307 755 CURVE SMOOTH",
"381 847 LINE",
"456 755 LINE SMOOTH",
"461 749 OFFCURVE",
"464 747 OFFCURVE",
"477 747 CURVE SMOOTH",
"548 747 LINE SMOOTH",
"560 747 OFFCURVE",
"564 757 OFFCURVE",
"556 766 CURVE SMOOTH",
"444 898 LINE SMOOTH",
"432 913 OFFCURVE",
"427 919 OFFCURVE",
"404 919 CURVE SMOOTH",
"359 919 LINE SMOOTH",
"336 919 OFFCURVE",
"331 912 OFFCURVE",
"319 898 CURVE SMOOTH",
"207 766 LINE SMOOTH",
"199 757 OFFCURVE",
"203 747 OFFCURVE",
"215 747 CURVE SMOOTH"
);
},
{
closed = 1;
nodes = (
"544 862 LINE SMOOTH",
"557 862 OFFCURVE",
"564 869 OFFCURVE",
"564 882 CURVE SMOOTH",
"564 896 LINE",
"602 896 OFFCURVE",
"636 919 OFFCURVE",
"636 967 CURVE SMOOTH",
"636 1015 OFFCURVE",
"604 1042 OFFCURVE",
"539 1042 CURVE SMOOTH",
"507 1042 OFFCURVE",
"471 1035 OFFCURVE",
"450 1021 CURVE",
"446 1018 OFFCURVE",
"445 1016 OFFCURVE",
"447 1011 CURVE",
"465 975 LINE SMOOTH",
"467 971 OFFCURVE",
"469 971 OFFCURVE",
"473 973 CURVE",
"487 981 OFFCURVE",
"507 987 OFFCURVE",
"526 987 CURVE SMOOTH",
"549 987 OFFCURVE",
"560 980 OFFCURVE",
"560 964 CURVE SMOOTH",
"560 945 OFFCURVE",
"550 938 OFFCURVE",
"520 938 CURVE SMOOTH",
"499 938 OFFCURVE",
"489 929 OFFCURVE",
"489 910 CURVE SMOOTH",
"489 882 LINE SMOOTH",
"489 869 OFFCURVE",
"496 862 OFFCURVE",
"510 862 CURVE SMOOTH"
);
}
);
width = 762;
}
);
note = Ocircumflexhookabove;
unicode = 1ED4;
},
{
glyphname = Ocircumflextilde;
lastChange = "2015-07-18 10:50:33 +0000";
layers = (
{
layerId = "082782A7-7ED4-4E0F-8549-8BA7EDA0D1AE";
name = Regular;
paths = (
{
closed = 1;
nodes = (
"601 -15 OFFCURVE",
"723 116 OFFCURVE",
"723 340 CURVE SMOOTH",
"723 564 OFFCURVE",
"601 695 OFFCURVE",
"381 695 CURVE SMOOTH",
"160 695 OFFCURVE",
"39 564 OFFCURVE",
"39 340 CURVE SMOOTH",
"39 116 OFFCURVE",
"160 -15 OFFCURVE",
"381 -15 CURVE SMOOTH"
);
},
{
closed = 1;
nodes = (
"242 79 OFFCURVE",
"165 169 OFFCURVE",
"165 340 CURVE SMOOTH",
"165 511 OFFCURVE",
"242 600 OFFCURVE",
"381 600 CURVE SMOOTH",
"520 600 OFFCURVE",
"596 511 OFFCURVE",
"596 340 CURVE SMOOTH",
"596 169 OFFCURVE",
"520 79 OFFCURVE",
"381 79 CURVE SMOOTH"
);
},
{
closed = 1;
nodes = (
"484 747 OFFCURVE",
"546 806 OFFCURVE",
"546 890 CURVE SMOOTH",
"546 901 OFFCURVE",
"540 908 OFFCURVE",
"530 908 CURVE SMOOTH",
"465 908 LINE SMOOTH",
"451 908 OFFCURVE",
"448 901 OFFCURVE",
"448 889 CURVE SMOOTH",
"448 855 OFFCURVE",
"428 827 OFFCURVE",
"381 827 CURVE SMOOTH",
"335 827 OFFCURVE",
"314 855 OFFCURVE",
"314 889 CURVE SMOOTH",
"314 901 OFFCURVE",
"311 908 OFFCURVE",
"297 908 CURVE SMOOTH",
"232 908 LINE SMOOTH",
"222 908 OFFCURVE",
"216 901 OFFCURVE",
"216 890 CURVE SMOOTH",
"216 806 OFFCURVE",
"280 747 OFFCURVE",
"381 747 CURVE SMOOTH"
);
},
{
closed = 1;
nodes = (
"488 933 OFFCURVE",
"516 951 OFFCURVE",
"543 988 CURVE SMOOTH",
"557 1007 OFFCURVE",
"556 1016 OFFCURVE",
"536 1032 CURVE",
"513 1049 OFFCURVE",
"502 1050 OFFCURVE",
"490 1034 CURVE SMOOTH",
"474 1013 OFFCURVE",
"463 1006 OFFCURVE",
"440 1006 CURVE SMOOTH",
"395 1006 OFFCURVE",
"372 1049 OFFCURVE",
"306 1049 CURVE SMOOTH",
"264 1049 OFFCURVE",
"235 1027 OFFCURVE",
"211 993 CURVE SMOOTH",
"197 974 OFFCURVE",
"203 965 OFFCURVE",
"218 952 CURVE SMOOTH",
"239 935 OFFCURVE",
"252 932 OFFCURVE",
"264 947 CURVE SMOOTH",
"279 965 OFFCURVE",
"290 975 OFFCURVE",
"314 975 CURVE SMOOTH",
"358 975 OFFCURVE",
"388 933 OFFCURVE",
"444 933 CURVE SMOOTH"
);
}
);
width = 762;
}
);
note = Ocircumflextilde;
unicode = 1ED6;
},
{
glyphname = Odieresis;
lastChange = "2015-07-18 10:50:33 +0000";
layers = (
{
layerId = "082782A7-7ED4-4E0F-8549-8BA7EDA0D1AE";
name = Regular;
paths = (
{
closed = 1;
nodes = (
"601 -15 OFFCURVE",
"723 116 OFFCURVE",
"723 340 CURVE SMOOTH",
"723 564 OFFCURVE",
"601 695 OFFCURVE",
"381 695 CURVE SMOOTH",
"160 695 OFFCURVE",
"39 564 OFFCURVE",
"39 340 CURVE SMOOTH",
"39 116 OFFCURVE",
"160 -15 OFFCURVE",
"381 -15 CURVE SMOOTH"
);
},
{
closed = 1;
nodes = (
"242 79 OFFCURVE",
"165 169 OFFCURVE",
"165 340 CURVE SMOOTH",
"165 511 OFFCURVE",
"242 600 OFFCURVE",
"381 600 CURVE SMOOTH",
"520 600 OFFCURVE",
"596 511 OFFCURVE",
"596 340 CURVE SMOOTH",
"596 169 OFFCURVE",
"520 79 OFFCURVE",
"381 79 CURVE SMOOTH"
);
},
{
closed = 1;
nodes = (
"292 747 LINE SMOOTH",
"321 747 OFFCURVE",
"339 770 OFFCURVE",
"339 797 CURVE SMOOTH",
"339 816 LINE SMOOTH",
"339 843 OFFCURVE",
"320 865 OFFCURVE",
"292 865 CURVE SMOOTH",
"272 865 LINE SMOOTH",
"244 865 OFFCURVE",
"225 843 OFFCURVE",
"225 816 CURVE SMOOTH",
"225 797 LINE SMOOTH",
"225 770 OFFCURVE",
"244 747 OFFCURVE",
"272 747 CURVE SMOOTH"
);
},
{
closed = 1;
nodes = (
"489 747 LINE SMOOTH",
"518 747 OFFCURVE",
"536 770 OFFCURVE",
"536 797 CURVE SMOOTH",
"536 816 LINE SMOOTH",
"536 843 OFFCURVE",
"517 865 OFFCURVE",
"489 865 CURVE SMOOTH",
"469 865 LINE SMOOTH",
"442 865 OFFCURVE",
"422 843 OFFCURVE",
"422 816 CURVE SMOOTH",
"422 797 LINE SMOOTH",
"422 770 OFFCURVE",
"442 747 OFFCURVE",
"469 747 CURVE SMOOTH"
);
}
);
width = 762;
}
);
note = Odieresis;
unicode = 00D6;
},
{
glyphname = Odotbelow;
lastChange = "2015-07-18 10:50:34 +0000";
layers = (
{
layerId = "082782A7-7ED4-4E0F-8549-8BA7EDA0D1AE";
name = Regular;
paths = (
{
closed = 1;
nodes = (
"601 -15 OFFCURVE",
"723 116 OFFCURVE",
"723 340 CURVE SMOOTH",
"723 564 OFFCURVE",
"601 695 OFFCURVE",
"381 695 CURVE SMOOTH",
"160 695 OFFCURVE",
"39 564 OFFCURVE",
"39 340 CURVE SMOOTH",
"39 116 OFFCURVE",
"160 -15 OFFCURVE",
"381 -15 CURVE SMOOTH"
);
},
{
closed = 1;
nodes = (
"389 -184 LINE SMOOTH",
"418 -184 OFFCURVE",
"436 -161 OFFCURVE",
"436 -134 CURVE SMOOTH",
"436 -115 LINE SMOOTH",
"436 -88 OFFCURVE",
"417 -66 OFFCURVE",
"389 -66 CURVE SMOOTH",
"369 -66 LINE SMOOTH",
"342 -66 OFFCURVE",
"322 -88 OFFCURVE",
"322 -115 CURVE SMOOTH",
"322 -134 LINE SMOOTH",
"322 -161 OFFCURVE",
"342 -184 OFFCURVE",
"369 -184 CURVE SMOOTH"
);
},
{
closed = 1;
nodes = (
"242 79 OFFCURVE",
"165 169 OFFCURVE",
"165 340 CURVE SMOOTH",
"165 511 OFFCURVE",
"242 600 OFFCURVE",
"381 600 CURVE SMOOTH",
"520 600 OFFCURVE",
"596 511 OFFCURVE",
"596 340 CURVE SMOOTH",
"596 169 OFFCURVE",
"520 79 OFFCURVE",
"381 79 CURVE SMOOTH"
);
}
);
width = 762;
}
);
note = Odotbelow;
unicode = 1ECC;
},
{
glyphname = Ograve;
lastChange = "2015-07-18 10:50:32 +0000";
layers = (
{
layerId = "082782A7-7ED4-4E0F-8549-8BA7EDA0D1AE";
name = Regular;
paths = (
{
closed = 1;
nodes = (
"601 -15 OFFCURVE",
"723 116 OFFCURVE",
"723 340 CURVE SMOOTH",
"723 564 OFFCURVE",
"601 695 OFFCURVE",
"381 695 CURVE SMOOTH",
"160 695 OFFCURVE",
"39 564 OFFCURVE",
"39 340 CURVE SMOOTH",
"39 116 OFFCURVE",
"160 -15 OFFCURVE",
"381 -15 CURVE SMOOTH"
);
},
{
closed = 1;
nodes = (
"242 79 OFFCURVE",
"165 169 OFFCURVE",
"165 340 CURVE SMOOTH",
"165 511 OFFCURVE",
"242 600 OFFCURVE",
"381 600 CURVE SMOOTH",
"520 600 OFFCURVE",
"596 511 OFFCURVE",
"596 340 CURVE SMOOTH",
"596 169 OFFCURVE",
"520 79 OFFCURVE",
"381 79 CURVE SMOOTH"
);
},
{
closed = 1;
nodes = (
"417 753 LINE SMOOTH",
"438 753 OFFCURVE",
"443 764 OFFCURVE",
"437 781 CURVE SMOOTH",
"389 912 LINE SMOOTH",
"383 930 OFFCURVE",
"378 936 OFFCURVE",
"352 936 CURVE SMOOTH",
"279 936 LINE SMOOTH",
"257 936 OFFCURVE",
"247 925 OFFCURVE",
"258 904 CURVE SMOOTH",
"324 775 LINE SMOOTH",
"333 758 OFFCURVE",
"340 753 OFFCURVE",
"365 753 CURVE SMOOTH"
);
}
);
width = 762;
}
);
note = Ograve;
unicode = 00D2;
},
{
glyphname = Ohookabove;
lastChange = "2015-07-18 10:50:34 +0000";
layers = (
{
layerId = "082782A7-7ED4-4E0F-8549-8BA7EDA0D1AE";
name = Regular;
paths = (
{
closed = 1;
nodes = (
"601 -15 OFFCURVE",
"723 116 OFFCURVE",
"723 340 CURVE SMOOTH",
"723 564 OFFCURVE",
"601 695 OFFCURVE",
"381 695 CURVE SMOOTH",
"160 695 OFFCURVE",
"39 564 OFFCURVE",
"39 340 CURVE SMOOTH",
"39 116 OFFCURVE",
"160 -15 OFFCURVE",
"381 -15 CURVE SMOOTH"
);
},
{
closed = 1;
nodes = (
"242 79 OFFCURVE",
"165 169 OFFCURVE",
"165 340 CURVE SMOOTH",
"165 511 OFFCURVE",
"242 600 OFFCURVE",
"381 600 CURVE SMOOTH",
"520 600 OFFCURVE",
"596 511 OFFCURVE",
"596 340 CURVE SMOOTH",
"596 169 OFFCURVE",
"520 79 OFFCURVE",
"381 79 CURVE SMOOTH"
);
},
{
closed = 1;
nodes = (
"400 741 LINE SMOOTH",
"416 741 OFFCURVE",
"423 749 OFFCURVE",
"423 764 CURVE SMOOTH",
"423 786 LINE",
"474 786 OFFCURVE",
"521 821 OFFCURVE",
"521 882 CURVE SMOOTH",
"521 943 OFFCURVE",
"478 980 OFFCURVE",
"389 980 CURVE SMOOTH",
"349 980 OFFCURVE",
"303 970 OFFCURVE",
"276 952 CURVE SMOOTH",
"270 948 OFFCURVE",
"270 946 OFFCURVE",
"272 940 CURVE",
"293 894 LINE",
"295 890 OFFCURVE",
"298 890 OFFCURVE",
"303 892 CURVE",
"327 904 OFFCURVE",
"349 911 OFFCURVE",
"378 911 CURVE SMOOTH",
"416 911 OFFCURVE",
"430 901 OFFCURVE",
"430 878 CURVE SMOOTH",
"430 851 OFFCURVE",
"418 840 OFFCURVE",
"370 840 CURVE SMOOTH",
"344 840 OFFCURVE",
"335 830 OFFCURVE",
"335 809 CURVE SMOOTH",
"335 764 LINE SMOOTH",
"335 749 OFFCURVE",
"342 741 OFFCURVE",
"358 741 CURVE SMOOTH"
);
}
);
width = 762;
}
);
note = Ohookabove;
unicode = 1ECE;
},
{
glyphname = Ohorn;
lastChange = "2015-07-18 10:50:32 +0000";
layers = (
{
layerId = "082782A7-7ED4-4E0F-8549-8BA7EDA0D1AE";
name = Regular;
paths = (
{
closed = 1;
nodes = (
"601 -15 OFFCURVE",
"723 116 OFFCURVE",
"723 340 CURVE SMOOTH",
"723 418 OFFCURVE",
"707 484 OFFCURVE",
"678 537 CURVE",
"756 560 OFFCURVE",
"794 622 OFFCURVE",
"794 722 CURVE SMOOTH",
"794 742 OFFCURVE",
"788 749 OFFCURVE",
"771 749 CURVE SMOOTH",
"705 749 LINE SMOOTH",
"689 749 OFFCURVE",
"684 742 OFFCURVE",
"684 722 CURVE SMOOTH",
"684 652 OFFCURVE",
"663 624 OFFCURVE",
"613 620 CURVE",
"556 669 OFFCURVE",
"478 695 OFFCURVE",
"381 695 CURVE SMOOTH",
"160 695 OFFCURVE",
"39 564 OFFCURVE",
"39 340 CURVE SMOOTH",
"39 116 OFFCURVE",
"160 -15 OFFCURVE",
"381 -15 CURVE SMOOTH"
);
},
{
closed = 1;
nodes = (
"242 79 OFFCURVE",
"165 169 OFFCURVE",
"165 340 CURVE SMOOTH",
"165 511 OFFCURVE",
"242 600 OFFCURVE",
"381 600 CURVE SMOOTH",
"520 600 OFFCURVE",
"596 511 OFFCURVE",
"596 340 CURVE SMOOTH",
"596 169 OFFCURVE",
"520 79 OFFCURVE",
"381 79 CURVE SMOOTH"
);
}
);
width = 803;
}
);
note = Ohorn;
unicode = 01A0;
},
{
glyphname = Ohornacute;
lastChange = "2015-07-18 10:50:32 +0000";
layers = (
{
layerId = "082782A7-7ED4-4E0F-8549-8BA7EDA0D1AE";
name = Regular;
paths = (
{
closed = 1;
nodes = (
"601 -15 OFFCURVE",
"723 116 OFFCURVE",
"723 340 CURVE SMOOTH",
"723 418 OFFCURVE",
"707 484 OFFCURVE",
"678 537 CURVE",
"756 560 OFFCURVE",
"794 622 OFFCURVE",
"794 722 CURVE SMOOTH",
"794 742 OFFCURVE",
"788 749 OFFCURVE",
"771 749 CURVE SMOOTH",
"705 749 LINE SMOOTH",
"689 749 OFFCURVE",
"684 742 OFFCURVE",
"684 722 CURVE SMOOTH",
"684 652 OFFCURVE",
"663 624 OFFCURVE",
"613 620 CURVE",
"556 669 OFFCURVE",
"478 695 OFFCURVE",
"381 695 CURVE SMOOTH",
"160 695 OFFCURVE",
"39 564 OFFCURVE",
"39 340 CURVE SMOOTH",
"39 116 OFFCURVE",
"160 -15 OFFCURVE",
"381 -15 CURVE SMOOTH"
);
},
{
closed = 1;
nodes = (
"242 79 OFFCURVE",
"165 169 OFFCURVE",
"165 340 CURVE SMOOTH",
"165 511 OFFCURVE",
"242 600 OFFCURVE",
"381 600 CURVE SMOOTH",
"520 600 OFFCURVE",
"596 511 OFFCURVE",
"596 340 CURVE SMOOTH",
"596 169 OFFCURVE",
"520 79 OFFCURVE",
"381 79 CURVE SMOOTH"
);
},
{
closed = 1;
nodes = (
"405 749 LINE SMOOTH",
"431 749 OFFCURVE",
"438 754 OFFCURVE",
"447 771 CURVE SMOOTH",
"513 900 LINE SMOOTH",
"524 921 OFFCURVE",
"514 932 OFFCURVE",
"492 932 CURVE SMOOTH",
"418 932 LINE SMOOTH",
"393 932 OFFCURVE",
"388 925 OFFCURVE",
"381 908 CURVE",
"334 777 LINE SMOOTH",
"328 760 OFFCURVE",
"333 749 OFFCURVE",
"353 749 CURVE SMOOTH"
);
}
);
width = 803;
}
);
note = Ohornacute;
unicode = 1EDA;
},
{
glyphname = Ohorndotbelow;
lastChange = "2015-07-18 10:50:32 +0000";
layers = (
{
layerId = "082782A7-7ED4-4E0F-8549-8BA7EDA0D1AE";
name = Regular;
paths = (
{
closed = 1;
nodes = (
"601 -15 OFFCURVE",
"723 116 OFFCURVE",
"723 340 CURVE SMOOTH",
"723 418 OFFCURVE",
"707 484 OFFCURVE",
"678 537 CURVE",
"756 560 OFFCURVE",
"794 622 OFFCURVE",
"794 722 CURVE SMOOTH",
"794 742 OFFCURVE",
"788 749 OFFCURVE",
"771 749 CURVE SMOOTH",
"705 749 LINE SMOOTH",
"689 749 OFFCURVE",
"684 742 OFFCURVE",
"684 722 CURVE SMOOTH",
"684 652 OFFCURVE",
"663 624 OFFCURVE",
"613 620 CURVE",
"556 669 OFFCURVE",
"478 695 OFFCURVE",
"381 695 CURVE SMOOTH",
"160 695 OFFCURVE",
"39 564 OFFCURVE",
"39 340 CURVE SMOOTH",
"39 116 OFFCURVE",
"160 -15 OFFCURVE",
"381 -15 CURVE SMOOTH"
);
},
{
closed = 1;
nodes = (
"389 -184 LINE SMOOTH",
"418 -184 OFFCURVE",
"436 -161 OFFCURVE",
"436 -134 CURVE SMOOTH",
"436 -115 LINE SMOOTH",
"436 -88 OFFCURVE",
"417 -66 OFFCURVE",
"389 -66 CURVE SMOOTH",
"369 -66 LINE SMOOTH",
"342 -66 OFFCURVE",
"322 -88 OFFCURVE",
"322 -115 CURVE SMOOTH",
"322 -134 LINE SMOOTH",
"322 -161 OFFCURVE",
"342 -184 OFFCURVE",
"369 -184 CURVE SMOOTH"
);
},
{
closed = 1;
nodes = (
"242 79 OFFCURVE",
"165 169 OFFCURVE",
"165 340 CURVE SMOOTH",
"165 511 OFFCURVE",
"242 600 OFFCURVE",
"381 600 CURVE SMOOTH",
"520 600 OFFCURVE",
"596 511 OFFCURVE",
"596 340 CURVE SMOOTH",
"596 169 OFFCURVE",
"520 79 OFFCURVE",
"381 79 CURVE SMOOTH"
);
}
);
width = 803;
}
);
note = Ohorndotbelow;
unicode = 1EE2;
},
{
glyphname = Ohorngrave;
lastChange = "2015-07-18 10:50:34 +0000";
layers = (
{
layerId = "082782A7-7ED4-4E0F-8549-8BA7EDA0D1AE";
name = Regular;
paths = (
{
closed = 1;
nodes = (
"601 -15 OFFCURVE",
"723 116 OFFCURVE",
"723 340 CURVE SMOOTH",
"723 418 OFFCURVE",
"707 484 OFFCURVE",
"678 537 CURVE",
"756 560 OFFCURVE",
"794 622 OFFCURVE",
"794 722 CURVE SMOOTH",
"794 742 OFFCURVE",
"788 749 OFFCURVE",
"771 749 CURVE SMOOTH",
"705 749 LINE SMOOTH",
"689 749 OFFCURVE",
"684 742 OFFCURVE",
"684 722 CURVE SMOOTH",
"684 652 OFFCURVE",
"663 624 OFFCURVE",
"613 620 CURVE",
"556 669 OFFCURVE",
"478 695 OFFCURVE",
"381 695 CURVE SMOOTH",
"160 695 OFFCURVE",
"39 564 OFFCURVE",
"39 340 CURVE SMOOTH",
"39 116 OFFCURVE",
"160 -15 OFFCURVE",
"381 -15 CURVE SMOOTH"
);
},
{
closed = 1;
nodes = (
"242 79 OFFCURVE",
"165 169 OFFCURVE",
"165 340 CURVE SMOOTH",
"165 511 OFFCURVE",
"242 600 OFFCURVE",
"381 600 CURVE SMOOTH",
"520 600 OFFCURVE",
"596 511 OFFCURVE",
"596 340 CURVE SMOOTH",
"596 169 OFFCURVE",
"520 79 OFFCURVE",
"381 79 CURVE SMOOTH"
);
},
{
closed = 1;
nodes = (
"436 740 LINE SMOOTH",
"457 740 OFFCURVE",
"462 751 OFFCURVE",
"456 768 CURVE SMOOTH",
"408 899 LINE SMOOTH",
"402 917 OFFCURVE",
"397 923 OFFCURVE",
"371 923 CURVE SMOOTH",
"298 923 LINE SMOOTH",
"276 923 OFFCURVE",
"266 912 OFFCURVE",
"277 891 CURVE SMOOTH",
"343 762 LINE SMOOTH",
"352 745 OFFCURVE",
"359 740 OFFCURVE",
"384 740 CURVE SMOOTH"
);
}
);
width = 803;
}
);
note = Ohorngrave;
unicode = 1EDC;
},
{
glyphname = Ohornhookabove;
lastChange = "2015-07-18 10:50:34 +0000";
layers = (
{
layerId = "082782A7-7ED4-4E0F-8549-8BA7EDA0D1AE";
name = Regular;
paths = (
{
closed = 1;
nodes = (
"601 -15 OFFCURVE",
"723 116 OFFCURVE",
"723 340 CURVE SMOOTH",
"723 418 OFFCURVE",
"707 484 OFFCURVE",
"678 537 CURVE",
"756 560 OFFCURVE",
"794 622 OFFCURVE",
"794 722 CURVE SMOOTH",
"794 742 OFFCURVE",
"788 749 OFFCURVE",
"771 749 CURVE SMOOTH",
"705 749 LINE SMOOTH",
"689 749 OFFCURVE",
"684 742 OFFCURVE",
"684 722 CURVE SMOOTH",
"684 652 OFFCURVE",
"663 624 OFFCURVE",
"613 620 CURVE",
"556 669 OFFCURVE",
"478 695 OFFCURVE",
"381 695 CURVE SMOOTH",
"160 695 OFFCURVE",
"39 564 OFFCURVE",
"39 340 CURVE SMOOTH",
"39 116 OFFCURVE",
"160 -15 OFFCURVE",
"381 -15 CURVE SMOOTH"
);
},
{
closed = 1;
nodes = (
"242 79 OFFCURVE",
"165 169 OFFCURVE",
"165 340 CURVE SMOOTH",
"165 511 OFFCURVE",
"242 600 OFFCURVE",
"381 600 CURVE SMOOTH",
"520 600 OFFCURVE",
"596 511 OFFCURVE",
"596 340 CURVE SMOOTH",
"596 169 OFFCURVE",
"520 79 OFFCURVE",
"381 79 CURVE SMOOTH"
);
},
{
closed = 1;
nodes = (
"401 731 LINE SMOOTH",
"417 731 OFFCURVE",
"424 739 OFFCURVE",
"424 754 CURVE SMOOTH",
"424 776 LINE",
"475 776 OFFCURVE",
"522 811 OFFCURVE",
"522 872 CURVE SMOOTH",
"522 933 OFFCURVE",
"479 970 OFFCURVE",
"390 970 CURVE SMOOTH",
"350 970 OFFCURVE",
"304 960 OFFCURVE",
"277 942 CURVE SMOOTH",
"271 938 OFFCURVE",
"271 936 OFFCURVE",
"273 930 CURVE",
"294 884 LINE",
"296 880 OFFCURVE",
"299 880 OFFCURVE",
"304 882 CURVE",
"328 894 OFFCURVE",
"350 901 OFFCURVE",
"379 901 CURVE SMOOTH",
"417 901 OFFCURVE",
"431 891 OFFCURVE",
"431 868 CURVE SMOOTH",
"431 841 OFFCURVE",
"419 830 OFFCURVE",
"371 830 CURVE SMOOTH",
"345 830 OFFCURVE",
"336 820 OFFCURVE",
"336 799 CURVE SMOOTH",
"336 754 LINE SMOOTH",
"336 739 OFFCURVE",
"343 731 OFFCURVE",
"359 731 CURVE SMOOTH"
);
}
);
width = 803;
}
);
note = Ohornhookabove;
unicode = 1EDE;
},
{
glyphname = Ohorntilde;
lastChange = "2015-07-18 10:50:32 +0000";
layers = (
{
layerId = "082782A7-7ED4-4E0F-8549-8BA7EDA0D1AE";
name = Regular;
paths = (
{
closed = 1;
nodes = (
"601 -15 OFFCURVE",
"723 116 OFFCURVE",
"723 340 CURVE SMOOTH",
"723 418 OFFCURVE",
"707 484 OFFCURVE",
"678 537 CURVE",
"756 560 OFFCURVE",
"794 622 OFFCURVE",
"794 722 CURVE SMOOTH",
"794 742 OFFCURVE",
"788 749 OFFCURVE",
"771 749 CURVE SMOOTH",
"705 749 LINE SMOOTH",
"689 749 OFFCURVE",
"684 742 OFFCURVE",
"684 722 CURVE SMOOTH",
"684 652 OFFCURVE",
"663 624 OFFCURVE",
"613 620 CURVE",
"556 669 OFFCURVE",
"478 695 OFFCURVE",
"381 695 CURVE SMOOTH",
"160 695 OFFCURVE",
"39 564 OFFCURVE",
"39 340 CURVE SMOOTH",
"39 116 OFFCURVE",
"160 -15 OFFCURVE",
"381 -15 CURVE SMOOTH"
);
},
{
closed = 1;
nodes = (
"242 79 OFFCURVE",
"165 169 OFFCURVE",
"165 340 CURVE SMOOTH",
"165 511 OFFCURVE",
"242 600 OFFCURVE",
"381 600 CURVE SMOOTH",
"520 600 OFFCURVE",
"596 511 OFFCURVE",
"596 340 CURVE SMOOTH",
"596 169 OFFCURVE",
"520 79 OFFCURVE",
"381 79 CURVE SMOOTH"
);
},
{
closed = 1;
nodes = (
"555 746 OFFCURVE",
"586 769 OFFCURVE",
"618 817 CURVE",
"634 839 OFFCURVE",
"632 852 OFFCURVE",
"606 872 CURVE SMOOTH",
"581 892 OFFCURVE",
"565 894 OFFCURVE",
"552 877 CURVE SMOOTH",
"531 849 OFFCURVE",
"517 840 OFFCURVE",
"490 840 CURVE SMOOTH",
"433 840 OFFCURVE",
"392 892 OFFCURVE",
"311 892 CURVE SMOOTH",
"261 892 OFFCURVE",
"231 864 OFFCURVE",
"203 829 CURVE SMOOTH",
"187 808 OFFCURVE",
"188 795 OFFCURVE",
"210 776 CURVE SMOOTH",
"234 755 OFFCURVE",
"250 751 OFFCURVE",
"263 767 CURVE",
"283 789 OFFCURVE",
"294 799 OFFCURVE",
"322 799 CURVE SMOOTH",
"375 799 OFFCURVE",
"430 746 OFFCURVE",
"497 746 CURVE SMOOTH"
);
}
);
width = 803;
}
);
note = Ohorntilde;
unicode = 1EE0;
},
{
glyphname = Ohungarumlaut;
lastChange = "2015-07-18 10:50:34 +0000";
layers = (
{
layerId = "082782A7-7ED4-4E0F-8549-8BA7EDA0D1AE";
name = Regular;
paths = (
{
closed = 1;
nodes = (
"601 -15 OFFCURVE",
"723 116 OFFCURVE",
"723 340 CURVE SMOOTH",
"723 564 OFFCURVE",
"601 695 OFFCURVE",
"381 695 CURVE SMOOTH",
"160 695 OFFCURVE",
"39 564 OFFCURVE",
"39 340 CURVE SMOOTH",
"39 116 OFFCURVE",
"160 -15 OFFCURVE",
"381 -15 CURVE SMOOTH"
);
},
{
closed = 1;
nodes = (
"242 79 OFFCURVE",
"165 169 OFFCURVE",
"165 340 CURVE SMOOTH",
"165 511 OFFCURVE",
"242 600 OFFCURVE",
"381 600 CURVE SMOOTH",
"520 600 OFFCURVE",
"596 511 OFFCURVE",
"596 340 CURVE SMOOTH",
"596 169 OFFCURVE",
"520 79 OFFCURVE",
"381 79 CURVE SMOOTH"
);
},
{
closed = 1;
nodes = (
"284 745 LINE SMOOTH",
"310 745 OFFCURVE",
"314 751 OFFCURVE",
"326 767 CURVE",
"409 896 LINE",
"423 916 OFFCURVE",
"411 928 OFFCURVE",
"389 928 CURVE SMOOTH",
"323 928 LINE SMOOTH",
"298 928 OFFCURVE",
"294 920 OFFCURVE",
"286 904 CURVE SMOOTH",
"221 773 LINE SMOOTH",
"213 757 OFFCURVE",
"219 745 OFFCURVE",
"240 745 CURVE SMOOTH"
);
},
{
closed = 1;
nodes = (
"483 745 LINE SMOOTH",
"509 745 OFFCURVE",
"514 751 OFFCURVE",
"525 767 CURVE SMOOTH",
"609 896 LINE SMOOTH",
"622 916 OFFCURVE",
"610 928 OFFCURVE",
"588 928 CURVE SMOOTH",
"523 928 LINE SMOOTH",
"497 928 OFFCURVE",
"493 920 OFFCURVE",
"485 904 CURVE SMOOTH",
"420 773 LINE SMOOTH",
"412 757 OFFCURVE",
"419 745 OFFCURVE",
"440 745 CURVE SMOOTH"
);
}
);
width = 762;
}
);
note = Ohungarumlaut;
unicode = 0150;
},
{
glyphname = Omacron;
lastChange = "2015-07-18 10:50:34 +0000";
layers = (
{
layerId = "082782A7-7ED4-4E0F-8549-8BA7EDA0D1AE";
name = Regular;
paths = (
{
closed = 1;
nodes = (
"601 -15 OFFCURVE",
"723 116 OFFCURVE",
"723 340 CURVE SMOOTH",
"723 564 OFFCURVE",
"601 695 OFFCURVE",
"381 695 CURVE SMOOTH",
"160 695 OFFCURVE",
"39 564 OFFCURVE",
"39 340 CURVE SMOOTH",
"39 116 OFFCURVE",
"160 -15 OFFCURVE",
"381 -15 CURVE SMOOTH"
);
},
{
closed = 1;
nodes = (
"242 79 OFFCURVE",
"165 169 OFFCURVE",
"165 340 CURVE SMOOTH",
"165 511 OFFCURVE",
"242 600 OFFCURVE",
"381 600 CURVE SMOOTH",
"520 600 OFFCURVE",
"596 511 OFFCURVE",
"596 340 CURVE SMOOTH",
"596 169 OFFCURVE",
"520 79 OFFCURVE",
"381 79 CURVE SMOOTH"
);
},
{
closed = 1;
nodes = (
"508 765 LINE SMOOTH",
"535 765 OFFCURVE",
"544 775 OFFCURVE",
"544 800 CURVE SMOOTH",
"544 826 LINE SMOOTH",
"544 851 OFFCURVE",
"535 862 OFFCURVE",
"508 862 CURVE SMOOTH",
"235 862 LINE SMOOTH",
"208 862 OFFCURVE",
"199 851 OFFCURVE",
"199 826 CURVE SMOOTH",
"199 800 LINE SMOOTH",
"199 775 OFFCURVE",
"208 765 OFFCURVE",
"235 765 CURVE SMOOTH"
);
}
);
width = 762;
}
);
note = Omacron;
unicode = 014C;
},
{
glyphname = Oslash;
lastChange = "2015-07-18 10:50:34 +0000";
layers = (
{
layerId = "082782A7-7ED4-4E0F-8549-8BA7EDA0D1AE";
name = Regular;
paths = (
{
closed = 1;
nodes = (
"601 -15 OFFCURVE",
"723 116 OFFCURVE",
"723 340 CURVE SMOOTH",
"723 564 OFFCURVE",
"601 695 OFFCURVE",
"381 695 CURVE SMOOTH",
"160 695 OFFCURVE",
"39 564 OFFCURVE",
"39 340 CURVE SMOOTH",
"39 116 OFFCURVE",
"160 -15 OFFCURVE",
"381 -15 CURVE SMOOTH"
);
},
{
closed = 1;
nodes = (
"246 -86 LINE SMOOTH",
"261 -86 OFFCURVE",
"266 -82 OFFCURVE",
"271 -70 CURVE SMOOTH",
"595 726 LINE SMOOTH",
"600 739 OFFCURVE",
"600 751 OFFCURVE",
"584 751 CURVE SMOOTH",
"503 751 LINE SMOOTH",
"490 751 OFFCURVE",
"484 747 OFFCURVE",
"479 734 CURVE SMOOTH",
"154 -61 LINE SMOOTH",
"148 -77 OFFCURVE",
"150 -86 OFFCURVE",
"165 -86 CURVE SMOOTH"
);
},
{
closed = 1;
nodes = (
"242 79 OFFCURVE",
"165 169 OFFCURVE",
"165 340 CURVE SMOOTH",
"165 511 OFFCURVE",
"242 600 OFFCURVE",
"381 600 CURVE SMOOTH",
"520 600 OFFCURVE",
"596 511 OFFCURVE",
"596 340 CURVE SMOOTH",
"596 169 OFFCURVE",
"520 79 OFFCURVE",
"381 79 CURVE SMOOTH"
);
}
);
width = 762;
}
);
note = Oslash;
unicode = 00D8;
},
{
glyphname = Oslashacute;
lastChange = "2015-07-18 10:50:34 +0000";
layers = (
{
layerId = "082782A7-7ED4-4E0F-8549-8BA7EDA0D1AE";
name = Regular;
paths = (
{
closed = 1;
nodes = (
"601 -15 OFFCURVE",
"723 116 OFFCURVE",
"723 340 CURVE SMOOTH",
"723 564 OFFCURVE",
"601 695 OFFCURVE",
"381 695 CURVE SMOOTH",
"160 695 OFFCURVE",
"39 564 OFFCURVE",
"39 340 CURVE SMOOTH",
"39 116 OFFCURVE",
"160 -15 OFFCURVE",
"381 -15 CURVE SMOOTH"
);
},
{
closed = 1;
nodes = (
"246 -86 LINE SMOOTH",
"261 -86 OFFCURVE",
"266 -82 OFFCURVE",
"271 -70 CURVE SMOOTH",
"595 726 LINE SMOOTH",
"600 739 OFFCURVE",
"600 751 OFFCURVE",
"584 751 CURVE SMOOTH",
"503 751 LINE SMOOTH",
"490 751 OFFCURVE",
"484 747 OFFCURVE",
"479 734 CURVE SMOOTH",
"154 -61 LINE SMOOTH",
"148 -77 OFFCURVE",
"150 -86 OFFCURVE",
"165 -86 CURVE SMOOTH"
);
},
{
closed = 1;
nodes = (
"242 79 OFFCURVE",
"165 169 OFFCURVE",
"165 340 CURVE SMOOTH",
"165 511 OFFCURVE",
"242 600 OFFCURVE",
"381 600 CURVE SMOOTH",
"520 600 OFFCURVE",
"596 511 OFFCURVE",
"596 340 CURVE SMOOTH",
"596 169 OFFCURVE",
"520 79 OFFCURVE",
"381 79 CURVE SMOOTH"
);
},
{
closed = 1;
nodes = (
"385 729 LINE SMOOTH",
"411 729 OFFCURVE",
"418 734 OFFCURVE",
"427 751 CURVE SMOOTH",
"493 880 LINE SMOOTH",
"504 901 OFFCURVE",
"494 912 OFFCURVE",
"472 912 CURVE SMOOTH",
"398 912 LINE SMOOTH",
"373 912 OFFCURVE",
"368 905 OFFCURVE",
"361 888 CURVE",
"314 757 LINE SMOOTH",
"308 740 OFFCURVE",
"313 729 OFFCURVE",
"333 729 CURVE SMOOTH"
);
}
);
width = 762;
}
);
note = Oslashacute;
unicode = 01FE;
},
{
glyphname = Otilde;
lastChange = "2015-07-18 10:50:34 +0000";
layers = (
{
layerId = "082782A7-7ED4-4E0F-8549-8BA7EDA0D1AE";
name = Regular;
paths = (
{
closed = 1;
nodes = (
"601 -15 OFFCURVE",
"723 116 OFFCURVE",
"723 340 CURVE SMOOTH",
"723 564 OFFCURVE",
"601 695 OFFCURVE",
"381 695 CURVE SMOOTH",
"160 695 OFFCURVE",
"39 564 OFFCURVE",
"39 340 CURVE SMOOTH",
"39 116 OFFCURVE",
"160 -15 OFFCURVE",
"381 -15 CURVE SMOOTH"
);
},
{
closed = 1;
nodes = (
"242 79 OFFCURVE",
"165 169 OFFCURVE",
"165 340 CURVE SMOOTH",
"165 511 OFFCURVE",
"242 600 OFFCURVE",
"381 600 CURVE SMOOTH",
"520 600 OFFCURVE",
"596 511 OFFCURVE",
"596 340 CURVE SMOOTH",
"596 169 OFFCURVE",
"520 79 OFFCURVE",
"381 79 CURVE SMOOTH"
);
},
{
closed = 1;
nodes = (
"529 736 OFFCURVE",
"560 759 OFFCURVE",
"592 807 CURVE",
"608 829 OFFCURVE",
"606 842 OFFCURVE",
"580 862 CURVE SMOOTH",
"555 882 OFFCURVE",
"539 884 OFFCURVE",
"526 867 CURVE SMOOTH",
"505 839 OFFCURVE",
"491 830 OFFCURVE",
"464 830 CURVE SMOOTH",
"407 830 OFFCURVE",
"366 882 OFFCURVE",
"285 882 CURVE SMOOTH",
"235 882 OFFCURVE",
"205 854 OFFCURVE",
"177 819 CURVE SMOOTH",
"161 798 OFFCURVE",
"162 785 OFFCURVE",
"184 766 CURVE SMOOTH",
"208 745 OFFCURVE",
"224 741 OFFCURVE",
"237 757 CURVE",
"257 779 OFFCURVE",
"268 789 OFFCURVE",
"296 789 CURVE SMOOTH",
"349 789 OFFCURVE",
"404 736 OFFCURVE",
"471 736 CURVE SMOOTH"
);
}
);
width = 762;
}
);
note = Otilde;
unicode = 00D5;
},
{
glyphname = OE;
lastChange = "2015-07-18 10:50:32 +0000";
layers = (
{
layerId = "082782A7-7ED4-4E0F-8549-8BA7EDA0D1AE";
name = Regular;
paths = (
{
closed = 1;
nodes = (
"611 -15 OFFCURVE",
"733 116 OFFCURVE",
"733 340 CURVE SMOOTH",
"733 564 OFFCURVE",
"611 695 OFFCURVE",
"391 695 CURVE SMOOTH",
"170 695 OFFCURVE",
"49 564 OFFCURVE",
"49 340 CURVE SMOOTH",
"49 116 OFFCURVE",
"170 -15 OFFCURVE",
"391 -15 CURVE SMOOTH"
);
},
{
closed = 1;
nodes = (
"252 79 OFFCURVE",
"175 169 OFFCURVE",
"175 340 CURVE SMOOTH",
"175 511 OFFCURVE",
"252 600 OFFCURVE",
"391 600 CURVE SMOOTH",
"530 600 OFFCURVE",
"606 511 OFFCURVE",
"606 340 CURVE SMOOTH",
"606 169 OFFCURVE",
"530 79 OFFCURVE",
"391 79 CURVE SMOOTH"
);
},
{
closed = 1;
nodes = (
"1094 0 LINE SMOOTH",
"1121 0 OFFCURVE",
"1130 10 OFFCURVE",
"1130 34 CURVE SMOOTH",
"1130 61 LINE SMOOTH",
"1130 86 OFFCURVE",
"1121 97 OFFCURVE",
"1094 97 CURVE SMOOTH",
"770 97 LINE",
"770 292 LINE",
"1006 292 LINE SMOOTH",
"1033 292 OFFCURVE",
"1042 303 OFFCURVE",
"1042 328 CURVE SMOOTH",
"1042 353 LINE SMOOTH",
"1042 378 OFFCURVE",
"1033 388 OFFCURVE",
"1006 388 CURVE SMOOTH",
"770 388 LINE",
"770 582 LINE",
"1095 582 LINE SMOOTH",
"1122 582 OFFCURVE",
"1130 593 OFFCURVE",
"1130 618 CURVE SMOOTH",
"1130 645 LINE SMOOTH",
"1130 670 OFFCURVE",
"1122 680 OFFCURVE",
"1095 680 CURVE SMOOTH",
"679 680 LINE SMOOTH",
"652 680 OFFCURVE",
"642 667 OFFCURVE",
"642 643 CURVE SMOOTH",
"642 36 LINE SMOOTH",
"642 12 OFFCURVE",
"652 0 OFFCURVE",
"679 0 CURVE SMOOTH"
);
}
);
width = 1170;
}
);
note = OE;
unicode = 0152;
},
{
glyphname = P;
lastChange = "2015-07-18 10:50:34 +0000";
layers = (
{
layerId = "082782A7-7ED4-4E0F-8549-8BA7EDA0D1AE";
name = Regular;
paths = (
{
closed = 1;
nodes = (
"149 0 LINE SMOOTH",
"177 0 OFFCURVE",
"187 12 OFFCURVE",
"187 36 CURVE SMOOTH",
"187 230 LINE",
"352 230 LINE SMOOTH",
"519 230 OFFCURVE",
"594 313 OFFCURVE",
"594 454 CURVE SMOOTH",
"594 596 OFFCURVE",
"519 680 OFFCURVE",
"352 680 CURVE SMOOTH",
"96 680 LINE SMOOTH",
"69 680 OFFCURVE",
"59 667 OFFCURVE",
"59 643 CURVE SMOOTH",
"59 36 LINE SMOOTH",
"59 12 OFFCURVE",
"69 0 OFFCURVE",
"96 0 CURVE SMOOTH"
);
},
{
closed = 1;
nodes = (
"187 582 LINE",
"346 582 LINE SMOOTH",
"427 582 OFFCURVE",
"467 541 OFFCURVE",
"467 454 CURVE SMOOTH",
"467 368 OFFCURVE",
"427 327 OFFCURVE",
"346 327 CURVE SMOOTH",
"187 327 LINE"
);
}
);
width = 613;
}
);
note = P;
unicode = 0050;
},
{
glyphname = Thorn;
lastChange = "2015-07-18 10:50:34 +0000";
layers = (
{
layerId = "082782A7-7ED4-4E0F-8549-8BA7EDA0D1AE";
name = Regular;
paths = (
{
closed = 1;
nodes = (
"149 0 LINE SMOOTH",
"177 0 OFFCURVE",
"187 12 OFFCURVE",
"187 36 CURVE SMOOTH",
"187 115 LINE",
"352 115 LINE SMOOTH",
"519 115 OFFCURVE",
"594 198 OFFCURVE",
"594 340 CURVE SMOOTH",
"594 481 OFFCURVE",
"519 565 OFFCURVE",
"352 565 CURVE SMOOTH",
"187 565 LINE",
"187 643 LINE SMOOTH",
"187 667 OFFCURVE",
"177 680 OFFCURVE",
"149 680 CURVE SMOOTH",
"96 680 LINE SMOOTH",
"69 680 OFFCURVE",
"59 667 OFFCURVE",
"59 643 CURVE SMOOTH",
"59 36 LINE SMOOTH",
"59 12 OFFCURVE",
"69 0 OFFCURVE",
"96 0 CURVE SMOOTH"
);
},
{
closed = 1;
nodes = (
"187 467 LINE",
"346 467 LINE SMOOTH",
"427 467 OFFCURVE",
"467 426 OFFCURVE",
"467 340 CURVE SMOOTH",
"467 254 OFFCURVE",
"427 212 OFFCURVE",
"346 212 CURVE SMOOTH",
"187 212 LINE"
);
}
);
width = 633;
}
);
note = Thorn;
unicode = 00DE;
},
{
glyphname = Q;
lastChange = "2015-07-18 10:50:33 +0000";
layers = (
{
layerId = "082782A7-7ED4-4E0F-8549-8BA7EDA0D1AE";
name = Regular;
paths = (
{
closed = 1;
nodes = (
"590 -181 OFFCURVE",
"633 -167 OFFCURVE",
"674 -140 CURVE SMOOTH",
"684 -133 OFFCURVE",
"686 -128 OFFCURVE",
"680 -118 CURVE SMOOTH",
"650 -71 LINE SMOOTH",
"645 -63 OFFCURVE",
"641 -62 OFFCURVE",
"631 -68 CURVE SMOOTH",
"606 -84 OFFCURVE",
"574 -96 OFFCURVE",
"533 -96 CURVE SMOOTH",
"473 -96 OFFCURVE",
"424 -72 OFFCURVE",
"421 -11 CURVE",
"616 5 OFFCURVE",
"723 130 OFFCURVE",
"723 340 CURVE SMOOTH",
"723 564 OFFCURVE",
"601 695 OFFCURVE",
"381 695 CURVE SMOOTH",
"160 695 OFFCURVE",
"39 564 OFFCURVE",
"39 340 CURVE SMOOTH",
"39 136 OFFCURVE",
"139 9 OFFCURVE",
"322 -11 CURVE",
"327 -113 OFFCURVE",
"403 -181 OFFCURVE",
"528 -181 CURVE SMOOTH"
);
},
{
closed = 1;
nodes = (
"242 79 OFFCURVE",
"165 169 OFFCURVE",
"165 340 CURVE SMOOTH",
"165 511 OFFCURVE",
"242 600 OFFCURVE",
"381 600 CURVE SMOOTH",
"520 600 OFFCURVE",
"596 511 OFFCURVE",
"596 340 CURVE SMOOTH",
"596 169 OFFCURVE",
"520 79 OFFCURVE",
"381 79 CURVE SMOOTH"
);
}
);
width = 762;
}
);
note = Q;
unicode = 0051;
},
{
glyphname = R;
lastChange = "2015-07-18 10:50:32 +0000";
layers = (
{
layerId = "082782A7-7ED4-4E0F-8549-8BA7EDA0D1AE";
name = Regular;
paths = (
{
closed = 1;
nodes = (
"149 0 LINE SMOOTH",
"177 0 OFFCURVE",
"187 12 OFFCURVE",
"187 36 CURVE SMOOTH",
"187 255 LINE",
"348 255 LINE",
"449 18 LINE SMOOTH",
"456 3 OFFCURVE",
"462 0 OFFCURVE",
"479 0 CURVE SMOOTH",
"561 0 LINE SMOOTH",
"577 0 OFFCURVE",
"583 11 OFFCURVE",
"576 26 CURVE SMOOTH",
"465 272 LINE",
"549 305 OFFCURVE",
"594 373 OFFCURVE",
"594 466 CURVE SMOOTH",
"594 609 OFFCURVE",
"510 680 OFFCURVE",
"357 680 CURVE SMOOTH",
"96 680 LINE SMOOTH",
"69 680 OFFCURVE",
"59 667 OFFCURVE",
"59 643 CURVE SMOOTH",
"59 36 LINE SMOOTH",
"59 12 OFFCURVE",
"69 0 OFFCURVE",
"96 0 CURVE SMOOTH"
);
},
{
closed = 1;
nodes = (
"187 582 LINE",
"346 582 LINE SMOOTH",
"427 582 OFFCURVE",
"467 547 OFFCURVE",
"467 466 CURVE SMOOTH",
"467 383 OFFCURVE",
"423 351 OFFCURVE",
"331 351 CURVE SMOOTH",
"187 351 LINE"
);
}
);
width = 633;
}
);
note = R;
unicode = 0052;
},
{
glyphname = Racute;
lastChange = "2015-07-18 10:50:34 +0000";
layers = (
{
layerId = "082782A7-7ED4-4E0F-8549-8BA7EDA0D1AE";
name = Regular;
paths = (
{
closed = 1;
nodes = (
"149 0 LINE SMOOTH",
"177 0 OFFCURVE",
"187 12 OFFCURVE",
"187 36 CURVE SMOOTH",
"187 255 LINE",
"348 255 LINE",
"449 18 LINE SMOOTH",
"456 3 OFFCURVE",
"462 0 OFFCURVE",
"479 0 CURVE SMOOTH",
"561 0 LINE SMOOTH",
"577 0 OFFCURVE",
"583 11 OFFCURVE",
"576 26 CURVE SMOOTH",
"465 272 LINE",
"549 305 OFFCURVE",
"594 373 OFFCURVE",
"594 466 CURVE SMOOTH",
"594 609 OFFCURVE",
"510 680 OFFCURVE",
"357 680 CURVE SMOOTH",
"96 680 LINE SMOOTH",
"69 680 OFFCURVE",
"59 667 OFFCURVE",
"59 643 CURVE SMOOTH",
"59 36 LINE SMOOTH",
"59 12 OFFCURVE",
"69 0 OFFCURVE",
"96 0 CURVE SMOOTH"
);
},
{
closed = 1;
nodes = (
"187 582 LINE",
"346 582 LINE SMOOTH",
"427 582 OFFCURVE",
"467 547 OFFCURVE",
"467 466 CURVE SMOOTH",
"467 383 OFFCURVE",
"423 351 OFFCURVE",
"331 351 CURVE SMOOTH",
"187 351 LINE"
);
},
{
closed = 1;
nodes = (
"315 741 LINE SMOOTH",
"341 741 OFFCURVE",
"348 746 OFFCURVE",
"357 763 CURVE SMOOTH",
"423 892 LINE SMOOTH",
"434 913 OFFCURVE",
"424 924 OFFCURVE",
"402 924 CURVE SMOOTH",
"328 924 LINE SMOOTH",
"303 924 OFFCURVE",
"298 917 OFFCURVE",
"291 900 CURVE",
"244 769 LINE SMOOTH",
"238 752 OFFCURVE",
"243 741 OFFCURVE",
"263 741 CURVE SMOOTH"
);
}
);
width = 633;
}
);
note = Racute;
unicode = 0154;
},
{
glyphname = Rcaron;
lastChange = "2015-07-18 10:50:33 +0000";
layers = (
{
layerId = "082782A7-7ED4-4E0F-8549-8BA7EDA0D1AE";
name = Regular;
paths = (
{
closed = 1;
nodes = (
"149 0 LINE SMOOTH",
"177 0 OFFCURVE",
"187 12 OFFCURVE",
"187 36 CURVE SMOOTH",
"187 255 LINE",
"348 255 LINE",
"449 18 LINE SMOOTH",
"456 3 OFFCURVE",
"462 0 OFFCURVE",
"479 0 CURVE SMOOTH",
"561 0 LINE SMOOTH",
"577 0 OFFCURVE",
"583 11 OFFCURVE",
"576 26 CURVE SMOOTH",
"465 272 LINE",
"549 305 OFFCURVE",
"594 373 OFFCURVE",
"594 466 CURVE SMOOTH",
"594 609 OFFCURVE",
"510 680 OFFCURVE",
"357 680 CURVE SMOOTH",
"96 680 LINE SMOOTH",
"69 680 OFFCURVE",
"59 667 OFFCURVE",
"59 643 CURVE SMOOTH",
"59 36 LINE SMOOTH",
"59 12 OFFCURVE",
"69 0 OFFCURVE",
"96 0 CURVE SMOOTH"
);
},
{
closed = 1;
nodes = (
"187 582 LINE",
"346 582 LINE SMOOTH",
"427 582 OFFCURVE",
"467 547 OFFCURVE",
"467 466 CURVE SMOOTH",
"467 383 OFFCURVE",
"423 351 OFFCURVE",
"331 351 CURVE SMOOTH",
"187 351 LINE"
);
},
{
closed = 1;
nodes = (
"337 742 LINE SMOOTH",
"360 742 OFFCURVE",
"364 748 OFFCURVE",
"375 763 CURVE SMOOTH",
"479 904 LINE SMOOTH",
"493 922 OFFCURVE",
"489 936 OFFCURVE",
"468 936 CURVE SMOOTH",
"416 936 LINE SMOOTH",
"391 936 OFFCURVE",
"386 932 OFFCURVE",
"377 917 CURVE",
"309 816 LINE",
"240 917 LINE SMOOTH",
"230 932 OFFCURVE",
"225 936 OFFCURVE",
"201 936 CURVE SMOOTH",
"148 936 LINE SMOOTH",
"128 936 OFFCURVE",
"124 923 OFFCURVE",
"138 904 CURVE SMOOTH",
"242 763 LINE",
"254 748 OFFCURVE",
"257 742 OFFCURVE",
"280 742 CURVE SMOOTH"
);
}
);
width = 633;
}
);
note = Rcaron;
unicode = 0158;
},
{
glyphname = Rcommaaccent;
lastChange = "2015-07-18 10:50:33 +0000";
layers = (
{
layerId = "082782A7-7ED4-4E0F-8549-8BA7EDA0D1AE";
name = Regular;
paths = (
{
closed = 1;
nodes = (
"149 0 LINE SMOOTH",
"177 0 OFFCURVE",
"187 12 OFFCURVE",
"187 36 CURVE SMOOTH",
"187 255 LINE",
"348 255 LINE",
"449 18 LINE SMOOTH",
"456 3 OFFCURVE",
"462 0 OFFCURVE",
"479 0 CURVE SMOOTH",
"561 0 LINE SMOOTH",
"577 0 OFFCURVE",
"583 11 OFFCURVE",
"576 26 CURVE SMOOTH",
"465 272 LINE",
"549 305 OFFCURVE",
"594 373 OFFCURVE",
"594 466 CURVE SMOOTH",
"594 609 OFFCURVE",
"510 680 OFFCURVE",
"357 680 CURVE SMOOTH",
"96 680 LINE SMOOTH",
"69 680 OFFCURVE",
"59 667 OFFCURVE",
"59 643 CURVE SMOOTH",
"59 36 LINE SMOOTH",
"59 12 OFFCURVE",
"69 0 OFFCURVE",
"96 0 CURVE SMOOTH"
);
},
{
closed = 1;
nodes = (
"281 -238 LINE SMOOTH",
"298 -238 OFFCURVE",
"306 -232 OFFCURVE",
"310 -221 CURVE",
"375 -69 LINE SMOOTH",
"385 -46 OFFCURVE",
"381 -36 OFFCURVE",
"355 -36 CURVE SMOOTH",
"303 -36 LINE SMOOTH",
"281 -36 OFFCURVE",
"273 -41 OFFCURVE",
"267 -62 CURVE SMOOTH",
"221 -213 LINE SMOOTH",
"216 -228 OFFCURVE",
"219 -238 OFFCURVE",
"237 -238 CURVE SMOOTH"
);
},
{
closed = 1;
nodes = (
"187 582 LINE",
"346 582 LINE SMOOTH",
"427 582 OFFCURVE",
"467 547 OFFCURVE",
"467 466 CURVE SMOOTH",
"467 383 OFFCURVE",
"423 351 OFFCURVE",
"331 351 CURVE SMOOTH",
"187 351 LINE"
);
}
);
width = 633;
}
);
note = Rcommaaccent;
unicode = 0156;
},
{
glyphname = Rdotbelow;
lastChange = "2015-07-18 10:50:34 +0000";
layers = (
{
layerId = "082782A7-7ED4-4E0F-8549-8BA7EDA0D1AE";
name = Regular;
paths = (
{
closed = 1;
nodes = (
"149 0 LINE SMOOTH",
"177 0 OFFCURVE",
"187 12 OFFCURVE",
"187 36 CURVE SMOOTH",
"187 255 LINE",
"348 255 LINE",
"449 18 LINE SMOOTH",
"456 3 OFFCURVE",
"462 0 OFFCURVE",
"479 0 CURVE SMOOTH",
"561 0 LINE SMOOTH",
"577 0 OFFCURVE",
"583 11 OFFCURVE",
"576 26 CURVE SMOOTH",
"465 272 LINE",
"549 305 OFFCURVE",
"594 373 OFFCURVE",
"594 466 CURVE SMOOTH",
"594 609 OFFCURVE",
"510 680 OFFCURVE",
"357 680 CURVE SMOOTH",
"96 680 LINE SMOOTH",
"69 680 OFFCURVE",
"59 667 OFFCURVE",
"59 643 CURVE SMOOTH",
"59 36 LINE SMOOTH",
"59 12 OFFCURVE",
"69 0 OFFCURVE",
"96 0 CURVE SMOOTH"
);
},
{
closed = 1;
nodes = (
"315 -184 LINE SMOOTH",
"344 -184 OFFCURVE",
"362 -161 OFFCURVE",
"362 -134 CURVE SMOOTH",
"362 -115 LINE SMOOTH",
"362 -88 OFFCURVE",
"343 -66 OFFCURVE",
"315 -66 CURVE SMOOTH",
"295 -66 LINE SMOOTH",
"268 -66 OFFCURVE",
"248 -88 OFFCURVE",
"248 -115 CURVE SMOOTH",
"248 -134 LINE SMOOTH",
"248 -161 OFFCURVE",
"268 -184 OFFCURVE",
"295 -184 CURVE SMOOTH"
);
},
{
closed = 1;
nodes = (
"187 582 LINE",
"346 582 LINE SMOOTH",
"427 582 OFFCURVE",
"467 547 OFFCURVE",
"467 466 CURVE SMOOTH",
"467 383 OFFCURVE",
"423 351 OFFCURVE",
"331 351 CURVE SMOOTH",
"187 351 LINE"
);
}
);
width = 633;
}
);
note = Rdotbelow;
unicode = 1E5A;
},
